{
.appVersion = "3243";
.formatVersion = 3;
DisplayStrings = (
",",
"‚",
",„",
"„"
);
axes = (
{
name = wght;
tag = wght;
}
);
classes = (
{

glyphs = (
{
color = 4;
glyphname = A;
lastChange = "2023-10-22 02:42:50 +0000";
layers = (
{
anchors = (
{
name = bottom;
pos = (592,0);
},
{
name = ogonek;
pos = (1220,10);
},
{
name = top;
pos = (1205,2008);
}
);
layerId = m01;
shapes = (
{
closed = 1;
nodes = (
(44,0,o),
(53,10,o),
(86,63,cs),
(678,1024,l),
(1133,1024,l),
(1144,50,ls),
(1144,21,o),
(1148,0,o),
(1201,0,cs),
(1251,0,o),
(1264,19,o),
(1264,60,cs),
(1243,1961,ls),
(1243,1986,o),
(1222,2008,o),
(1185,2008,cs),
(1135,2008,o),
(1124,1986,o),
(1099,1945,cs),
(-44,78,ls),
(-74,29,o),
(-53,0,o),
(-13,0,cs)
);
},
{
closed = 1;
nodes = (
(963,1487,l),
(1133,1788,l),
(1127,1477,l),
(1131,1135,l),
(746,1135,l)
);
}
);
vertWidth = 0;
width = 1454;
},
{
anchors = (
{
name = bottom;
pos = (631,0);
},
{
name = ogonek;
pos = (1142,0);
},
{
name = top;
pos = (1212,2008);
}
);
layerId = "6449507E-FEE0-4D4A-A81F-7CAB6A5803D5";
shapes = (
{
closed = 1;
nodes = (
(201,0,o),
(229,18,o),
(282,104,cs),
(702,786,l),
(1050,786,l),
(1056,143,ls),
(1057,81,o),
(1067,0,o),
(1212,0,cs),
(1327,0,o),
(1367,60,o),
(1366,151,cs),
(1345,1870,ls),
(1344,1933,o),
(1293,2008,o),
(1194,2008,cs),
(1098,2008,o),
(1071,1970,o),
(1030,1904,cs),
(-5,224,ls),
(-100,70,o),
(13,0,o),
(110,0,cs)
);
},
{
closed = 1;
nodes = (
(964,1275,l),
(1112,1605,l),
(1079,1273,l),
(1070,1082,l),
(863,1082,l)
);
}
);
vertWidth = 0;
width = 1531;
}
);
unicode = 65;
userData = {
KernOnName = A;
};
},
{
color = 5;
glyphname = AE;
lastChange = "2024-02-29 17:26:20 +0000";
layers = (
{
.lastUpdate = 730920380.623;
anchors = (
{
name = bottom;
pos = (877,0);
},
{
name = top;
pos = (1378,2008);
}
);
layerId = m01;
shapes = (
{
closed = 1;
nodes = (
(48,0,o),
(64,15,o),
(92,70,cs),
(583,1025,l),
(1018,1025,l),
(1084,62,ls),
(1086,31,o),
(1094,0,o),
(1149,0,cs),
(1811,0,ls),
(1865,0,o),
(1878,25,o),
(1878,60,cs),
(1878,93,o),
(1865,113,o),
(1811,113,cs),
(1203,113,l),
(1129,1025,l),
(1854,1025,ls),
(1907,1025,o),
(1920,1049,o),
(1920,1081,cs),
(1920,1116,o),
(1907,1139,o),
(1854,1139,cs),
(1121,1139,l),
(1060,1898,l),
(1944,1898,ls),
(1998,1898,o),
(2010,1919,o),
(2010,1952,cs),
(2010,1984,o),
(1998,2008,o),
(1944,2008,cs),
(994,2008,ls),
(949,2008,o),
(940,1986,o),
(916,1940,cs),
(-47,77,ls),
(-73,25,o),
(-49,0,o),
(-8,0,cs)
);
},
{
closed = 1;
nodes = (
(858,1579,l),
(966,1839,l),
(975,1560,l),
(1008,1139,l),
(639,1139,l)
);
}
);
width = 1735;
},
{
.lastUpdate = 730920380.924;
anchors = (
{
name = bottom;
pos = (938,0);
},
{
name = top;
pos = (1439,2008);
}
);
layerId = "6449507E-FEE0-4D4A-A81F-7CAB6A5803D5";
shapes = (
{
closed = 1;
nodes = (
(177,0,o),
(226,26,o),
(263,100,cs),
(690,940,l),
(1033,940,l),
(1101,125,ls),
(1107,49,o),
(1158,0,o),
(1251,0,cs),
(1827,0,ls),
(1919,0,o),
(1980,60,o),
(1980,153,cs),
(1980,244,o),
(1931,294,o),
(1832,294,cs),
(1379,294,l),
(1323,940,l),
(1741,940,ls),
(1839,940,o),
(1910,1005,o),
(1910,1083,cs),
(1910,1169,o),
(1850,1222,o),
(1756,1222,cs),
(1299,1222,l),
(1257,1713,l),
(1980,1713,ls),
(2072,1713,o),
(2137,1791,o),
(2137,1872,cs),
(2137,1950,o),
(2081,2008,o),
(1986,2008,cs),
(1069,2008,ls),
(997,2008,o),
(914,1981,o),
(874,1903,cs),
(-21,185,ls),
(-79,74,o),
(0,0,o),
(94,0,cs)
);
},
{
closed = 1;
nodes = (
(916,1385,l),
(1005,1613,l),
(996,1383,l),
(1015,1161,l),
(801,1161,l)
);
}
);
width = 1905;
}
);
metricLeft = A;
metricRight = E;
unicode = 198;
changeCount = 1;
},
{
color = 4;
glyphname = B;
lastChange = "2024-02-29 17:26:20 +0000";
layers = (
{
.lastUpdate = 730920380.624;
anchors = (
{
name = bottom;
pos = (550,0);
},
{
name = center;
pos = (800,1004);
},
{
name = top;
pos = (1051,2008);
}
);
layerId = m01;
shapes = (
{
closed = 1;
nodes = (
(775,0,o),
(1135,161,o),
(1207,449,cs),
(1287,771,o),
(1094,990,o),
(678,1075,c),
(1049,1088,o),
(1253,1193,o),
(1306,1418,cs),
(1392,1781,o),
(1139,2008,o),
(608,2008,cs),
(560,2008,o),
(540,1995,o),
(527,1944,cs),
(63,82,ls),
(52,36,o),
(72,0,o),
(115,0,cs)
);
},
{
closed = 1;
nodes = (
(425,1012,l),
(909,972,o),
(1154,769,o),
(1083,479,cs),
(1027,252,o),
(725,114,o),
(201,112,c)
);
},
{
closed = 1;
nodes = (
(646,1897,l),
(1049,1892,o),
(1245,1700,o),
(1178,1431,cs),
(1130,1228,o),
(892,1142,o),
(464,1166,c)
);
}
);
vertWidth = 0;
width = 1350;
},
{
.lastUpdate = 730920380.925;
anchors = (
{
name = bottom;
pos = (572,0);
},
{
name = center;
pos = (822,1004);
},
{
name = top;
pos = (1073,2008);
}
);
layerId = "6449507E-FEE0-4D4A-A81F-7CAB6A5803D5";
shapes = (
{
closed = 1;
nodes = (
(883,0,o),
(1227,179,o),
(1302,473,cs),
(1368,736,o),
(1275,916,o),
(1015,1025,c),
(1231,1077,o),
(1351,1187,o),
(1393,1360,cs),
(1484,1743,o),
(1250,2008,o),
(660,2008,cs),
(564,2008,o),
(512,1982,o),
(483,1875,cs),
(67,198,ls),
(41,88,o),
(106,0,o),
(205,0,cs)
);
},
{
closed = 1;
nodes = (
(565,915,l),
(848,875,o),
(1054,759,o),
(1003,544,cs),
(961,375,o),
(732,308,o),
(409,296,c)
);
},
{
closed = 1;
nodes = (
(764,1707,l),
(982,1689,o),
(1135,1599,o),
(1089,1415,cs),
(1053,1271,o),
(881,1202,o),
(635,1195,c)
);
}
);
vertWidth = 0;
width = 1419;
}
);
metricLeft = H;
unicode = 66;
userData = {
KernOnName = B;
};
changeCount = 1;
},
{
color = 4;
glyphname = C;
lastChange = "2023-10-19 07:13:55 +0000";
layers = (
{
anchors = (
{
name = bottom;
pos = (609,0);
},
{
name = top;
pos = (1010,2008);
}
);
layerId = m01;
shapes = (
{
closed = 1;
nodes = (
(795,-20,o),
(1007,141,o),
(1195,425,cs),
(1259,527,o),
(1269,559,o),
(1269,575,cs),
(1271,604,o),
(1253,615,o),
(1223,618,cs),
(1180,622,o),
(1164,587,o),
(1112,508,cs),
(938,246,o),
(763,93,o),
(621,93,cs),
(394,93,o),
(295,407,o),
(348,853,cs),
(424,1484,o),
(678,1898,o),
(1037,1898,cs),
(1159,1898,o),
(1246,1806,o),
(1295,1675,cs),
(1311,1637,o),
(1342,1621,o),
(1380,1635,cs),
(1416,1646,o),
(1426,1667,o),
(1417,1700,cs),
(1367,1894,o),
(1247,2008,o),
(1055,2008,cs),
(606,2008,o),
(304,1565,o),
(214,820,cs),
(157,318,o),
(308,-20,o),
(618,-20,cs)
);
}
);
vertWidth = 0;
width = 1288;
},
{
anchors = (
{
name = bottom;
pos = (673,20);
},
{
name = top;
pos = (1054,2008);
}
);
layerId = "6449507E-FEE0-4D4A-A81F-7CAB6A5803D5";
shapes = (
{
closed = 1;
nodes = (
(850,-20,o),
(1082,135,o),
(1277,437,cs),
(1357,559,o),
(1363,603,o),
(1363,624,cs),
(1363,687,o),
(1313,757,o),
(1227,762,cs),
(1160,767,o),
(1116,739,o),
(1035,614,cs),
(905,416,o),
(775,279,o),
(668,279,cs),
(502,279,o),
(489,596,o),
(520,853,cs),
(575,1347,o),
(757,1729,o),
(1051,1729,cs),
(1121,1729,o),
(1166,1661,o),
(1194,1589,cs),
(1228,1500,o),
(1310,1467,o),
(1396,1493,cs),
(1479,1519,o),
(1516,1581,o),
(1495,1670,cs),
(1441,1894,o),
(1292,2028,o),
(1066,2028,cs),
(634,2028,o),
(288,1592,o),
(197,848,cs),
(132,281,o),
(340,-20,o),
(666,-20,cs)
);
}
);
vertWidth = 0;
width = 1375;
}
);
unicode = 67;
userData = {
KernOnName = C;
};
},
{
color = 4;
glyphname = D;
lastChange = "2024-02-29 17:26:20 +0000";
layers = (
{
.lastUpdate = 730920380.624;
anchors = (
{
name = bottom;
pos = (611,0);
},
{
name = center;
pos = (861,1004);
},
{
name = top;
pos = (1112,2008);
}
);
layerId = m01;
shapes = (
{
closed = 1;
nodes = (
(319,0,ls),
(945,0,o),
(1346,413,o),
(1511,1202,cs),
(1612,1680,o),
(1403,2008,o),
(938,2008,cs),
(610,2008,ls),
(551,2008,o),
(542,1991,o),
(531,1946,cs),
(63,67,ls),
(54,30,o),
(68,0,o),
(113,0,cs)
);
},
{
closed = 1;
nodes = (
(650,1897,l),
(921,1897,ls),
(1288,1897,o),
(1468,1607,o),
(1377,1186,cs),
(1234,505,o),
(869,110,o),
(325,110,cs),
(204,110,l)
);
}
);
vertWidth = 0;
width = 1468;
},
{
.lastUpdate = 730920380.925;
anchors = (
{
name = bottom;
pos = (634,0);
},
{
name = center;
pos = (884,1004);
},
{
name = top;
pos = (1135,2008);
}
);
layerId = "6449507E-FEE0-4D4A-A81F-7CAB6A5803D5";
shapes = (
{
closed = 1;
nodes = (
(395,0,ls),
(1014,0,o),
(1425,382,o),
(1589,1165,cs),
(1698,1678,o),
(1456,2008,o),
(964,2008,cs),
(660,2008,ls),
(538,2008,o),
(509,1960,o),
(489,1878,cs),
(67,185,ls),
(44,93,o),
(91,0,o),
(210,0,cs)
);
},
{
closed = 1;
nodes = (
(767,1709,l),
(946,1709,ls),
(1227,1709,o),
(1342,1496,o),
(1277,1189,cs),
(1153,627,o),
(877,300,o),
(424,300,cs),
(420,300,l)
);
}
);
vertWidth = 0;
width = 1536;
}
);
metricLeft = H;
unicode = 68;
userData = {
KernOnName = D;
};
changeCount = 1;
},
{
color = 4;
glyphname = E;
lastChange = "2024-02-29 17:26:20 +0000";
layers = (
{
.lastUpdate = 730920380.625;
anchors = (
{
name = bottom;
pos = (482,0);
},
{
name = ogonek;
pos = (1048,10);
},
{
name = top;
pos = (983,2008);
},
{
name = topleft;
pos = (410,2008);
}
);
layerId = m01;
shapes = (
{
closed = 1;
nodes = (
(1031,0,ls),
(1074,0,o),
(1097,22,o),
(1097,63,cs),
(1097,92,o),
(1076,110,o),
(1032,110,cs),
(204,110,l),
(432,1023,l),
(989,1023,ls),
(1033,1023,o),
(1055,1044,o),
(1055,1078,cs),
(1055,1115,o),
(1034,1131,o),
(989,1131,cs),
(459,1131,l),
(650,1898,l),
(1438,1898,ls),
(1482,1898,o),
(1504,1918,o),
(1504,1955,cs),
(1504,1992,o),
(1483,2008,o),
(1439,2008,cs),
(614,2008,ls),
(556,2008,o),
(542,1990,o),
(531,1944,cs),
(63,69,ls),
(54,31,o),
(67,0,o),
(113,0,cs)
);
}
);
vertWidth = 0;
width = 1229;
},
{
anchors = (
{
name = bottom;
pos = (536,0);
},
{
name = ogonek;
pos = (985,10);
},
{
name = top;
pos = (1037,2008);
},
{
name = topleft;
pos = (386,2008);
}
);
layerId = "6449507E-FEE0-4D4A-A81F-7CAB6A5803D5";
shapes = (
{
closed = 1;
nodes = (
(1051,0,ls),
(1149,0,o),
(1209,65,o),
(1209,153,cs),
(1209,229,o),
(1165,297,o),
(1051,297,cs),
(413,297,l),
(570,926,l),
(1009,926,ls),
(1113,926,o),
(1168,991,o),
(1168,1075,cs),
(1168,1160,o),
(1116,1223,o),
(1009,1223,cs),
(644,1223,l),
(765,1711,l),
(1415,1711,ls),
(1521,1711,o),
(1573,1776,o),
(1573,1860,cs),
(1573,1946,o),
(1524,2008,o),
(1415,2008,cs),
(661,2008,ls),
(547,2008,o),
(508,1959,o),
(487,1873,cs),
(67,187,ls),
(42,87,o),
(96,0,o),
(210,0,cs)
);
}
);
vertWidth = 0;
width = 1341;
}
);
metricLeft = H;
unicode = 69;
userData = {
KernOnName = E;
};
changeCount = 1;
},
{
color = 4;
glyphname = F;
kernRight = KO_F;
lastChange = "2024-02-29 17:26:20 +0000";
layers = (
{
.lastUpdate = 730920380.625;
anchors = (
{
name = bottom;
pos = (450,0);
},
{
name = top;
pos = (951,2008);
}
);
layerId = m01;
shapes = (
{
closed = 1;
nodes = (
(169,0,o),
(185,38,o),
(193,70,cs),
(431,1023,l),
(991,1023,ls),
(1034,1023,o),
(1057,1043,o),
(1057,1080,cs),
(1057,1114,o),
(1035,1131,o),
(991,1131,cs),
(458,1131,l),
(649,1898,l),
(1439,1898,ls),
(1483,1898,o),
(1505,1918,o),
(1505,1955,cs),
(1505,1992,o),
(1484,2008,o),
(1440,2008,cs),
(615,2008,ls),
(557,2008,o),
(542,1990,o),
(531,1944,cs),
(63,69,ls),
(54,31,o),
(67,0,o),
(113,0,cs)
);
}
);
vertWidth = 0;
width = 1230;
},
{
.lastUpdate = 730920380.926;
anchors = (
{
name = bottom;
pos = (506,0);
},
{
name = top;
pos = (1007,2008);
}
);
layerId = "6449507E-FEE0-4D4A-A81F-7CAB6A5803D5";
shapes = (
{
closed = 1;
nodes = (
(322,0,o),
(357,78,o),
(371,133,cs),
(571,926,l),
(1013,926,ls),
(1117,926,o),
(1171,991,o),
(1171,1074,cs),
(1171,1160,o),
(1122,1222,o),
(1013,1222,cs),
(645,1222,l),
(766,1711,l),
(1418,1711,ls),
(1520,1711,o),
(1575,1776,o),
(1575,1860,cs),
(1575,1946,o),
(1523,2008,o),
(1418,2008,cs),
(662,2008,ls),
(550,2008,o),
(508,1959,o),
(487,1873,cs),
(67,187,ls),
(42,85,o),
(91,0,o),
(208,0,cs)
);
}
);
vertWidth = 0;
width = 1343;
}
);
metricLeft = E;
metricRight = E;
unicode = 70;
userData = {
KernOnName = F;
};
changeCount = 1;
},
{
color = 4;
glyphname = G;
lastChange = "2024-02-29 17:26:20 +0000";
layers = (
{
.lastUpdate = 730920380.626;
anchors = (
{
name = bottom;
pos = (614,0);
},
{
name = top;
pos = (1115,2008);
}
);
layerId = m01;
shapes = (
{
closed = 1;
nodes = (
(768,-20,o),
(970,117,o),
(1175,480,c),
(1071,67,ls),
(1062,34,o),
(1070,0,o),
(1117,0,cs),
(1177,0,o),
(1193,34,o),
(1201,67,cs),
(1422,953,ls),
(1434,1002,o),
(1402,1023,o),
(1367,1023,cs),
(1317,1023,o),
(1312,1020,o),
(1207,756,cs),
(1054,367,o),
(810,88,o),
(560,88,cs),
(310,88,o),
(267,521,o),
(424,1148,cs),
(548,1632,o),
(786,1898,o),
(1069,1898,cs),
(1175,1898,o),
(1253,1827,o),
(1305,1695,cs),
(1318,1657,o),
(1349,1641,o),
(1392,1655,cs),
(1428,1666,o),
(1438,1688,o),
(1427,1719,cs),
(1358,1913,o),
(1246,2008,o),
(1080,2008,cs),
(702,2008,o),
(424,1663,o),
(285,1114,cs),
(113,427,o),
(213,-20,o),
(542,-20,cs)
);
}
);
vertWidth = 0;
width = 1258;
},
{
.lastUpdate = 730920380.926;
anchors = (
{
name = bottom;
pos = (657,0);
},
{
name = top;
pos = (1158,2008);
}
);
layerId = "6449507E-FEE0-4D4A-A81F-7CAB6A5803D5";
shapes = (
{
closed = 1;
nodes = (
(795,-20,o),
(911,111,o),
(1020,286,c),
(996,185,ls),
(976,99,o),
(1009,0,o),
(1131,0,cs),
(1253,0,o),
(1289,75,o),
(1303,133,cs),
(1503,934,ls),
(1534,1060,o),
(1441,1121,o),
(1358,1121,cs),
(1275,1121,o),
(1236,1095,o),
(1121,817,cs),
(996,510,o),
(815,277,o),
(615,277,cs),
(423,277,o),
(552,954,o),
(591,1108,cs),
(685,1484,o),
(860,1729,o),
(1084,1729,cs),
(1146,1729,o),
(1180,1679,o),
(1208,1609,cs),
(1240,1529,o),
(1312,1482,o),
(1409,1513,cs),
(1505,1539,o),
(1536,1614,o),
(1507,1695,cs),
(1427,1924,o),
(1286,2028,o),
(1097,2028,cs),
(714,2028,o),
(414,1691,o),
(271,1131,cs),
(60,286,o),
(261,-20,o),
(597,-20,cs)
);
}
);
vertWidth = 0;
width = 1345;
}
);
metricLeft = C;
metricRight = H;
unicode = 71;
userData = {
KernOnName = G;
};
changeCount = 1;
},
{
color = 4;
glyphname = H;
lastChange = "2023-10-21 05:52:17 +0000";
layers = (
{
anchors = (
{
name = bottom;
pos = (635,0);
},
{
name = center;
pos = (885,1004);
},
{
name = top;
pos = (1136,2008);
},
{
name = topleft;
pos = (409,2008);
}
);
layerId = m01;
shapes = (
{
closed = 1;
nodes = (
(172,0,o),
(183,30,o),
(190,58,cs),
(431,1023,l),
(1350,1023,l),
(1112,68,ls),
(1103,33,o),
(1108,0,o),
(1162,0,cs),
(1214,0,o),
(1231,25,o),
(1238,51,cs),
(1708,1936,ls),
(1720,1983,o),
(1711,2008,o),
(1661,2008,cs),
(1613,2008,o),
(1591,1985,o),
(1584,1958,cs),
(1377,1131,l),
(458,1131,l),
(655,1926,ls),
(667,1975,o),
(652,2008,o),
(611,2008,cs),
(558,2008,o),
(541,1990,o),
(530,1944,cs),
(63,70,ls),
(53,31,o),
(68,0,o),
(113,0,cs)
);
}
);
vertWidth = 0;
width = 1540;
},
{
anchors = (
{
name = bottom;
pos = (664,0);
},
{
name = center;
pos = (914,1004);
},
{
name = top;
pos = (1165,2008);
},
{
name = topleft;
pos = (386,2008);
}
);
layerId = "6449507E-FEE0-4D4A-A81F-7CAB6A5803D5";
shapes = (
{
closed = 1;
nodes = (
(335,0,o),
(364,79,o),
(377,133,cs),
(574,926,l),
(1212,926,l),
(1028,185,ls),
(1008,104,o),
(1026,0,o),
(1171,0,cs),
(1286,0,o),
(1324,70,o),
(1338,125,cs),
(1761,1821,ls),
(1790,1937,o),
(1737,2008,o),
(1620,2008,cs),
(1511,2008,o),
(1464,1940,o),
(1451,1886,cs),
(1286,1222,l),
(648,1222,l),
(794,1810,ls),
(827,1944,o),
(755,2008,o),
(656,2008,cs),
(555,2008,o),
(509,1962,o),
(487,1873,cs),
(67,187,ls),
(42,85,o),
(91,0,o),
(208,0,cs)
);
}
);
vertWidth = 0;
width = 1597;
}
);
unicode = 72;
userData = {
KernOnName = H;
};
},
{
color = 5;
glyphname = Hbar;
lastChange = "2024-02-29 17:26:20 +0000";
layers = (
{
.lastUpdate = 730920380.626;
background = {
shapes = (
{
pos = (443,0);
ref = H;
}
);
};
layerId = m01;
shapes = (
{
closed = 1;
nodes = (
(597,0,o),
(609,35,o),
(616,65,cs),
(778,723,l),
(1695,723,l),
(1533,65,ls),
(1525,32,o),
(1531,0,o),
(1588,0,cs),
(1638,0,o),
(1653,28,o),
(1660,56,cs),
(2123,1937,ls),
(2135,1984,o),
(2124,2008,o),
(2071,2008,cs),
(2025,2008,o),
(2005,1981,o),
(1998,1951,cs),
(1723,836,l),
(806,836,l),
(1074,1929,ls),
(1087,1981,o),
(1073,2008,o),
(1031,2008,cs),
(979,2008,o),
(960,1982,o),
(948,1937,cs),
(488,65,ls),
(478,24,o),
(491,0,o),
(540,0,cs)
);
},
{
closed = 1;
nodes = (
(2158,1309,ls),
(2208,1309,o),
(2231,1339,o),
(2233,1373,cs),
(2235,1402,o),
(2217,1432,o),
(2167,1432,cs),
(686,1432,ls),
(634,1432,o),
(614,1397,o),
(612,1365,cs),
(610,1335,o),
(630,1309,o),
(677,1309,cs)
);
}
);
width = 2014;
},
{
.lastUpdate = 730920380.926;
background = {
shapes = (
{
pos = (311,0);
ref = H;
}
);
};
layerId = "6449507E-FEE0-4D4A-A81F-7CAB6A5803D5";
shapes = (
{
closed = 1;
nodes = (
(619,0,o),
(673,62,o),
(688,125,cs),
(802,596,l),
(1453,596,l),
(1346,151,ls),
(1325,63,o),
(1373,0,o),
(1473,0,cs),
(1564,0,o),
(1632,52,o),
(1648,114,cs),
(2073,1852,ls),
(2098,1950,o),
(2038,2008,o),
(1941,2008,cs),
(1855,2008,o),
(1786,1960,o),
(1769,1894,cs),
(1519,871,l),
(869,871,l),
(1107,1843,ls),
(1134,1952,o),
(1081,2008,o),
(990,2008,cs),
(907,2008,o),
(824,1969,o),
(803,1880,cs),
(380,151,ls),
(358,65,o),
(416,0,o),
(516,0,cs)
);
},
{
closed = 1;
nodes = (
(2033,1220,ls),
(2100,1220,o),
(2169,1284,o),
(2188,1359,cs),
(2207,1433,o),
(2132,1494,o),
(2066,1494,cs),
(594,1494,ls),
(533,1494,o),
(477,1426,o),
(463,1345,cs),
(452,1275,o),
(513,1220,o),
(562,1220,cs)
);
}
);
width = 1910;
}
);
metricLeft = T;
metricRight = T;
unicode = 294;
changeCount = 1;
},
{
color = 4;
glyphname = I;
lastChange = "2023-10-19 07:13:55 +0000";
layers = (
{
anchors = (
{
name = bottom;
pos = (436,0);
},
{
name = ogonek;
pos = (866,10);
},
{
name = top;
pos = (937,2008);
},
{
name = topleft;
pos = (386,2008);
}
);
layerId = m01;
shapes = (
{
closed = 1;
nodes = (
(846,1900,l),
(399,108,l),
(57,108,ls),
(3,108,o),
(-8,90,o),
(-8,55,cs),
(-8,23,o),
(4,0,o),
(57,0,cs),
(843,0,ls),
(896,0,o),
(908,23,o),
(908,55,cs),
(908,90,o),
(897,108,o),
(843,108,cs),
(529,108,l),
(976,1900,l),
(1315,1900,ls),
(1369,1900,o),
(1381,1920,o),
(1381,1953,cs),
(1381,1985,o),
(1368,2008,o),
(1315,2008,cs),
(531,2008,ls),
(477,2008,o),
(465,1985,o),
(465,1953,cs),
(465,1920,o),
(477,1900,o),
(531,1900,cs)
);
}
);
vertWidth = 0;
width = 1142;
},
{
anchors = (
{
name = bottom;
pos = (517,0);
},
{
name = ogonek;
pos = (862,10);
},
{
name = top;
pos = (1018,2008);
},
{
name = topleft;
pos = (386,2008);
}
);
layerId = "6449507E-FEE0-4D4A-A81F-7CAB6A5803D5";
shapes = (
{
closed = 1;
nodes = (
(787,1711,l),
(435,297,l),
(196,297,ls),
(63,297,o),
(40,224,o),
(40,151,cs),
(40,78,o),
(69,0,o),
(196,0,cs),
(921,0,ls),
(1051,0,o),
(1080,78,o),
(1080,151,cs),
(1080,224,o),
(1054,297,o),
(921,297,cs),
(758,297,l),
(1111,1711,l),
(1349,1711,ls),
(1482,1711,o),
(1505,1787,o),
(1505,1857,cs),
(1505,1933,o),
(1479,2008,o),
(1349,2008,cs),
(624,2008,ls),
(494,2008,o),
(466,1933,o),
(466,1857,cs),
(466,1787,o),
(492,1711,o),
(624,1711,cs)
);
}
);
vertWidth = 0;
width = 1304;
}
);
unicode = 73;
userData = {
KernOnName = I;
};
},
{
color = 4;
glyphname = J;
lastChange = "2023-10-19 07:13:55 +0000";
layers = (
{
anchors = (
{
name = bottom;
pos = (393,0);
},
{
name = top;
pos = (894,2008);
}
);
layerId = m01;
shapes = (
{
closed = 1;
nodes = (
(626,0,o),
(815,208,o),
(912,597,cs),
(1244,1927,ls),
(1256,1977,o),
(1252,2006,o),
(1201,2008,cs),
(1147,2011,o),
(1129,1990,o),
(1118,1944,cs),
(783,599,ls),
(705,287,o),
(556,113,o),
(375,113,cs),
(196,113,o),
(128,247,o),
(128,448,cs),
(128,531,o),
(115,563,o),
(73,563,cs),
(33,563,o),
(5,533,o),
(5,448,cs),
(2,167,o),
(130,0,o),
(367,0,cs)
);
}
);
vertWidth = 0;
width = 1055;
},
{
anchors = (
{
name = bottom;
pos = (473,0);
},
{
name = top;
pos = (974,2008);
}
);
layerId = "6449507E-FEE0-4D4A-A81F-7CAB6A5803D5";
shapes = (
{
closed = 1;
nodes = (
(759,0,o),
(974,193,o),
(1078,609,cs),
(1378,1813,ls),
(1408,1934,o),
(1365,2008,o),
(1248,2008,cs),
(1138,2008,o),
(1090,1962,o),
(1068,1873,cs),
(768,658,ls),
(714,441,o),
(623,299,o),
(493,299,cs),
(382,299,o),
(366,401,o),
(366,510,cs),
(366,692,o),
(298,713,o),
(215,713,cs),
(145,713,o),
(54,684,o),
(54,510,cs),
(54,182,o),
(215,0,o),
(486,0,cs)
);
}
);
vertWidth = 0;
width = 1216;
}
);
unicode = 74;
userData = {
KernOnName = J;
};
},
{
color = 4;
glyphname = K;
lastChange = "2024-02-29 17:26:20 +0000";
layers = (
{
.lastUpdate = 730920380.627;
anchors = (
{
name = bottom;
pos = (567,0);
},
{
name = top;
pos = (1068,2008);
}
);
guides = (
{
angle = 255.9855;
pos = (422,999);
}
);
layerId = m01;
shapes = (
{
closed = 1;
nodes = (
(1296,0,o),
(1339,46,o),
(1294,106,cs),
(558,1081,l),
(1614,1887,ls),
(1649,1913,o),
(1665,1937,o),
(1665,1966,cs),
(1665,1992,o),
(1652,2008,o),
(1616,2008,cs),
(1597,2008,o),
(1567,1998,o),
(1533,1972,cs),
(459,1148,l),
(653,1926,ls),
(666,1977,o),
(656,2008,o),
(608,2008,cs),
(554,2008,o),
(537,1984,o),
(527,1944,cs),
(63,85,ls),
(53,45,o),
(67,0,o),
(111,0,cs),
(163,0,o),
(181,39,o),
(191,77,cs),
(430,1034,l),
(1172,54,ls),
(1196,23,o),
(1218,0,o),
(1254,0,cs)
);
}
);
vertWidth = 0;
width = 1383;
},
{
.lastUpdate = 730920380.927;
anchors = (
{
name = bottom;
pos = (598,0);
},
{
name = top;
pos = (1099,2008);
}
);
layerId = "6449507E-FEE0-4D4A-A81F-7CAB6A5803D5";
shapes = (
{
closed = 1;
nodes = (
(1339,0,o),
(1461,109,o),
(1352,257,cs),
(748,1082,l),
(1620,1722,ls),
(1671,1760,o),
(1703,1802,o),
(1703,1873,cs),
(1703,1940,o),
(1654,2008,o),
(1566,2008,cs),
(1529,2008,o),
(1483,1999,o),
(1425,1956,cs),
(690,1412,l),
(789,1810,ls),
(822,1941,o),
(768,2008,o),
(656,2008,cs),
(547,2008,o),
(505,1954,o),
(485,1875,cs),
(67,200,ls),
(42,98,o),
(101,0,o),
(205,0,cs),
(312,0,o),
(357,76,o),
(375,148,cs),
(544,825,l),
(1087,86,ls),
(1126,33,o),
(1175,0,o),
(1238,0,cs)
);
}
);
vertWidth = 0;
width = 1468;
}
);
metricLeft = H;
unicode = 75;
userData = {
KernOnName = K;
};
changeCount = 1;
},
{
color = 4;
glyphname = L;
lastChange = "2024-02-29 17:26:20 +0000";
layers = (
{
.lastUpdate = 730920380.627;
anchors = (
{
name = bottom;
pos = (449,0);
},
{
name = center;
pos = (699,1004);
},
{
name = top;
pos = (950,2008);
},
{
name = topright;
pos = (1490,2008);
}
);
layerId = m01;
shapes = (
{
closed = 1;
nodes = (
(940,0,ls),
(1003,0,o),
(1034,26,o),
(1034,71,cs),
(1034,96,o),
(1015,110,o),
(970,110,cs),
(204,110,l),
(655,1920,ls),
(668,1973,o),
(667,2008,o),
(615,2008,cs),
(557,2008,o),
(542,1990,o),
(531,1944,cs),
(63,69,ls),
(54,31,o),
(67,0,o),
(113,0,cs)
);
}
);
vertWidth = 0;
width = 759;
},
{
.lastUpdate = 730920380.927;
anchors = (
{
name = bottom;
pos = (506,0);
},
{
name = center;
pos = (756,1004);
},
{
name = top;
pos = (671,1994);
},
{
name = topright;
pos = (1627,2008);
}
);
layerId = "6449507E-FEE0-4D4A-A81F-7CAB6A5803D5";
shapes = (
{
closed = 1;
nodes = (
(962,0,ls),
(1092,0,o),
(1152,78,o),
(1152,164,cs),
(1152,231,o),
(1118,297,o),
(991,297,cs),
(417,297,l),
(793,1805,ls),
(827,1942,o),
(783,2008,o),
(661,2008,cs),
(549,2008,o),
(508,1959,o),
(487,1873,cs),
(67,187,ls),
(42,85,o),
(91,0,o),
(208,0,cs)
);
}
);
vertWidth = 0;
width = 920;
}
);
metricLeft = E;
metricRight = E;
unicode = 76;
userData = {
KernOnName = L;
};
changeCount = 1;
},
{
color = 5;
glyphname = Lslash;
lastChange = "2024-02-29 17:26:20 +0000";
layers = (
{
.lastUpdate = 730920380.627;
layerId = m01;
shapes = (
{
closed = 1;
nodes = (
(916,0,ls),
(979,0,o),
(1010,26,o),
(1010,71,cs),
(1010,96,o),
(991,110,o),
(946,110,cs),
(180,110,l),
(631,1920,ls),
(644,1973,o),
(643,2008,o),
(591,2008,cs),
(533,2008,o),
(518,1990,o),
(507,1944,cs),
(39,69,ls),
(30,31,o),
(43,0,o),
(89,0,cs)
);
},
{
closed = 1;
nodes = (
(-17,557,o),
(4,543,o),
(50,567,cs),
(218,657,l),
(300,681,l),
(879,995,ls),
(923,1019,o),
(923,1044,o),
(906,1074,cs),
(892,1101,o),
(872,1114,o),
(828,1091,cs),
(313,810,l),
(236,788,l),
(0,663,ls),
(-46,638,o),
(-47,614,o),
(-34,588,cs)
);
}
);
width = 735;
},
{
.lastUpdate = 730920380.927;
layerId = "6449507E-FEE0-4D4A-A81F-7CAB6A5803D5";
shapes = (
{
closed = 1;
nodes = (
(962,0,ls),
(1092,0,o),
(1152,78,o),
(1152,164,cs),
(1152,231,o),
(1118,297,o),
(991,297,cs),
(417,297,l),
(793,1805,ls),
(827,1942,o),
(783,2008,o),
(661,2008,cs),
(549,2008,o),
(508,1959,o),
(487,1873,cs),
(67,187,ls),
(42,85,o),
(91,0,o),
(208,0,cs)
);
},
{
closed = 1;
nodes = (
(21,487,o),
(94,464,o),
(176,506,cs),
(234,536,l),
(413,592,l),
(996,907,ls),
(1068,947,o),
(1067,999,o),
(1029,1046,cs),
(994,1087,o),
(931,1106,o),
(871,1079,cs),
(469,899,l),
(275,848,l),
(55,735,ls),
(-27,692,o),
(-48,616,o),
(-15,553,cs)
);
}
);
width = 920;
}
);
metricRight = L;
unicode = 321;
changeCount = 1;
},
{
color = 4;
glyphname = M;
lastChange = "2024-02-29 17:26:20 +0000";
layers = (
{
.lastUpdate = 730920380.628;
anchors = (
{
name = bottom;
pos = (838,0);
},
{
name = top;
pos = (1339,2008);
}
);
layerId = m01;
shapes = (
{
closed = 1;
nodes = (
(162,0,o),
(181,27,o),
(190,64,cs),
(622,1800,l),
(780,41,ls),
(783,11,o),
(799,0,o),
(836,0,cs),
(868,0,o),
(896,14,o),
(916,48,cs),
(1948,1786,l),
(1521,75,ls),
(1513,44,o),
(1521,0,o),
(1572,0,cs),
(1627,0,o),
(1639,24,o),
(1646,54,cs),
(2106,1900,ls),
(2127,1986,o),
(2091,2008,o),
(2014,2008,cs),
(1962,2008,o),
(1934,1988,o),
(1913,1952,cs),
(885,219,l),
(732,1948,ls),
(728,1988,o),
(696,2008,o),
(636,2008,cs),
(572,2008,o),
(536,1976,o),
(528,1945,cs),
(63,76,ls),
(53,37,o),
(71,0,o),
(113,0,cs)
);
}
);
vertWidth = 0;
width = 1939;
},
{
.lastUpdate = 730920380.928;
anchors = (
{
name = bottom;
pos = (847,0);
},
{
name = top;
pos = (1348,2008);
}
);
layerId = "6449507E-FEE0-4D4A-A81F-7CAB6A5803D5";
shapes = (
{
closed = 1;
nodes = (
(308,0,o),
(354,64,o),
(371,133,cs),
(624,1137,l),
(716,127,ls),
(723,49,o),
(771,0,o),
(869,0,cs),
(929,0,o),
(988,32,o),
(1025,94,cs),
(1627,1087,l),
(1403,192,ls),
(1384,116,o),
(1419,0,o),
(1546,0,cs),
(1663,0,o),
(1691,64,o),
(1705,120,cs),
(2126,1813,ls),
(2165,1971,o),
(2077,2008,o),
(1941,2008,cs),
(1866,2008,o),
(1820,2004,o),
(1732,1857,cs),
(984,602,l),
(870,1839,ls),
(855,2003,o),
(779,2008,o),
(680,2008,cs),
(586,2008,o),
(514,1991,o),
(481,1857,cs),
(66,192,ls),
(42,95,o),
(103,0,o),
(204,0,cs)
);
}
);
vertWidth = 0;
width = 1963;
}
);
metricLeft = H;
metricRight = H;
unicode = 77;
userData = {
KernOnName = M;
};
changeCount = 1;
},
{
color = 4;
glyphname = N;
lastChange = "2024-02-29 17:26:20 +0000";
layers = (
{
.lastUpdate = 730920380.628;
anchors = (
{
name = bottom;
pos = (636,0);
},
{
name = top;
pos = (1137,2008);
}
);
layerId = m01;
shapes = (
{
closed = 1;
nodes = (
(169,0,o),
(185,35,o),
(193,69,cs),
(620,1781,l),
(1103,44,ls),
(1110,19,o),
(1133,0,o),
(1173,0,cs),
(1214,0,o),
(1234,30,o),
(1241,59,cs),
(1707,1930,ls),
(1720,1984,o),
(1713,2008,o),
(1662,2008,cs),
(1614,2008,o),
(1590,1985,o),
(1581,1947,cs),
(1162,264,l),
(691,1956,ls),
(683,1983,o),
(659,2008,o),
(611,2008,cs),
(554,2008,o),
(542,1991,o),
(530,1944,cs),
(63,70,ls),
(53,30,o),
(66,0,o),
(113,0,cs)
);
}
);
vertWidth = 0;
width = 1540;
},
{
.lastUpdate = 730920380.928;
anchors = (
{
name = bottom;
pos = (664,0);
},
{
name = top;
pos = (1165,2008);
}
);
layerId = "6449507E-FEE0-4D4A-A81F-7CAB6A5803D5";
shapes = (
{
closed = 1;
nodes = (
(320,0,o),
(358,71,o),
(375,138,cs),
(682,1358,l),
(1024,104,ls),
(1040,45,o),
(1097,0,o),
(1177,0,cs),
(1274,0,o),
(1325,75,o),
(1339,133,cs),
(1758,1813,ls),
(1791,1946,o),
(1745,2008,o),
(1625,2008,cs),
(1529,2008,o),
(1473,1956,o),
(1453,1878,cs),
(1153,680,l),
(826,1896,ls),
(813,1943,o),
(756,2008,o),
(662,2008,cs),
(543,2008,o),
(509,1959,o),
(488,1873,cs),
(68,187,ls),
(43,85,o),
(86,0,o),
(208,0,cs)
);
}
);
vertWidth = 0;
width = 1596;
}
);
metricLeft = H;
metricRight = H;
unicode = 78;
userData = {
KernOnName = N;
};
changeCount = 1;
},
{
color = 5;
glyphname = Eng;
lastChange = "2024-02-29 17:26:20 +0000";
layers = (
{
.lastUpdate = 730920380.628;
background = {
shapes = (
{
pos = (15,0);
ref = H;
}
);
};
layerId = m01;
shapes = (
{
closed = 1;
nodes = (
(158,0,o),
(180,19,o),
(191,65,cs),
(651,1934,ls),
(663,1987,o),
(649,2012,o),
(607,2012,cs),
(561,2012,o),
(538,1992,o),
(525,1942,cs),
(63,65,ls),
(53,21,o),
(69,0,o),
(115,0,cs)
);
},
{
closed = 1;
nodes = (
(516,-592,o),
(591,-587,o),
(680,-575,cs),
(823,-554,o),
(952,-469,o),
(1049,-329,cs),
(1157,-173,o),
(1193,-87,o),
(1261,183,cs),
(1640,1683,ls),
(1691,1880,o),
(1566,2031,o),
(1351,2031,cs),
(1090,2031,o),
(855,1832,o),
(503,1313,c),
(324,1028,l),
(302,936,o),
(301,940,o),
(342,934,cs),
(377,930,o),
(387,935,o),
(407,963,cs),
(889,1683,o),
(1106,1908,o),
(1319,1908,cs),
(1456,1908,o),
(1538,1797,o),
(1504,1663,cs),
(1127,180,ls),
(1071,-46,o),
(1040,-122,o),
(952,-259,cs),
(874,-374,o),
(772,-439,o),
(641,-455,cs),
(554,-464,o),
(502,-468,o),
(456,-468,cs),
(389,-468,o),
(348,-494,o),
(346,-538,cs),
(343,-576,o),
(373,-592,o),
(446,-592,cs)
);
}
);
width = 1478;
},
{
.lastUpdate = 730920380.928;
background = {
shapes = (
{
pos = (1,0);
ref = H;
}
);
};
layerId = "6449507E-FEE0-4D4A-A81F-7CAB6A5803D5";
shapes = (
{
closed = 1;
nodes = (
(304,2,o),
(354,63,o),
(370,126,cs),
(795,1847,ls),
(821,1954,o),
(768,2011,o),
(678,2011,cs),
(595,2011,o),
(514,1972,o),
(492,1884,cs),
(65,152,ls),
(44,66,o),
(102,2,o),
(201,2,cs)
);
},
{
closed = 1;
nodes = (
(505,-573,o),
(620,-573,o),
(719,-558,cs),
(899,-530,o),
(1087,-442,o),
(1178,-312,cs),
(1303,-132,o),
(1318,-30,o),
(1374,209,cs),
(1702,1595,ls),
(1751,1804,o),
(1699,2008,o),
(1368,2008,cs),
(1177,2008,o),
(853,1828,o),
(626,1380,c),
(441,1129,l),
(424,1056,o),
(208,673,o),
(312,673,cs),
(425,673,o),
(469,727,o),
(505,796,c),
(606,1040,o),
(1041,1754,o),
(1320,1754,cs),
(1406,1754,o),
(1413,1713,o),
(1392,1622,cs),
(1045,235,ls),
(999,34,o),
(979,-62,o),
(910,-160,cs),
(856,-237,o),
(785,-276,o),
(670,-291,cs),
(609,-297,o),
(522,-293,o),
(471,-293,cs),
(356,-293,o),
(273,-362,o),
(268,-441,cs),
(263,-519,o),
(328,-573,o),
(446,-573,cs)
);
}
);
width = 1546;
}
);
metricLeft = H;
metricRight = H;
unicode = 330;
changeCount = 1;
},
{
color = 4;
glyphname = O;
lastChange = "2023-10-19 07:13:55 +0000";
layers = (
{
anchors = (
{
name = bottom;
pos = (580,0);
},
{
name = center;
pos = (830,1004);
},
{
name = ogonek;
pos = (1153,10);
},
{
name = top;
pos = (1081,2008);
},
{
name = topleft;
pos = (388,2008);
},
{
name = topright;
pos = (1774,2008);
}
);
layerId = m01;
shapes = (
{
closed = 1;
nodes = (
(984,-20,o),
(1294,402,o),
(1439,1073,cs),
(1558,1628,o),
(1406,2008,o),
(1046,2008,cs),
(593,2008,o),
(302,1547,o),
(213,800,cs),
(156,298,o),
(303,-20,o),
(614,-20,cs)
);
},
{
closed = 1;
nodes = (
(423,1464,o),
(670,1898,o),
(1028,1898,cs),
(1299,1898,o),
(1411,1549,o),
(1306,1059,cs),
(1178,471,o),
(917,93,o),
(616,93,cs),
(390,93,o),
(294,386,o),
(347,833,cs)
);
}
);
vertWidth = 0;
width = 1430;
},
{
anchors = (
{
name = bottom;
pos = (620,0);
},
{
name = center;
pos = (870,1004);
},
{
name = ogonek;
pos = (1217,10);
},
{
name = top;
pos = (1121,2008);
},
{
name = topleft;
pos = (399,2008);
},
{
name = topright;
pos = (1843,2008);
}
);
layerId = "6449507E-FEE0-4D4A-A81F-7CAB6A5803D5";
shapes = (
{
closed = 1;
nodes = (
(1032,-20,o),
(1384,382,o),
(1532,1066,cs),
(1670,1693,o),
(1457,2028,o),
(1083,2028,cs),
(651,2028,o),
(296,1592,o),
(205,848,cs),
(140,281,o),
(337,-20,o),
(662,-20,cs)
);
},
{
closed = 1;
nodes = (
(587,1347,o),
(773,1729,o),
(1067,1729,cs),
(1273,1729,o),
(1274,1379,o),
(1212,1095,cs),
(1110,635,o),
(909,279,o),
(665,279,cs),
(499,279,o),
(499,596,o),
(530,853,cs)
);
}
);
vertWidth = 0;
width = 1511;
}
);
unicode = 79;
userData = {
KernOnName = O;
};
},
{
color = 4;
glyphname = P;
kernRight = KO_P;
lastChange = "2024-02-29 17:26:20 +0000";
layers = (
{
.lastUpdate = 730920380.629;
anchors = (
{
name = bottom;
pos = (611,0);
},
{
name = top;
pos = (1112,2008);
}
);
layerId = m01;
shapes = (
{
closed = 1;
nodes = (
(167,0,o),
(184,42,o),
(191,69,cs),
(430,1023,l),
(1043,1027,o),
(1485,1089,o),
(1578,1461,cs),
(1669,1817,o),
(1257,1993,o),
(605,1993,cs),
(546,1993,o),
(538,1976,o),
(526,1929,cs),
(64,81,ls),
(53,38,o),
(67,0,o),
(112,0,cs)
);
},
{
closed = 1;
nodes = (
(641,1869,l),
(1244,1860,o),
(1519,1717,o),
(1457,1479,cs),
(1389,1208,o),
(963,1135,o),
(456,1131,c)
);
}
);
vertWidth = 0;
width = 1469;
},
{
.lastUpdate = 730920380.929;
anchors = (
{
name = bottom;
pos = (625,0);
},
{
name = top;
pos = (1126,2008);
}
);
layerId = "6449507E-FEE0-4D4A-A81F-7CAB6A5803D5";
shapes = (
{
closed = 1;
nodes = (
(319,0,o),
(362,88,o),
(374,138,cs),
(570,926,l),
(1154,938,o),
(1553,1035,o),
(1645,1397,cs),
(1736,1769,o),
(1440,2008,o),
(654,2008,cs),
(537,2008,o),
(507,1961,o),
(485,1873,cs),
(67,195,ls),
(42,95,o),
(98,0,o),
(205,0,cs)
);
},
{
closed = 1;
nodes = (
(761,1692,l),
(1058,1678,o),
(1380,1622,o),
(1341,1464,cs),
(1290,1264,o),
(970,1227,o),
(644,1223,c)
);
}
);
vertWidth = 0;
width = 1522;
}
);
metricLeft = H;
unicode = 80;
userData = {
KernOnName = P;
};
changeCount = 1;
},
{
color = 5;
glyphname = Thorn;
lastChange = "2024-02-29 17:26:20 +0000";
layers = (
{
.lastUpdate = 730920380.629;
layerId = m01;
shapes = (
{
closed = 1;
nodes = (
(892,586,o),
(1344,644,o),
(1438,1021,cs),
(1526,1365,o),
(1144,1541,o),
(529,1552,c),
(473,1429,l),
(1095,1424,o),
(1380,1281,o),
(1317,1039,cs),
(1248,764,o),
(811,693,o),
(294,691,c),
(268,583,l)
);
},
{
closed = 1;
nodes = (
(167,0,o),
(184,42,o),
(191,69,c),
(645,1885,ls),
(670,1986,o),
(653,1993,o),
(605,1993,cs),
(546,1993,o),
(538,1976,o),
(526,1929,cs),
(64,81,ls),
(53,38,o),
(67,0,o),
(112,0,cs)
);
}
);
width = 1329;
},
{
.lastUpdate = 730920380.929;
layerId = "6449507E-FEE0-4D4A-A81F-7CAB6A5803D5";
shapes = (
{
closed = 1;
nodes = (
(1014,506,o),
(1422,600,o),
(1515,967,cs),
(1601,1318,o),
(1342,1551,o),
(650,1576,c),
(610,1263,l),
(913,1251,o),
(1251,1196,o),
(1211,1034,cs),
(1159,830,o),
(827,796,o),
(494,793,c),
(418,496,l)
);
},
{
closed = 1;
nodes = (
(319,0,o),
(362,88,o),
(374,138,cs),
(788,1801,ls),
(821,1934,o),
(793,2008,o),
(654,2008,cs),
(537,2008,o),
(507,1961,o),
(485,1873,cs),
(67,195,ls),
(42,95,o),
(98,0,o),
(205,0,cs)
);
}
);
width = 1392;
}
);
metricLeft = P;
metricRight = P;
unicode = 222;
changeCount = 1;
},
{
color = 4;
glyphname = Q;
lastChange = "2024-02-29 17:26:20 +0000";
layers = (
{
.lastUpdate = 730920380.63;
anchors = (
{
name = bottom;
pos = (612,0);
},
{
name = top;
pos = (1113,2008);
}
);
layerId = m01;
shapes = (
{
closed = 1;
nodes = (
(745,-20,o),
(863,28,o),
(973,155,c),
(1111,-60,ls),
(1136,-99,o),
(1163,-109,o),
(1195,-91,cs),
(1233,-71,o),
(1239,-40,o),
(1212,2,cs),
(1060,240,l),
(1226,427,o),
(1358,719,o),
(1439,1093,cs),
(1558,1648,o),
(1413,2008,o),
(1053,2008,cs),
(595,2008,o),
(302,1565,o),
(213,820,cs),
(156,318,o),
(306,-20,o),
(617,-20,cs)
);
},
{
closed = 1;
nodes = (
(423,1484,o),
(677,1898,o),
(1035,1898,cs),
(1306,1898,o),
(1411,1569,o),
(1306,1079,cs),
(1236,760,o),
(1127,505,o),
(996,342,c),
(892,504,ls),
(862,551,o),
(832,561,o),
(797,537,cs),
(767,515,o),
(764,480,o),
(793,435,cs),
(911,251,l),
(822,137,o),
(722,93,o),
(619,93,cs),
(393,93,o),
(294,406,o),
(347,853,cs)
);
}
);
vertWidth = 0;
width = 1431;
},
{
.lastUpdate = 730920380.929;
anchors = (
{
name = bottom;
pos = (632,0);
},
{
name = top;
pos = (1133,2008);
}
);
layerId = "6449507E-FEE0-4D4A-A81F-7CAB6A5803D5";
shapes = (
{
closed = 1;
nodes = (
(743,-20,o),
(834,5,o),
(945,72,c),
(1002,-16,ls),
(1064,-111,o),
(1153,-133,o),
(1221,-96,cs),
(1293,-55,o),
(1322,53,o),
(1270,135,cs),
(1181,276,l),
(1328,457,o),
(1448,723,o),
(1522,1066,cs),
(1660,1693,o),
(1441,2028,o),
(1067,2028,cs),
(635,2028,o),
(297,1592,o),
(206,848,cs),
(141,281,o),
(324,-20,o),
(649,-20,cs)
);
},
{
closed = 1;
nodes = (
(583,1347,o),
(757,1729,o),
(1051,1729,cs),
(1257,1729,o),
(1270,1379,o),
(1208,1095,cs),
(1160,876,o),
(1092,686,o),
(1009,546,c),
(979,593,ls),
(924,679,o),
(838,707,o),
(750,648,cs),
(669,596,o),
(664,510,o),
(719,424,cs),
(785,322,l),
(725,287,o),
(689,279,o),
(652,279,cs),
(486,279,o),
(495,596,o),
(526,853,cs)
);
}
);
vertWidth = 0;
width = 1501;
}
);
metricLeft = O;
metricRight = O;
unicode = 81;
changeCount = 1;
},
{
color = 4;
glyphname = R;
kernRight = KO_R;
lastChange = "2024-02-29 17:26:20 +0000";
layers = (
{
.lastUpdate = 730920380.63;
anchors = (
{
name = bottom;
pos = (603,0);
},
{
name = top;
pos = (1104,2008);
}
);
layerId = m01;
shapes = (
{
closed = 1;
nodes = (
(1257,0,o),
(1282,67,o),
(1249,110,cs),
(546,1023,l),
(1073,1033,o),
(1495,1100,o),
(1591,1489,cs),
(1681,1845,o),
(1283,2018,o),
(609,2008,cs),
(551,2007,o),
(540,1990,o),
(529,1944,cs),
(65,85,ls),
(53,37,o),
(64,0,o),
(107,0,cs),
(165,0,o),
(183,34,o),
(193,75,cs),
(421,985,l),
(1135,54,ls),
(1166,14,o),
(1181,0,o),
(1198,0,cs)
);
},
{
closed = 1;
nodes = (
(647,1895,l),
(1208,1890,o),
(1527,1763,o),
(1467,1516,cs),
(1387,1200,o),
(953,1135,o),
(457,1131,c)
);
}
);
vertWidth = 0;
width = 1454;
},
{
.lastUpdate = 730920380.93;
anchors = (
{
name = bottom;
pos = (631,0);
},
{
name = top;
pos = (1132,2008);
}
);
layerId = "6449507E-FEE0-4D4A-A81F-7CAB6A5803D5";
shapes = (
{
closed = 1;
nodes = (
(1320,0,o),
(1388,153,o),
(1312,252,cs),
(793,926,l),
(1241,958,o),
(1574,1080,o),
(1658,1425,cs),
(1752,1791,o),
(1488,2008,o),
(660,2008,cs),
(545,2008,o),
(508,1966,o),
(485,1873,cs),
(68,200,ls),
(38,78,o),
(102,0,o),
(203,0,cs),
(317,0,o),
(357,69,o),
(376,146,cs),
(531,766,l),
(1050,86,ls),
(1106,12,o),
(1146,0,o),
(1188,0,cs)
);
},
{
closed = 1;
nodes = (
(765,1708,l),
(1219,1700,o),
(1393,1636,o),
(1357,1496,cs),
(1296,1256,o),
(979,1226,o),
(645,1223,c)
);
}
);
vertWidth = 0;
width = 1534;
}
);
metricLeft = H;
unicode = 82;
userData = {
KernOnName = R;
};
changeCount = 1;
},
{
color = 4;
glyphname = S;
lastChange = "2023-10-19 07:13:55 +0000";
layers = (
{
anchors = (
{
name = bottom;
pos = (620,10);
},
{
name = top;
pos = (1021,2008);
}
);
layerId = m01;
shapes = (
{
closed = 1;
nodes = (
(887,0,o),
(1104,203,o),
(1183,511,cs),
(1265,855,o),
(1152,1033,o),
(780,1129,cs),
(550,1189,o),
(453,1305,o),
(494,1466,cs),
(554,1699,o),
(795,1898,o),
(1016,1898,cs),
(1154,1898,o),
(1242,1795,o),
(1308,1594,cs),
(1319,1559,o),
(1349,1551,o),
(1384,1557,cs),
(1426,1565,o),
(1439,1597,o),
(1431,1624,cs),
(1359,1882,o),
(1236,2008,o),
(1031,2008,cs),
(742,2008,o),
(441,1780,o),
(372,1493,cs),
(314,1250,o),
(442,1087,o),
(759,1002,cs),
(1029,930,o),
(1115,791,o),
(1057,528,cs),
(998,281,o),
(831,113,o),
(615,113,cs),
(404,113,o),
(263,262,o),
(238,503,cs),
(234,538,o),
(216,550,o),
(171,547,cs),
(127,545,o),
(108,528,o),
(112,491,cs),
(145,184,o),
(332,0,o),
(605,0,cs)
);
}
);
vertWidth = 0;
width = 1310;
},
{
anchors = (
{
name = bottom;
pos = (631,9);
},
{
name = top;
pos = (1048,2008);
}
);
layerId = "6449507E-FEE0-4D4A-A81F-7CAB6A5803D5";
shapes = (
{
closed = 1;
nodes = (
(946,-20,o),
(1196,198,o),
(1269,528,cs),
(1352,905,o),
(1236,1109,o),
(832,1215,cs),
(690,1252,o),
(617,1313,o),
(639,1399,cs),
(682,1573,o),
(858,1729,o),
(1019,1729,cs),
(1113,1729,o),
(1157,1644,o),
(1196,1518,cs),
(1220,1441,o),
(1297,1404,o),
(1375,1419,cs),
(1482,1438,o),
(1513,1544,o),
(1495,1604,cs),
(1412,1895,o),
(1261,2028,o),
(1035,2028,cs),
(728,2028,o),
(410,1779,o),
(337,1475,cs),
(272,1202,o),
(395,1004,o),
(759,908,cs),
(941,858,o),
(1003,770,o),
(964,590,cs),
(923,416,o),
(808,279,o),
(652,279,cs),
(509,279,o),
(423,391,o),
(408,550,cs),
(400,633,o),
(348,685,o),
(241,677,cs),
(135,672,o),
(88,615,o),
(96,521,cs),
(132,178,o),
(348,-20,o),
(644,-20,cs)
);
}
);
vertWidth = 0;
width = 1363;
}
);
unicode = 83;
userData = {
KernOnName = S;
};
},
{
color = 5;
glyphname = Germandbls;
lastChange = "2024-02-29 17:26:20 +0000";
layers = (
{
.lastUpdate = 730920380.63;
background = {
shapes = (
{
pos = (24,0);
ref = H;
}
);
};
layerId = m01;
shapes = (
{
closed = 1;
nodes = (
(1193,-3,o),
(1540,180,o),
(1625,585,cs),
(1698,926,o),
(1435,1086,o),
(1223,1182,c),
(1819,1889,ls),
(1841,1915,o),
(1844,1949,o),
(1836,1965,cs),
(1824,1991,o),
(1809,2002,o),
(1779,2002,cs),
(622,2002,ls),
(569,2002,o),
(534,1983,o),
(525,1938,cs),
(62,50,ls),
(54,19,o),
(65,-10,o),
(116,-10,cs),
(167,-10,o),
(189,12,o),
(198,52,cs),
(645,1880,l),
(1669,1880,l),
(1116,1235,l),
(1065,1169,o),
(1071,1101,o),
(1170,1060,cs),
(1289,1011,o),
(1561,897,o),
(1488,561,cs),
(1423,261,o),
(1078,128,o),
(775,128,cs),
(572,128,ls),
(543,128,o),
(512,98,o),
(508,61,cs),
(505,15,o),
(538,1,o),
(565,1,cs),
(768,0,ls)
);
}
);
width = 1717;
},
{
.lastUpdate = 730920380.93;
background = {
shapes = (
{
pos = (-5,0);
ref = H;
}
);
};
layerId = "6449507E-FEE0-4D4A-A81F-7CAB6A5803D5";
shapes = (
{
closed = 1;
nodes = (
(1223,-7,o),
(1706,150,o),
(1797,590,cs),
(1866,921,o),
(1643,1143,o),
(1447,1225,c),
(1931,1772,ls),
(1978,1823,o),
(1982,1885,o),
(1962,1930,cs),
(1940,1976,o),
(1893,2008,o),
(1829,2008,cs),
(676,2008,ls),
(593,2008,o),
(510,1969,o),
(489,1880,cs),
(66,151,ls),
(44,65,o),
(102,0,o),
(202,0,cs),
(305,0,o),
(359,62,o),
(374,125,cs),
(765,1730,l),
(1542,1730,l),
(1124,1285,l),
(1064,1213,o),
(1044,1095,o),
(1176,1034,cs),
(1326,965,o),
(1542,853,o),
(1487,590,cs),
(1437,353,o),
(1205,274,o),
(938,278,cs),
(710,281,ls),
(629,282,o),
(557,213,o),
(552,135,cs),
(544,26,o),
(646,1,o),
(690,0,cs),
(918,-3,ls)
);
}
);
width = 1836;
}
);
metricLeft = H;
metricRight = S;
unicode = 7838;
changeCount = 1;
},
{
color = 4;
glyphname = T;
kernRight = KO_T;
lastChange = "2023-10-22 02:40:01 +0000";
layers = (
{
anchors = (
{
name = bottom;
pos = (610,0);
},
{
name = center;
pos = (860,1004);
},
{
name = top;
pos = (1111,2008);
}
);
layerId = m01;
shapes = (
{
closed = 1;
nodes = (
(668,0,o),
(687,31,o),
(694,58,cs),
(1153,1900,l),
(1646,1900,ls),
(1697,1900,o),
(1709,1920,o),
(1709,1953,cs),
(1709,1985,o),
(1696,2008,o),
(1646,2008,cs),
(550,2008,ls),
(497,2008,o),
(485,1985,o),
(485,1953,cs),
(485,1920,o),
(497,1900,o),
(550,1900,cs),
(1023,1900,l),
(569,77,ls),
(559,38,o),
(574,0,o),
(622,0,cs)
);
}
);
vertWidth = 0;
width = 1490;
},
{
anchors = (
{
name = bottom;
pos = (570,0);
},
{
name = center;
pos = (820,1004);
},
{
name = top;
pos = (1071,2008);
}
);
layerId = "6449507E-FEE0-4D4A-A81F-7CAB6A5803D5";
shapes = (
{
closed = 1;
nodes = (
(708,0,o),
(750,75,o),
(765,133,cs),
(1160,1711,l),
(1533,1711,ls),
(1665,1711,o),
(1691,1787,o),
(1691,1857,cs),
(1691,1933,o),
(1663,2008,o),
(1533,2008,cs),
(531,2008,ls),
(404,2008,o),
(375,1933,o),
(375,1857,cs),
(375,1787,o),
(398,1711,o),
(531,1711,cs),
(837,1711,l),
(458,195,ls),
(432,99,o),
(495,0,o),
(604,0,cs)
);
}
);
vertWidth = 0;
width = 1410;
}
);
unicode = 84;
userData = {
KernOnName = T;
};
},
{
color = 5;
glyphname = U;
lastChange = "2024-02-29 17:26:20 +0000";
layers = (
{
.lastUpdate = 730920380.631;
anchors = (
{
name = bottom;
pos = (501,0);
},
{
name = ogonek;
pos = (1038,10);
},
{
name = top;
pos = (1002,2008);
},
{
name = topright;
pos = (1716,2008);
}
);
layerId = m01;
shapes = (
{
closed = 1;
nodes = (
(631,-19,o),
(883,228,o),
(1112,660,c),
(965,69,ls),
(954,24,o),
(980,3,o),
(1019,0,cs),
(1052,-3,o),
(1082,13,o),
(1092,54,cs),
(1562,1941,ls),
(1572,1982,o),
(1560,2008,o),
(1509,2008,cs),
(1462,2008,o),
(1442,1983,o),
(1434,1950,cs),
(1277,1321,l),
(1142,789,o),
(714,89,o),
(416,89,cs),
(205,89,o),
(141,354,o),
(230,711,cs),
(536,1936,ls),
(545,1972,o),
(527,2008,o),
(489,2008,cs),
(445,2008,o),
(416,1979,o),
(405,1933,cs),
(103,722,ls),
(-8,278,o),
(98,-19,o),
(382,-19,cs)
);
}
);
vertWidth = 0;
width = 1392;
},
{
.lastUpdate = 730920380.93;
anchors = (
{
name = bottom;
pos = (546,0);
},
{
name = ogonek;
pos = (1002,30);
},
{
name = top;
pos = (1047,2008);
},
{
name = topright;
pos = (1814,2008);
}
);
layerId = "6449507E-FEE0-4D4A-A81F-7CAB6A5803D5";
shapes = (
{
closed = 1;
nodes = (
(655,-20,o),
(818,127,o),
(941,341,c),
(902,187,ls),
(872,69,o),
(951,0,o),
(1040,0,cs),
(1110,0,o),
(1186,34,o),
(1209,125,cs),
(1633,1823,ls),
(1657,1918,o),
(1625,2008,o),
(1498,2008,cs),
(1388,2008,o),
(1341,1950,o),
(1323,1878,cs),
(1179,1307,l),
(1013,723,o),
(734,277,o),
(491,277,cs),
(343,277,o),
(375,556,o),
(413,710,cs),
(689,1818,ls),
(711,1907,o),
(658,2008,o),
(562,2008,cs),
(476,2008,o),
(402,1956,o),
(380,1868,cs),
(106,770,ls),
(-28,234,o),
(150,-20,o),
(460,-20,cs)
);
}
);
vertWidth = 0;
width = 1468;
}
);
metricLeft = H;
metricRight = H;
unicode = 85;
userData = {
KernOnName = U;
};
changeCount = 1;
},
{
color = 4;
glyphname = V;
kernRight = KO_V;
lastChange = "2023-10-22 02:40:42 +0000";
layers = (
{
anchors = (
{
name = bottom;
pos = (468,0);
},
{
name = top;
pos = (969,2008);
}
);
layerId = m01;
shapes = (
{
closed = 1;
nodes = (
(609,0,o),
(622,26,o),
(644,70,cs),
(1559,1931,ls),
(1585,1984,o),
(1561,2008,o),
(1520,2008,cs),
(1468,2008,o),
(1445,1990,o),
(1422,1942,cs),
(609,288,l),
(518,1949,ls),
(516,1978,o),
(502,2008,o),
(445,2008,cs),
(397,2008,o),
(386,1986,o),
(388,1943,cs),
(490,64,ls),
(492,35,o),
(511,0,o),
(558,0,cs)
);
}
);
vertWidth = 0;
width = 1206;
},
{
anchors = (
{
name = bottom;
pos = (504,0);
},
{
name = top;
pos = (1005,2008);
}
);
layerId = "6449507E-FEE0-4D4A-A81F-7CAB6A5803D5";
shapes = (
{
closed = 1;
nodes = (
(682,0,o),
(719,47,o),
(752,117,cs),
(1585,1795,ls),
(1655,1940,o),
(1556,2008,o),
(1457,2008,cs),
(1366,2008,o),
(1327,1974,o),
(1286,1888,cs),
(707,711,l),
(648,1860,ls),
(646,1925,o),
(617,2008,o),
(487,2008,cs),
(373,2008,o),
(331,1943,o),
(336,1844,cs),
(430,148,ls),
(433,86,o),
(474,0,o),
(586,0,cs)
);
}
);
vertWidth = 0;
width = 1278;
}
);
unicode = 86;
userData = {
KernOnName = V;
};
},
{
color = 4;
glyphname = W;
lastChange = "2023-10-22 02:39:52 +0000";
layers = (
{
anchors = (
{
name = bottom;
pos = (866,0);
},
{
name = top;
pos = (1367,2008);
}
);
layerId = m01;
shapes = (
{
closed = 1;
nodes = (
(592,0,o),
(613,19,o),
(641,69,cs),
(1100,887,l),
(1278,71,ls),
(1290,17,o),
(1303,0,o),
(1344,0,cs),
(1383,0,o),
(1404,21,o),
(1428,69,cs),
(2342,1930,ls),
(2364,1976,o),
(2343,2008,o),
(2294,2008,cs),
(2258,2008,o),
(2228,1985,o),
(2206,1941,cs),
(1368,242,l),
(1193,1042,ls),
(1185,1080,o),
(1174,1102,o),
(1139,1102,cs),
(1098,1102,o),
(1071,1071,o),
(1051,1036,cs),
(613,255,l),
(516,1948,ls),
(514,1986,o),
(493,2008,o),
(452,2008,cs),
(412,2008,o),
(383,1986,o),
(386,1942,cs),
(493,71,ls),
(496,19,o),
(513,0,o),
(552,0,cs)
);
}
);
vertWidth = 0;
width = 2002;
},
{
anchors = (
{
name = bottom;
pos = (867,0);
},
{
name = top;
pos = (1368,2008);
}
);
layerId = "6449507E-FEE0-4D4A-A81F-7CAB6A5803D5";
shapes = (
{
closed = 1;
nodes = (
(590,0,o),
(637,31,o),
(694,120,cs),
(1093,743,l),
(1212,164,ls),
(1236,45,o),
(1271,0,o),
(1370,0,cs),
(1438,0,o),
(1498,32,o),
(1539,120,cs),
(2312,1797,ls),
(2364,1909,o),
(2296,2008,o),
(2179,2008,cs),
(2109,2008,o),
(2046,1968,o),
(2010,1888,cs),
(1418,575,l),
(1310,1070,ls),
(1291,1158,o),
(1261,1223,o),
(1157,1223,cs),
(1081,1223,o),
(1030,1175,o),
(985,1103,cs),
(657,575,l),
(645,1855,ls),
(644,1946,o),
(580,2008,o),
(486,2008,cs),
(398,2008,o),
(331,1951,o),
(333,1852,cs),
(369,161,ls),
(371,44,o),
(424,0,o),
(522,0,cs)
);
}
);
vertWidth = 0;
width = 2003;
}
);
unicode = 87;
userData = {
KernOnName = W;
};
},
{
color = 4;
glyphname = X;
lastChange = "2024-02-29 17:26:20 +0000";
layers = (
{
.lastUpdate = 730920380.631;
anchors = (
{
name = bottom;
pos = (497,0);
},
{
name = top;
pos = (998,2008);
}
);
layerId = m01;
shapes = (
{
closed = 1;
nodes = (
(-37,-7,o),
(5,-7,o),
(40,34,cs),
(753,883,l),
(1037,55,ls),
(1056,1,o),
(1101,-10,o),
(1136,8,cs),
(1161,21,o),
(1172,48,o),
(1158,89,cs),
(855,972,l),
(1644,1905,ls),
(1679,1946,o),
(1669,1975,o),
(1646,1994,cs),
(1620,2015,o),
(1580,2015,o),
(1544,1973,cs),
(810,1103,l),
(517,1958,ls),
(500,2007,o),
(452,2016,o),
(418,2003,cs),
(388,1992,o),
(381,1966,o),
(399,1913,cs),
(708,1015,l),
(-68,95,ls),
(-94,65,o),
(-88,35,o),
(-66,18,cs)
);
}
);
vertWidth = 0;
width = 1385;
},
{
.lastUpdate = 730920380.931;
anchors = (
{
name = bottom;
pos = (605,0);
},
{
name = top;
pos = (1106,2008);
}
);
layerId = "6449507E-FEE0-4D4A-A81F-7CAB6A5803D5";
shapes = (
{
closed = 1;
nodes = (
(146,-16,o),
(244,-26,o),
(317,65,cs),
(852,698,l),
(1051,117,ls),
(1092,3,o),
(1202,-16,o),
(1277,16,cs),
(1334,44,o),
(1381,114,o),
(1347,211,cs),
(1097,941,l),
(1787,1753,ls),
(1873,1855,o),
(1826,1935,o),
(1774,1974,cs),
(1722,2018,o),
(1613,2031,o),
(1540,1940,c),
(981,1280,l),
(770,1896,l),
(726,2008,o),
(614,2024,o),
(546,2000,cs),
(484,1974,o),
(432,1922,o),
(476,1795,cs),
(736,1037,l),
(65,247,ls),
(-3,166,o),
(29,81,o),
(86,34,cs)
);
}
);
vertWidth = 0;
width = 1600;
}
);
metricRight = K;
unicode = 88;
userData = {
KernOnName = X;
};
changeCount = 1;
},
{
color = 4;
glyphname = Y;
kernRight = KO_Y;
lastChange = "2023-10-22 02:40:57 +0000";
layers = (
{
anchors = (
{
name = bottom;
pos = (487,0);
},
{
name = top;
pos = (988,2008);
},
{
name = topleft;
pos = (386,2008);
}
);
layerId = m01;
shapes = (
{
closed = 1;
nodes = (
(294,-6,o),
(333,-9,o),
(359,31,cs),
(1583,1905,ls),
(1609,1945,o),
(1601,1979,o),
(1576,1996,cs),
(1547,2018,o),
(1500,2010,o),
(1473,1969,cs),
(917,1117,l),
(519,1957,ls),
(495,2008,o),
(454,2016,o),
(421,2003,cs),
(389,1991,o),
(377,1965,o),
(401,1914,cs),
(836,994,l),
(252,98,ls),
(231,66,o),
(235,37,o),
(261,19,cs)
);
}
);
vertWidth = 0;
width = 1243;
},
{
anchors = (
{
name = bottom;
pos = (616,0);
},
{
name = top;
pos = (1117,2008);
},
{
name = topleft;
pos = (386,2008);
}
);
layerId = "6449507E-FEE0-4D4A-A81F-7CAB6A5803D5";
shapes = (
{
closed = 1;
nodes = (
(528,-18,o),
(633,-23,o),
(692,68,cs),
(1794,1761,ls),
(1856,1856,o),
(1820,1935,o),
(1768,1977,cs),
(1703,2024,o),
(1589,2019,o),
(1529,1927,cs),
(1087,1250,l),
(770,1904,ls),
(717,2014,o),
(619,2027,o),
(548,2000,cs),
(489,1978,o),
(421,1915,o),
(481,1787,cs),
(883,937,l),
(426,237,ls),
(375,158,o),
(400,81,o),
(460,34,cs)
);
}
);
vertWidth = 0;
width = 1502;
}
);
unicode = 89;
userData = {
KernOnName = Y;
};
},
{
color = 4;
glyphname = Z;
kernRight = KO_Z;
lastChange = "2023-10-22 02:40:19 +0000";
layers = (
{
anchors = (
{
name = bottom;
pos = (616,0);
},
{
name = center;
pos = (866,1004);
},
{
name = top;
pos = (1117,2008);
}
);
layerId = m01;
shapes = (
{
closed = 1;
nodes = (
(1213,0,ls),
(1266,0,o),
(1278,23,o),
(1278,55,cs),
(1278,90,o),
(1266,113,o),
(1213,113,cs),
(172,113,l),
(1652,1906,ls),
(1686,1947,o),
(1679,1979,o),
(1662,1993,cs),
(1649,2005,o),
(1639,2008,o),
(1612,2008,cs),
(538,2008,ls),
(484,2008,o),
(472,1985,o),
(472,1953,cs),
(472,1920,o),
(484,1898,o),
(538,1898,cs),
(1487,1898,l),
(-3,92,ls),
(-24,67,o),
(-26,39,o),
(-11,20,cs),
(-4,10,o),
(22,0,o),
(52,0,cs)
);
}
);
vertWidth = 0;
width = 1502;
},
{
anchors = (
{
name = bottom;
pos = (664,0);
},
{
name = center;
pos = (914,1004);
},
{
name = top;
pos = (1165,2008);
}
);
layerId = "6449507E-FEE0-4D4A-A81F-7CAB6A5803D5";
shapes = (
{
closed = 1;
nodes = (
(1234,0,ls),
(1364,0,o),
(1393,78,o),
(1393,151,cs),
(1393,224,o),
(1364,299,o),
(1234,299,cs),
(487,299,l),
(1690,1753,ls),
(1775,1857,o),
(1726,1935,o),
(1687,1972,cs),
(1656,2000,o),
(1627,2008,o),
(1578,2008,cs),
(592,2008,ls),
(462,2008,o),
(436,1933,o),
(436,1857,cs),
(436,1787,o),
(462,1709,o),
(592,1709,cs),
(1253,1709,l),
(43,247,ls),
(-6,187,o),
(-3,103,o),
(33,55,cs),
(49,33,o),
(103,0,o),
(168,0,cs)
);
}
);
vertWidth = 0;
width = 1597;
}
);
unicode = 90;
userData = {
KernOnName = Z;
};
},
{
color = 5;
glyphname = A.ss02;
lastChange = "2024-02-29 17:26:20 +0000";
layers = (
{
.lastUpdate = 730920380.632;
layerId = m01;
shapes = (
{
closed = 1;
nodes = (
(79,0,o),
(97,20,o),
(131,75,cs),
(700,999,l),
(1116,999,l),
(1124,75,ls),
(1124,42,o),
(1132,0,o),
(1206,0,cs),
(1270,0,o),
(1295,35,o),
(1294,85,cs),
(1271,1936,ls),
(1271,1973,o),
(1237,2008,o),
(1188,2008,cs),
(1121,2008,o),
(1105,1972,o),
(1081,1933,cs),
(-41,116,ls),
(-81,51,o),
(-43,0,o),
(11,0,cs)
);
},
{
closed = 1;
nodes = (
(-31,20,o),
(-57,54,o),
(-25,106,cs),
(1097,1923,ls),
(1122,1963,o),
(1134,1988,o),
(1188,1988,cs),
(1228,1988,o),
(1251,1963,o),
(1251,1936,cs),
(1274,85,ls),
(1275,42,o),
(1259,20,o),
(1206,20,cs),
(1149,20,o),
(1144,45,o),
(1144,75,cs),
(1136,1019,l),
(688,1019,l),
(115,85,ls),
(82,31,o),
(70,20,o),
(11,20,cs)
);
},
{
closed = 1;
nodes = (
(1106,1651,l),
(1114,1160,l),
(799,1160,l)
);
},
{
closed = 1;
nodes = (
(1134,1140,l),
(1127,1676,ls),
(1126,1718,o),
(1124,1717,o),
(1098,1676,cs),
(763,1140,l)
);
}
);
vertWidth = 0;
width = 1454;
},
{
layerId = "6449507E-FEE0-4D4A-A81F-7CAB6A5803D5";
shapes = (
{
closed = 1;
nodes = (
(228,-20,o),
(262,3,o),
(318,94,cs),
(720,746,l),
(1050,746,l),
(1056,143,ls),
(1057,79,o),
(1069,-20,o),
(1232,-20,cs),
(1360,-20,o),
(1407,51,o),
(1406,151,cs),
(1385,1870,ls),
(1384,1942,o),
(1326,2028,o),
(1214,2028,cs),
(1107,2028,o),
(1074,1981,o),
(1033,1915,cs),
(-2,234,ls),
(-104,68,o),
(15,-20,o),
(130,-20,cs)
);
},
{
closed = 1;
nodes = (
(39,20,o),
(-53,76,o),
(32,214,cs),
(1067,1893,ls),
(1108,1959,o),
(1129,1988,o),
(1214,1988,cs),
(1303,1988,o),
(1344,1927,o),
(1345,1870,cs),
(1366,151,ls),
(1367,66,o),
(1336,20,o),
(1232,20,cs),
(1104,20,o),
(1097,82,o),
(1096,143,cs),
(1089,786,l),
(698,786,l),
(284,114,ls),
(234,32,o),
(215,20,o),
(130,20,cs)
);
},
{
closed = 1;
nodes = (
(1045,1272,l),
(1047,1082,l),
(927,1082,l)
);
},
{
closed = 1;
nodes = (
(1087,1042,l),
(1084,1314,ls),
(1083,1410,o),
(1081,1409,o),
(1023,1315,cs),
(855,1042,l)
);
}
);
vertWidth = 0;
width = 1531;
}
);
metricLeft = A;
metricWidth = A;
changeCount = 1;
},
{
color = 5;
glyphname = B.ss02;
lastChange = "2024-02-29 17:26:20 +0000";
layers = (
{
.lastUpdate = 730920380.632;
layerId = m01;
shapes = (
{
closed = 1;
nodes = (
(806,2,o),
(1175,141,o),
(1251,443,cs),
(1324,737,o),
(1170,955,o),
(844,1061,c),
(1130,1097,o),
(1301,1208,o),
(1350,1413,cs),
(1439,1792,o),
(1163,2011,o),
(621,2008,cs),
(565,2008,o),
(530,1988,o),
(515,1926,cs),
(63,113,ls),
(49,56,o),
(81,0,o),
(140,0,cs)
);
},
{
closed = 1;
nodes = (
(94,20,o),
(71,61,o),
(83,109,cs),
(534,1920,ls),
(547,1974,o),
(572,1988,o),
(621,1988,cs),
(1153,1991,o),
(1417,1783,o),
(1330,1417,cs),
(1282,1214,o),
(1110,1108,o),
(812,1078,cs),
(753,1072,o),
(757,1068,o),
(812,1051,cs),
(1148,950,o),
(1303,740,o),
(1231,447,cs),
(1159,157,o),
(801,22,o),
(140,20,cs)
);
},
{
closed = 1;
nodes = (
(464,1001,l),
(923,960,o),
(1152,764,o),
(1083,481,cs),
(1029,261,o),
(755,159,o),
(253,155,c)
);
},
{
closed = 1;
nodes = (
(750,135,o),
(1045,242,o),
(1103,477,cs),
(1176,775,o),
(928,984,o),
(448,1023,c),
(227,135,l)
);
},
{
closed = 1;
nodes = (
(675,1850,l),
(1058,1843,o),
(1244,1695,o),
(1179,1433,cs),
(1133,1237,o),
(910,1154,o),
(507,1175,c)
);
},
{
closed = 1;
nodes = (
(905,1130,o),
(1149,1217,o),
(1199,1429,cs),
(1268,1706,o),
(1063,1867,o),
(659,1870,c),
(481,1157,l)
);
}
);
vertWidth = 0;
width = 1350;
},
{
.lastUpdate = 730920380.932;
layerId = "6449507E-FEE0-4D4A-A81F-7CAB6A5803D5";
shapes = (
{
closed = 1;
nodes = (
(910,-20,o),
(1266,163,o),
(1343,468,cs),
(1407,723,o),
(1326,905,o),
(1095,1020,c),
(1285,1079,o),
(1394,1190,o),
(1434,1355,cs),
(1528,1751,o),
(1285,2028,o),
(682,2028,cs),
(579,2028,o),
(516,1999,o),
(486,1880,cs),
(68,203,ls),
(37,80,o),
(113,-20,o),
(225,-20,cs)
);
},
{
closed = 1;
nodes = (
(136,20,o),
(81,92,o),
(106,193,cs),
(524,1870,ls),
(549,1969,o),
(591,1988,o),
(682,1988,cs),
(1263,1988,o),
(1484,1738,o),
(1396,1365,cs),
(1357,1205,o),
(1252,1105,o),
(1058,1051,cs),
(986,1031,o),
(986,1027,o),
(1058,994,cs),
(1289,887,o),
(1366,724,o),
(1305,478,cs),
(1232,193,o),
(898,20,o),
(225,20,cs)
);
},
{
closed = 1;
nodes = (
(602,893,l),
(871,851,o),
(1052,745,o),
(1006,549,cs),
(967,395,o),
(761,332,o),
(455,317,c)
);
},
{
closed = 1;
nodes = (
(744,285,o),
(998,352,o),
(1044,539,cs),
(1101,776,o),
(869,899,o),
(572,937,c),
(403,275,l)
);
},
{
closed = 1;
nodes = (
(801,1686,l),
(1005,1665,o),
(1133,1585,o),
(1092,1420,cs),
(1059,1291,o),
(910,1227,o),
(683,1216,c)
);
},
{
closed = 1;
nodes = (
(897,1177,o),
(1090,1249,o),
(1130,1410,cs),
(1182,1616,o),
(1004,1713,o),
(771,1728,c),
(631,1174,l)
);
}
);
vertWidth = 0;
width = 1419;
}
);
metricLeft = B;
metricWidth = B;
changeCount = 1;
},
{
color = 5;
glyphname = C.ss02;
lastChange = "2024-02-29 17:26:20 +0000";
layers = (
{
.lastUpdate = 730920380.633;
layerId = m01;
shapes = (
{
closed = 1;
nodes = (
(828,-20,o),
(1049,149,o),
(1240,437,cs),
(1306,542,o),
(1318,580,o),
(1318,600,cs),
(1320,643,o),
(1286,665,o),
(1249,668,cs),
(1190,674,o),
(1167,624,o),
(1115,546,cs),
(944,288,o),
(776,143,o),
(645,143,cs),
(438,143,o),
(345,412,o),
(397,850,cs),
(472,1474,o),
(718,1868,o),
(1061,1868,cs),
(1171,1868,o),
(1249,1787,o),
(1296,1661,cs),
(1316,1613,o),
(1363,1589,o),
(1412,1607,cs),
(1459,1621,o),
(1477,1658,o),
(1466,1702,cs),
(1413,1903,o),
(1282,2028,o),
(1079,2028,cs),
(631,2028,o),
(303,1560,o),
(213,823,cs),
(156,312,o),
(314,-20,o),
(642,-20,cs)
);
},
{
closed = 1;
nodes = (
(328,0,o),
(176,317,o),
(233,821,cs),
(322,1551,o),
(642,2008,o),
(1079,2008,cs),
(1273,2008,o),
(1395,1892,o),
(1446,1696,cs),
(1455,1661,o),
(1444,1637,o),
(1406,1625,cs),
(1366,1611,o),
(1331,1628,o),
(1314,1669,cs),
(1266,1798,o),
(1180,1888,o),
(1061,1888,cs),
(705,1888,o),
(452,1482,o),
(377,852,cs),
(325,408,o),
(423,123,o),
(645,123,cs),
(785,123,o),
(956,276,o),
(1131,536,cs),
(1182,616,o),
(1202,652,o),
(1247,648,cs),
(1279,645,o),
(1300,632,o),
(1298,600,cs),
(1298,583,o),
(1290,548,o),
(1224,447,cs),
(1037,161,o),
(821,0,o),
(642,0,cs)
);
}
);
vertWidth = 0;
width = 1288;
},
{
.lastUpdate = 730920380.932;
layerId = "6449507E-FEE0-4D4A-A81F-7CAB6A5803D5";
shapes = (
{
closed = 1;
nodes = (
(878,-20,o),
(1116,139,o),
(1314,446,cs),
(1397,573,o),
(1403,620,o),
(1403,644,cs),
(1403,716,o),
(1346,796,o),
(1248,802,cs),
(1173,808,o),
(1123,775,o),
(1038,645,cs),
(909,448,o),
(786,319,o),
(688,319,cs),
(541,319,o),
(529,595,o),
(560,851,cs),
(615,1341,o),
(790,1689,o),
(1071,1689,cs),
(1130,1689,o),
(1168,1632,o),
(1195,1562,cs),
(1233,1463,o),
(1326,1425,o),
(1422,1454,cs),
(1515,1483,o),
(1558,1556,o),
(1534,1655,cs),
(1478,1887,o),
(1322,2028,o),
(1086,2028,cs),
(642,2028,o),
(289,1603,o),
(197,850,cs),
(131,272,o),
(347,-20,o),
(686,-20,cs)
);
},
{
closed = 1;
nodes = (
(370,20,o),
(173,286,o),
(237,846,cs),
(327,1584,o),
(664,1988,o),
(1086,1988,cs),
(1304,1988,o),
(1443,1863,o),
(1496,1645,cs),
(1515,1564,o),
(1485,1515,o),
(1410,1492,cs),
(1331,1467,o),
(1264,1495,o),
(1233,1576,cs),
(1203,1652,o),
(1153,1729,o),
(1071,1729,cs),
(762,1729,o),
(576,1355,o),
(520,855,cs),
(489,594,o),
(500,279,o),
(688,279,cs),
(806,279,o),
(941,423,o),
(1072,623,cs),
(1150,744,o),
(1185,767,o),
(1246,762,cs),
(1322,758,o),
(1363,701,o),
(1363,644,cs),
(1363,624,o),
(1358,586,o),
(1280,468,cs),
(1087,169,o),
(864,20,o),
(686,20,cs)
);
}
);
vertWidth = 0;
width = 1375;
}
);
metricLeft = C;
metricWidth = C;
changeCount = 1;
},
{
color = 5;
glyphname = D.ss02;
lastChange = "2024-02-29 17:26:20 +0000";
layers = (
{
.lastUpdate = 730920380.633;
layerId = m01;
shapes = (
{
closed = 1;
nodes = (
(344,0,ls),
(981,0,o),
(1393,400,o),
(1560,1197,cs),
(1663,1687,o),
(1431,2008,o),
(951,2008,cs),
(623,2008,ls),
(550,2008,o),
(531,1977,o),
(519,1927,cs),
(63,98,ls),
(51,50,o),
(76,0,o),
(138,0,cs)
);
},
{
closed = 1;
nodes = (
(90,20,o),
(73,54,o),
(83,94,cs),
(539,1923,ls),
(550,1968,o),
(562,1988,o),
(623,1988,cs),
(951,1988,ls),
(1419,1988,o),
(1641,1681,o),
(1540,1201,cs),
(1375,411,o),
(972,20,o),
(344,20,cs),
(138,20,ls)
);
},
{
closed = 1;
nodes = (
(678,1848,l),
(930,1848,ls),
(1292,1848,o),
(1469,1605,o),
(1379,1188,cs),
(1237,510,o),
(894,160,o),
(354,160,cs),
(257,160,l)
);
},
{
closed = 1;
nodes = (
(354,140,ls),
(903,140,o),
(1255,499,o),
(1399,1184,cs),
(1491,1611,o),
(1304,1868,o),
(930,1868,cs),
(662,1868,l),
(231,140,l)
);
}
);
vertWidth = 0;
width = 1468;
},
{
.lastUpdate = 730920380.932;
layerId = "6449507E-FEE0-4D4A-A81F-7CAB6A5803D5";
shapes = (
{
closed = 1;
nodes = (
(414,-20,ls),
(1043,-20,o),
(1462,369,o),
(1628,1161,cs),
(1739,1686,o),
(1488,2028,o),
(983,2028,cs),
(684,2028,ls),
(549,2028,o),
(516,1970,o),
(494,1883,cs),
(67,190,ls),
(41,87,o),
(95,-20,o),
(229,-20,cs)
);
},
{
closed = 1;
nodes = (
(122,20,o),
(84,95,o),
(105,180,cs),
(532,1873,ls),
(553,1952,o),
(573,1988,o),
(684,1988,cs),
(983,1988,ls),
(1465,1988,o),
(1696,1673,o),
(1588,1169,cs),
(1426,392,o),
(1025,20,o),
(414,20,cs),
(229,20,ls)
);
},
{
closed = 1;
nodes = (
(807,1689,l),
(965,1689,ls),
(1234,1689,o),
(1340,1493,o),
(1276,1193,cs),
(1154,635,o),
(886,320,o),
(442,320,cs),
(465,320,l)
);
},
{
closed = 1;
nodes = (
(442,280,ls),
(906,280,o),
(1190,615,o),
(1316,1185,cs),
(1383,1503,o),
(1260,1729,o),
(965,1729,cs),
(775,1729,l),
(413,280,l)
);
}
);
vertWidth = 0;
width = 1536;
}
);
metricLeft = D;
metricWidth = D;
changeCount = 1;
},
{
color = 5;
glyphname = E.ss02;
lastChange = "2024-02-29 17:26:20 +0000";
layers = (
{
.lastUpdate = 730920380.634;
layerId = m01;
shapes = (
{
closed = 1;
nodes = (
(1056,0,ls),
(1110,0,o),
(1147,36,o),
(1147,88,cs),
(1147,130,o),
(1110,158,o),
(1056,158,cs),
(257,158,l),
(466,998,l),
(1008,998,ls),
(1063,998,o),
(1099,1031,o),
(1099,1078,cs),
(1099,1128,o),
(1063,1156,o),
(1008,1156,cs),
(505,1156,l),
(678,1850,l),
(1451,1850,ls),
(1505,1850,o),
(1541,1880,o),
(1541,1930,cs),
(1541,1981,o),
(1505,2008,o),
(1451,2008,cs),
(626,2008,ls),
(555,2008,o),
(531,1978,o),
(518,1925,cs),
(63,100,ls),
(51,51,o),
(75,0,o),
(138,0,cs)
);
},
{
closed = 1;
nodes = (
(89,20,o),
(73,55,o),
(83,96,cs),
(538,1921,ls),
(549,1967,o),
(566,1988,o),
(626,1988,cs),
(1451,1988,ls),
(1497,1988,o),
(1521,1970,o),
(1521,1930,cs),
(1521,1891,o),
(1496,1870,o),
(1451,1870,cs),
(662,1870,l),
(479,1136,l),
(1008,1136,ls),
(1055,1136,o),
(1079,1117,o),
(1079,1078,cs),
(1079,1041,o),
(1054,1018,o),
(1008,1018,cs),
(450,1018,l),
(231,138,l),
(1056,138,ls),
(1102,138,o),
(1127,119,o),
(1127,88,cs),
(1127,45,o),
(1101,20,o),
(1056,20,cs),
(138,20,ls)
);
}
);
vertWidth = 0;
width = 1229;
},
{
layerId = "6449507E-FEE0-4D4A-A81F-7CAB6A5803D5";
shapes = (
{
closed = 1;
nodes = (
(1071,-20,ls),
(1180,-20,o),
(1249,55,o),
(1249,153,cs),
(1249,238,o),
(1198,317,o),
(1071,317,cs),
(464,317,l),
(609,906,l),
(1029,906,ls),
(1145,906,o),
(1208,981,o),
(1208,1075,cs),
(1208,1170,o),
(1148,1243,o),
(1029,1243,cs),
(692,1243,l),
(801,1691,l),
(1433,1691,ls),
(1551,1691,o),
(1611,1766,o),
(1611,1860,cs),
(1611,1956,o),
(1554,2028,o),
(1433,2028,cs),
(681,2028,ls),
(555,2028,o),
(511,1970,o),
(488,1878,cs),
(68,192,ls),
(40,80,o),
(102,-20,o),
(230,-20,cs)
);
},
{
closed = 1;
nodes = (
(127,20,o),
(83,89,o),
(106,182,cs),
(526,1868,ls),
(546,1950,o),
(577,1988,o),
(681,1988,cs),
(1433,1988,ls),
(1532,1988,o),
(1571,1939,o),
(1571,1860,cs),
(1571,1783,o),
(1529,1731,o),
(1433,1731,cs),
(769,1731,l),
(640,1203,l),
(1029,1203,ls),
(1127,1203,o),
(1168,1153,o),
(1168,1075,cs),
(1168,998,o),
(1124,946,o),
(1029,946,cs),
(577,946,l),
(412,277,l),
(1071,277,ls),
(1174,277,o),
(1209,223,o),
(1209,153,cs),
(1209,73,o),
(1160,20,o),
(1071,20,cs),
(230,20,ls)
);
}
);
vertWidth = 0;
width = 1341;
}
);
metricLeft = E;
metricWidth = E;
changeCount = 1;
},
{
color = 5;
glyphname = F.ss02;
lastChange = "2024-02-29 17:26:20 +0000";
layers = (
{
.lastUpdate = 730920380.634;
layerId = m01;
shapes = (
{
closed = 1;
nodes = (
(212,0,o),
(232,55,o),
(240,88,cs),
(467,997,l),
(1010,997,ls),
(1064,997,o),
(1101,1030,o),
(1101,1080,cs),
(1101,1127,o),
(1064,1157,o),
(1010,1157,cs),
(506,1157,l),
(679,1850,l),
(1452,1850,ls),
(1506,1850,o),
(1542,1880,o),
(1542,1930,cs),
(1542,1981,o),
(1506,2008,o),
(1452,2008,cs),
(627,2008,ls),
(556,2008,o),
(531,1978,o),
(518,1925,cs),
(63,100,ls),
(51,51,o),
(75,0,o),
(138,0,cs)
);
},
{
closed = 1;
nodes = (
(89,20,o),
(73,55,o),
(83,96,cs),
(538,1921,ls),
(549,1967,o),
(567,1988,o),
(627,1988,cs),
(1452,1988,ls),
(1498,1988,o),
(1522,1970,o),
(1522,1930,cs),
(1522,1891,o),
(1497,1870,o),
(1452,1870,cs),
(663,1870,l),
(480,1137,l),
(1010,1137,ls),
(1055,1137,o),
(1081,1116,o),
(1081,1080,cs),
(1081,1040,o),
(1055,1017,o),
(1010,1017,cs),
(451,1017,l),
(220,94,ls),
(212,61,o),
(198,20,o),
(138,20,cs)
);
}
);
vertWidth = 0;
width = 1230;
},
{
.lastUpdate = 730920380.933;
layerId = "6449507E-FEE0-4D4A-A81F-7CAB6A5803D5";
shapes = (
{
closed = 1;
nodes = (
(357,-20,o),
(396,70,o),
(411,128,cs),
(604,906,l),
(1030,906,ls),
(1146,906,o),
(1208,981,o),
(1208,1074,cs),
(1208,1170,o),
(1151,1242,o),
(1030,1242,cs),
(688,1242,l),
(799,1691,l),
(1435,1691,ls),
(1549,1691,o),
(1612,1766,o),
(1612,1860,cs),
(1612,1956,o),
(1552,2028,o),
(1435,2028,cs),
(679,2028,ls),
(556,2028,o),
(507,1970,o),
(485,1878,cs),
(69,192,l),
(37,79,o),
(99,-20,o),
(229,-20,cs)
);
},
{
closed = 1;
nodes = (
(123,20,o),
(82,89,o),
(107,182,cs),
(523,1868,ls),
(543,1950,o),
(576,1988,o),
(679,1988,cs),
(1435,1988,ls),
(1531,1988,o),
(1572,1939,o),
(1572,1860,cs),
(1572,1783,o),
(1528,1731,o),
(1435,1731,cs),
(767,1731,l),
(636,1202,l),
(1030,1202,ls),
(1129,1202,o),
(1168,1153,o),
(1168,1074,cs),
(1168,998,o),
(1125,946,o),
(1030,946,cs),
(572,946,l),
(373,138,ls),
(358,85,o),
(330,20,o),
(229,20,cs)
);
}
);
vertWidth = 0;
width = 1343;
}
);
metricLeft = F;
metricWidth = F;
changeCount = 1;
},
{
color = 5;
glyphname = G.ss02;
lastChange = "2024-02-29 17:26:20 +0000";
layers = (
{
.lastUpdate = 730920380.634;
layerId = m01;
shapes = (
{
closed = 1;
nodes = (
(785,-20,o),
(976,103,o),
(1144,359,c),
(1078,98,ls),
(1068,59,o),
(1079,0,o),
(1148,0,cs),
(1225,0,o),
(1247,49,o),
(1256,85,cs),
(1471,946,ls),
(1488,1014,o),
(1435,1048,o),
(1391,1048,cs),
(1332,1048,o),
(1317,1039,o),
(1208,766,cs),
(1057,383,o),
(823,138,o),
(585,138,cs),
(360,138,o),
(314,522,o),
(470,1142,cs),
(591,1618,o),
(818,1868,o),
(1089,1868,cs),
(1184,1868,o),
(1255,1807,o),
(1302,1682,cs),
(1320,1634,o),
(1366,1609,o),
(1420,1626,cs),
(1467,1641,o),
(1485,1679,o),
(1470,1722,cs),
(1399,1924,o),
(1276,2028,o),
(1100,2028,cs),
(709,2028,o),
(425,1676,o),
(284,1120,cs),
(111,424,o),
(217,-20,o),
(567,-20,cs)
);
},
{
closed = 1;
nodes = (
(234,0,o),
(132,427,o),
(304,1116,cs),
(443,1665,o),
(720,2008,o),
(1100,2008,cs),
(1268,2008,o),
(1382,1911,o),
(1452,1716,cs),
(1463,1682,o),
(1452,1657,o),
(1414,1646,cs),
(1369,1631,o),
(1334,1648,o),
(1320,1688,cs),
(1269,1819,o),
(1193,1888,o),
(1089,1888,cs),
(808,1888,o),
(573,1629,o),
(450,1146,cs),
(293,521,o),
(340,118,o),
(585,118,cs),
(832,118,o),
(1074,370,o),
(1226,758,cs),
(1332,1023,o),
(1340,1028,o),
(1391,1028,cs),
(1427,1028,o),
(1464,1004,o),
(1451,952,cs),
(1236,91,ls),
(1228,57,o),
(1211,20,o),
(1148,20,cs),
(1096,20,o),
(1089,59,o),
(1098,94,cs),
(1181,417,ls),
(1195,472,o),
(1189,470,o),
(1162,425,cs),
(988,134,o),
(794,0,o),
(567,0,cs)
);
}
);
vertWidth = 0;
width = 1258;
},
{
.lastUpdate = 730920380.933;
layerId = "6449507E-FEE0-4D4A-A81F-7CAB6A5803D5";
shapes = (
{
closed = 1;
nodes = (
(788,-20,o),
(897,57,o),
(1001,188,c),
(994,190,l),
(967,96,o),
(1005,0,o),
(1144,0,cs),
(1280,0,o),
(1326,67,o),
(1341,128,cs),
(1541,929,ls),
(1576,1071,o),
(1468,1141,o),
(1377,1141,cs),
(1286,1141,o),
(1240,1112,o),
(1121,825,cs),
(998,520,o),
(829,317,o),
(638,317,cs),
(470,317,o),
(588,951,o),
(629,1103,cs),
(719,1476,o),
(885,1689,o),
(1099,1689,cs),
(1150,1689,o),
(1177,1650,o),
(1204,1582,cs),
(1240,1493,o),
(1321,1442,o),
(1430,1474,cs),
(1536,1506,o),
(1573,1591,o),
(1541,1682,cs),
(1458,1918,o),
(1310,2028,o),
(1112,2028,cs),
(718,2028,o),
(415,1703,o),
(271,1136,cs),
(56,278,o),
(270,-20,o),
(620,-20,cs)
);
},
{
closed = 1;
nodes = (
(294,20,o),
(101,290,o),
(309,1126,cs),
(451,1681,o),
(738,1988,o),
(1112,1988,cs),
(1294,1988,o),
(1425,1892,o),
(1503,1668,cs),
(1530,1595,o),
(1505,1536,o),
(1418,1512,cs),
(1330,1484,o),
(1271,1522,o),
(1242,1596,cs),
(1212,1670,o),
(1173,1729,o),
(1099,1729,cs),
(863,1729,o),
(687,1495,o),
(591,1113,cs),
(555,968,o),
(414,277,o),
(638,277,cs),
(849,277,o),
(1032,498,o),
(1159,809,cs),
(1271,1082,o),
(1300,1101,o),
(1377,1101,cs),
(1454,1101,o),
(1531,1051,o),
(1503,939,cs),
(1303,138,ls),
(1289,82,o),
(1253,40,o),
(1144,40,cs),
(1036,40,o),
(1014,100,o),
(1032,180,cs),
(1048,253,ls),
(1067,342,o),
(1065,351,o),
(1007,269,cs),
(879,89,o),
(775,20,o),
(620,20,cs)
);
}
);
vertWidth = 0;
width = 1345;
}
);
metricLeft = G;
metricWidth = G;
changeCount = 1;
},
{
color = 5;
glyphname = H.ss02;
lastChange = "2024-02-29 17:26:20 +0000";
layers = (
{
.lastUpdate = 730920380.635;
layerId = m01;
shapes = (
{
closed = 1;
nodes = (
(213,0,o),
(234,45,o),
(242,78,cs),
(471,998,l),
(1337,998,l),
(1113,98,ls),
(1103,59,o),
(1111,0,o),
(1188,0,cs),
(1254,0,o),
(1281,39,o),
(1289,70,cs),
(1747,1905,ls),
(1761,1962,o),
(1743,2008,o),
(1675,2008,cs),
(1615,2008,o),
(1581,1973,o),
(1572,1938,cs),
(1377,1156,l),
(511,1156,l),
(695,1895,ls),
(710,1954,o),
(684,2008,o),
(624,2008,cs),
(558,2008,o),
(531,1978,o),
(518,1925,cs),
(63,100,ls),
(51,51,o),
(75,0,o),
(138,0,cs)
);
},
{
closed = 1;
nodes = (
(89,20,o),
(73,55,o),
(83,96,cs),
(538,1921,ls),
(549,1967,o),
(569,1988,o),
(624,1988,cs),
(669,1988,o),
(688,1951,o),
(675,1899,cs),
(484,1136,l),
(1393,1136,l),
(1591,1934,ls),
(1598,1962,o),
(1624,1988,o),
(1675,1988,cs),
(1728,1988,o),
(1739,1958,o),
(1727,1909,cs),
(1270,74,ls),
(1264,48,o),
(1243,20,o),
(1188,20,cs),
(1130,20,o),
(1124,59,o),
(1133,94,cs),
(1363,1018,l),
(455,1018,l),
(222,82,ls),
(215,52,o),
(200,20,o),
(138,20,cs)
);
}
);
vertWidth = 0;
width = 1540;
},
{
.lastUpdate = 730920380.933;
layerId = "6449507E-FEE0-4D4A-A81F-7CAB6A5803D5";
shapes = (
{
closed = 1;
nodes = (
(371,-20,o),
(404,71,o),
(415,129,c),
(608,906,l),
(1201,906,l),
(1026,190,ls),
(1006,101,o),
(1025,-20,o),
(1188,-20,cs),
(1316,-20,o),
(1360,60,o),
(1374,120,cs),
(1785,1816,ls),
(1814,1945,o),
(1755,2028,o),
(1625,2028,cs),
(1503,2028,o),
(1456,1950,o),
(1442,1891,cs),
(1283,1242,l),
(691,1242,l),
(831,1806,l),
(859,1956,o),
(783,2028,o),
(673,2028,cs),
(561,2028,o),
(513,1973,o),
(485,1878,c),
(69,192,l),
(37,79,o),
(99,-20,o),
(229,-20,cs)
);
},
{
closed = 1;
nodes = (
(123,20,o),
(82,89,o),
(107,182,cs),
(523,1868,l),
(548,1951,o),
(581,1988,o),
(673,1988,cs),
(764,1988,o),
(815,1939,o),
(791,1814,c),
(639,1202,l),
(1315,1202,l),
(1480,1881,ls),
(1493,1932,o),
(1527,1988,o),
(1625,1988,cs),
(1732,1988,o),
(1771,1934,o),
(1747,1826,cs),
(1336,130,ls),
(1323,77,o),
(1291,20,o),
(1188,20,cs),
(1060,20,o),
(1047,103,o),
(1064,180,cs),
(1251,946,l),
(576,946,l),
(375,137,l),
(366,84,o),
(343,20,o),
(229,20,cs)
);
}
);
vertWidth = 0;
width = 1597;
}
);
metricLeft = H;
metricWidth = H;
changeCount = 1;
},
{
color = 5;
glyphname = I.ss02;
lastChange = "2024-02-29 17:26:20 +0000";
layers = (
{
.lastUpdate = 730920380.635;
layerId = m01;
shapes = (
{
closed = 1;
nodes = (
(829,1850,l),
(407,158,l),
(82,158,ls),
(13,158,o),
(-8,123,o),
(-8,80,cs),
(-8,40,o),
(13,0,o),
(82,0,cs),
(869,0,ls),
(938,0,o),
(959,40,o),
(959,80,cs),
(959,123,o),
(938,158,o),
(869,158,cs),
(587,158,l),
(1009,1850,l),
(1329,1850,ls),
(1398,1850,o),
(1420,1887,o),
(1420,1928,cs),
(1420,1968,o),
(1398,2008,o),
(1329,2008,cs),
(544,2008,ls),
(474,2008,o),
(453,1968,o),
(453,1928,cs),
(453,1887,o),
(474,1850,o),
(544,1850,cs)
);
},
{
closed = 1;
nodes = (
(487,1870,o),
(473,1894,o),
(473,1928,cs),
(473,1962,o),
(487,1988,o),
(544,1988,cs),
(1329,1988,ls),
(1385,1988,o),
(1400,1961,o),
(1400,1928,cs),
(1400,1894,o),
(1385,1870,o),
(1329,1870,cs),
(993,1870,l),
(561,138,l),
(869,138,ls),
(925,138,o),
(939,116,o),
(939,80,cs),
(939,46,o),
(925,20,o),
(869,20,cs),
(82,20,ls),
(26,20,o),
(12,46,o),
(12,80,cs),
(12,116,o),
(26,138,o),
(82,138,cs),
(423,138,l),
(855,1870,l),
(544,1870,ls)
);
}
);
vertWidth = 0;
width = 1142;
},
{
.lastUpdate = 730920380.934;
layerId = "6449507E-FEE0-4D4A-A81F-7CAB6A5803D5";
shapes = (
{
closed = 1;
nodes = (
(777,1691,l),
(432,317,l),
(216,317,ls),
(67,317,o),
(40,230,o),
(40,151,cs),
(40,72,o),
(73,-20,o),
(216,-20,cs),
(934,-20,ls),
(1080,-20,o),
(1113,72,o),
(1113,151,cs),
(1113,229,o),
(1083,317,o),
(934,317,cs),
(798,317,l),
(1138,1691,l),
(1355,1691,ls),
(1505,1691,o),
(1531,1782,o),
(1531,1857,cs),
(1531,1939,o),
(1501,2028,o),
(1355,2028,cs),
(637,2028,ls),
(491,2028,o),
(459,1939,o),
(459,1857,cs),
(459,1782,o),
(489,1691,o),
(637,1691,cs)
);
},
{
closed = 1;
nodes = (
(519,1731,o),
(499,1790,o),
(499,1857,cs),
(499,1929,o),
(521,1988,o),
(637,1988,cs),
(1355,1988,ls),
(1471,1988,o),
(1491,1930,o),
(1491,1857,cs),
(1491,1790,o),
(1473,1731,o),
(1355,1731,cs),
(1106,1731,l),
(746,277,l),
(934,277,ls),
(1053,277,o),
(1073,221,o),
(1073,151,cs),
(1073,82,o),
(1050,20,o),
(934,20,cs),
(216,20,ls),
(103,20,o),
(80,82,o),
(80,151,cs),
(80,221,o),
(98,277,o),
(216,277,cs),
(464,277,l),
(829,1731,l),
(637,1731,ls)
);
}
);
vertWidth = 0;
width = 1304;
}
);
metricLeft = I;
metricWidth = I;
changeCount = 1;
},
{
color = 5;
glyphname = J.ss02;
lastChange = "2024-02-29 17:26:20 +0000";
layers = (
{
.lastUpdate = 730920380.635;
layerId = m01;
shapes = (
{
closed = 1;
nodes = (
(662,0,o),
(860,194,o),
(959,591,cs),
(1285,1897,ls),
(1298,1950,o),
(1291,2008,o),
(1218,2008,cs),
(1150,2008,o),
(1122,1978,o),
(1109,1925,cs),
(780,605,ls),
(704,301,o),
(568,163,o),
(400,163,cs),
(237,163,o),
(178,280,o),
(178,473,cs),
(178,562,o),
(158,613,o),
(98,613,cs),
(45,613,o),
(5,570,o),
(5,473,cs),
(2,182,o),
(142,0,o),
(392,0,cs)
);
},
{
closed = 1;
nodes = (
(153,20,o),
(22,190,o),
(25,473,cs),
(25,560,o),
(55,593,o),
(98,593,cs),
(143,593,o),
(158,557,o),
(158,473,cs),
(158,274,o),
(224,143,o),
(400,143,cs),
(578,143,o),
(722,290,o),
(800,601,cs),
(1129,1921,ls),
(1140,1967,o),
(1161,1988,o),
(1218,1988,cs),
(1272,1988,o),
(1277,1951,o),
(1265,1901,cs),
(939,595,ls),
(842,205,o),
(653,20,o),
(392,20,cs)
);
}
);
vertWidth = 0;
width = 1055;
},
{
.lastUpdate = 730920380.934;
layerId = "6449507E-FEE0-4D4A-A81F-7CAB6A5803D5";
shapes = (
{
closed = 1;
nodes = (
(789,-20,o),
(1009,180,o),
(1115,604,cs),
(1417,1808,ls),
(1450,1941,o),
(1399,2028,o),
(1269,2028,cs),
(1147,2028,o),
(1093,1973,o),
(1069,1878,cs),
(767,663,ls),
(714,449,o),
(632,319,o),
(513,319,cs),
(419,319,o),
(406,403,o),
(406,510,cs),
(406,709,o),
(323,733,o),
(235,733,cs),
(160,733,o),
(54,701,o),
(54,510,cs),
(54,172,o),
(223,-20,o),
(506,-20,cs)
);
},
{
closed = 1;
nodes = (
(244,20,o),
(94,190,o),
(94,510,cs),
(94,669,o),
(168,693,o),
(235,693,cs),
(315,693,o),
(366,677,o),
(366,510,cs),
(366,399,o),
(384,279,o),
(513,279,cs),
(656,279,o),
(750,431,o),
(805,653,cs),
(1107,1868,ls),
(1128,1953,o),
(1167,1988,o),
(1267,1988,cs),
(1367,1988,o),
(1407,1931,o),
(1379,1818,cs),
(1077,614,ls),
(974,204,o),
(771,20,o),
(506,20,cs)
);
}
);
vertWidth = 0;
width = 1216;
}
);
metricLeft = J;
metricWidth = J;
changeCount = 1;
},
{
color = 5;
glyphname = K.ss02;
lastChange = "2024-02-29 17:26:20 +0000";
layers = (
{
.lastUpdate = 730920380.636;
layerId = m01;
shapes = (
{
closed = 1;
nodes = (
(1312,0,o),
(1375,69,o),
(1316,146,cs),
(612,1076,l),
(1615,1842,ls),
(1653,1871,o),
(1676,1903,o),
(1676,1941,cs),
(1676,1977,o),
(1651,2008,o),
(1604,2008,cs),
(1578,2008,o),
(1540,1995,o),
(1504,1967,cs),
(516,1209,l),
(687,1895,ls),
(702,1954,o),
(688,2008,o),
(620,2008,cs),
(552,2008,o),
(525,1970,o),
(514,1925,cs),
(63,116,ls),
(51,68,o),
(72,0,o),
(136,0,cs),
(205,0,o),
(229,55,o),
(239,96,cs),
(459,980,l),
(1154,64,ls),
(1179,31,o),
(1210,0,o),
(1256,0,cs)
);
},
{
closed = 1;
nodes = (
(1218,20,o),
(1194,44,o),
(1170,76,cs),
(469,1001,ls),
(451,1025,o),
(450,1025,o),
(443,998,cs),
(219,100,ls),
(209,62,o),
(191,20,o),
(136,20,cs),
(88,20,o),
(72,70,o),
(83,112,cs),
(534,1921,ls),
(544,1961,o),
(563,1988,o),
(620,1988,cs),
(672,1988,o),
(680,1952,o),
(667,1899,cs),
(493,1198,ls),
(484,1160,o),
(484,1159,o),
(522,1188,cs),
(1516,1951,ls),
(1550,1977,o),
(1582,1988,o),
(1602,1988,cs),
(1640,1988,o),
(1656,1969,o),
(1656,1941,cs),
(1656,1910,o),
(1638,1885,o),
(1603,1858,cs),
(584,1080,l),
(1300,134,ls),
(1348,71,o),
(1301,20,o),
(1256,20,cs)
);
}
);
vertWidth = 0;
width = 1383;
},
{
.lastUpdate = 730920380.934;
layerId = "6449507E-FEE0-4D4A-A81F-7CAB6A5803D5";
shapes = (
{
closed = 1;
nodes = (
(1375,-20,o),
(1507,107,o),
(1388,269,cs),
(796,1078,l),
(1652,1706,ls),
(1706,1746,o),
(1743,1794,o),
(1743,1873,cs),
(1743,1949,o),
(1687,2028,o),
(1586,2028,cs),
(1546,2028,o),
(1495,2018,o),
(1433,1972,cs),
(746,1463,l),
(832,1805,ls),
(868,1950,o),
(804,2028,o),
(680,2028,cs),
(559,2028,o),
(511,1965,o),
(490,1880,cs),
(68,205,ls),
(39,91,o),
(108,-20,o),
(225,-20,cs),
(345,-20,o),
(392,67,o),
(411,143,cs),
(573,779,l),
(1091,74,ls),
(1133,17,o),
(1188,-20,o),
(1258,-20,cs)
);
},
{
closed = 1;
nodes = (
(1201,20,o),
(1160,48,o),
(1123,98,cs),
(596,815,ls),
(556,870,o),
(555,870,o),
(540,812,cs),
(373,153,ls),
(355,83,o),
(320,20,o),
(225,20,cs),
(132,20,o),
(82,101,o),
(106,195,cs),
(528,1870,ls),
(547,1945,o),
(581,1988,o),
(680,1988,cs),
(782,1988,o),
(825,1936,o),
(794,1815,cs),
(700,1444,ls),
(681,1369,o),
(683,1367,o),
(757,1422,cs),
(1457,1940,ls),
(1511,1980,o),
(1551,1988,o),
(1586,1988,cs),
(1664,1988,o),
(1703,1934,o),
(1703,1873,cs),
(1703,1809,o),
(1677,1774,o),
(1628,1738,cs),
(740,1086,l),
(1356,245,ls),
(1454,112,o),
(1351,20,o),
(1258,20,cs)
);
}
);
vertWidth = 0;
width = 1468;
}
);
metricLeft = K;
metricWidth = K;
changeCount = 1;
},
{
color = 5;
glyphname = L.ss02;
lastChange = "2024-02-29 17:26:20 +0000";
layers = (
{
.lastUpdate = 730920380.636;
layerId = m01;
shapes = (
{
closed = 1;
nodes = (
(965,0,ls),
(1038,0,o),
(1084,38,o),
(1084,96,cs),
(1084,137,o),
(1047,158,o),
(994,158,cs),
(257,158,l),
(689,1889,ls),
(703,1946,o),
(705,2008,o),
(627,2008,cs),
(556,2008,o),
(531,1978,o),
(518,1925,cs),
(63,100,ls),
(51,51,o),
(75,0,o),
(138,0,cs)
);
},
{
closed = 1;
nodes = (
(89,20,o),
(73,55,o),
(83,96,cs),
(538,1921,ls),
(549,1967,o),
(567,1988,o),
(627,1988,cs),
(684,1988,o),
(682,1947,o),
(669,1893,cs),
(231,138,l),
(994,138,ls),
(1040,138,o),
(1064,124,o),
(1064,96,cs),
(1064,49,o),
(1029,20,o),
(965,20,cs),
(138,20,ls)
);
}
);
vertWidth = 0;
width = 759;
},
{
.lastUpdate = 730920380.935;
layerId = "6449507E-FEE0-4D4A-A81F-7CAB6A5803D5";
shapes = (
{
closed = 1;
nodes = (
(982,-20,ls),
(1124,-20,o),
(1192,69,o),
(1192,164,cs),
(1192,238,o),
(1153,317,o),
(1011,317,cs),
(461,317,l),
(832,1800,ls),
(870,1951,o),
(815,2028,o),
(681,2028,cs),
(558,2028,o),
(511,1970,o),
(488,1878,cs),
(68,192,ls),
(40,79,o),
(96,-20,o),
(228,-20,cs)
);
},
{
closed = 1;
nodes = (
(123,20,o),
(83,88,o),
(106,182,cs),
(526,1868,ls),
(546,1950,o),
(578,1988,o),
(681,1988,cs),
(792,1988,o),
(826,1938,o),
(794,1810,cs),
(409,277,l),
(1011,277,ls),
(1126,277,o),
(1152,226,o),
(1152,164,cs),
(1152,85,o),
(1102,20,o),
(982,20,cs),
(228,20,ls)
);
}
);
vertWidth = 0;
width = 920;
}
);
metricLeft = L;
metricWidth = L;
changeCount = 1;
},
{
color = 5;
glyphname = M.ss02;
lastChange = "2024-02-29 17:26:20 +0000";
layers = (
{
.lastUpdate = 730920380.636;
layerId = m01;
shapes = (
{
closed = 1;
nodes = (
(201,0,o),
(229,41,o),
(239,83,cs),
(621,1622,l),
(778,64,ls),
(782,21,o),
(813,0,o),
(859,0,cs),
(898,0,o),
(937,20,o),
(961,60,cs),
(1898,1623,l),
(1521,107,ls),
(1511,67,o),
(1525,0,o),
(1596,0,cs),
(1668,0,o),
(1685,40,o),
(1693,73,cs),
(2141,1869,ls),
(2166,1968,o),
(2117,2008,o),
(2025,2008,cs),
(1962,2008,o),
(1927,1982,o),
(1859,1868,cs),
(929,317,l),
(771,1875,ls),
(761,1978,o),
(722,2008,o),
(648,2008,cs),
(573,2008,o),
(532,1992,o),
(509,1898,cs),
(63,106,ls),
(51,57,o),
(78,0,o),
(138,0,cs)
);
},
{
closed = 1;
nodes = (
(93,20,o),
(73,61,o),
(83,102,cs),
(529,1894,ls),
(551,1981,o),
(582,1988,o),
(648,1988,cs),
(711,1988,o),
(741,1969,o),
(751,1873,cs),
(911,304,ls),
(915,260,o),
(919,260,o),
(944,302,cs),
(1884,1869,ls),
(1950,1979,o),
(1971,1988,o),
(2025,1988,cs),
(2105,1988,o),
(2143,1962,o),
(2121,1873,cs),
(1673,77,ls),
(1666,47,o),
(1654,20,o),
(1596,20,cs),
(1541,20,o),
(1533,68,o),
(1541,101,cs),
(1924,1643,ls),
(1944,1724,o),
(1936,1727,o),
(1891,1652,cs),
(943,70,ls),
(922,36,o),
(893,20,o),
(859,20,cs),
(820,20,o),
(801,34,o),
(798,66,cs),
(639,1651,ls),
(631,1730,o),
(627,1730,o),
(607,1649,cs),
(219,87,ls),
(210,50,o),
(190,20,o),
(138,20,cs)
);
}
);
vertWidth = 0;
width = 1939;
},
{
.lastUpdate = 730920380.935;
layerId = "6449507E-FEE0-4D4A-A81F-7CAB6A5803D5";
shapes = (
{
closed = 1;
nodes = (
(340,-20,o),
(392,55,o),
(410,128,cs),
(630,1018,l),
(714,125,ls),
(722,38,o),
(778,-20,o),
(887,-20,cs),
(953,-20,o),
(1019,16,o),
(1060,84,cs),
(1590,962,l),
(1399,197,ls),
(1378,113,o),
(1417,-20,o),
(1561,-20,cs),
(1692,-20,o),
(1725,58,o),
(1739,115,cs),
(2159,1802,ls),
(2202,1974,o),
(2104,2028,o),
(1956,2028,cs),
(1874,2028,o),
(1817,2013,o),
(1725,1859,cs),
(1013,665,l),
(906,1826,ls),
(890,2002,o),
(803,2028,o),
(695,2028,cs),
(592,2028,o),
(511,2002,o),
(476,1858,cs),
(67,196,ls),
(40,88,o),
(109,-20,o),
(224,-20,cs)
);
},
{
closed = 1;
nodes = (
(134,20,o),
(83,99,o),
(105,188,cs),
(514,1850,ls),
(545,1976,o),
(608,1988,o),
(695,1988,cs),
(788,1988,o),
(852,1977,o),
(866,1822,cs),
(976,637,ls),
(985,545,o),
(988,544,o),
(1042,635,cs),
(1759,1839,ls),
(1844,1981,o),
(1886,1988,o),
(1956,1988,cs),
(2083,1988,o),
(2158,1959,o),
(2121,1812,cs),
(1701,125,ls),
(1688,71,o),
(1664,20,o),
(1561,20,cs),
(1449,20,o),
(1419,117,o),
(1437,187,cs),
(1655,1056,ls),
(1685,1175,o),
(1674,1179,o),
(1609,1071,cs),
(1026,104,ls),
(992,47,o),
(942,20,o),
(887,20,cs),
(798,20,o),
(761,58,o),
(754,129,cs),
(664,1085,ls),
(651,1223,o),
(640,1224,o),
(606,1086,cs),
(372,138,ls),
(356,73,o),
(317,20,o),
(224,20,cs)
);
}
);
vertWidth = 0;
width = 1963;
}
);
metricLeft = M;
metricWidth = M;
changeCount = 1;
},
{
color = 5;
glyphname = N.ss02;
lastChange = "2024-02-29 17:26:20 +0000";
layers = (
{
.lastUpdate = 730920380.637;
layerId = m01;
shapes = (
{
closed = 1;
nodes = (
(210,0,o),
(234,50,o),
(244,89,cs),
(633,1666,l),
(1106,62,ls),
(1116,29,o),
(1150,0,o),
(1200,0,cs),
(1255,0,o),
(1285,44,o),
(1293,78,cs),
(1747,1900,ls),
(1762,1961,o),
(1748,2008,o),
(1677,2008,cs),
(1618,2008,o),
(1586,1973,o),
(1574,1927,cs),
(1185,381,l),
(727,1939,ls),
(718,1971,o),
(684,2008,o),
(624,2008,cs),
(553,2008,o),
(531,1977,o),
(518,1925,cs),
(63,100,ls),
(51,52,o),
(73,0,o),
(138,0,cs)
);
},
{
closed = 1;
nodes = (
(88,20,o),
(73,55,o),
(83,96,cs),
(538,1921,ls),
(550,1968,o),
(564,1988,o),
(624,1988,cs),
(674,1988,o),
(701,1960,o),
(709,1933,cs),
(1170,361,ls),
(1186,308,o),
(1188,308,o),
(1202,362,cs),
(1594,1923,ls),
(1604,1961,o),
(1627,1988,o),
(1677,1988,cs),
(1732,1988,o),
(1741,1959,o),
(1727,1904,cs),
(1273,82,ls),
(1266,53,o),
(1244,20,o),
(1200,20,cs),
(1159,20,o),
(1134,42,o),
(1126,68,cs),
(646,1693,ls),
(633,1737,o),
(629,1737,o),
(619,1695,cs),
(224,93,ls),
(215,57,o),
(197,20,o),
(138,20,cs)
);
}
);
vertWidth = 0;
width = 1540;
},
{
.lastUpdate = 730920380.935;
layerId = "6449507E-FEE0-4D4A-A81F-7CAB6A5803D5";
shapes = (
{
closed = 1;
nodes = (
(352,-20,o),
(396,61,o),
(414,134,cs),
(702,1279,l),
(1024,99,ls),
(1043,31,o),
(1107,-20,o),
(1196,-20,cs),
(1306,-20,o),
(1361,65,o),
(1377,128,cs),
(1796,1808,ls),
(1833,1956,o),
(1776,2028,o),
(1644,2028,cs),
(1538,2028,o),
(1475,1969,o),
(1453,1883,cs),
(1171,761,l),
(864,1901,ls),
(849,1955,o),
(786,2028,o),
(681,2028,cs),
(550,2028,o),
(511,1969,o),
(488,1878,cs),
(68,192,ls),
(40,79,o),
(91,-20,o),
(227,-20,cs)
);
},
{
closed = 1;
nodes = (
(117,20,o),
(82,87,o),
(106,182,cs),
(526,1868,ls),
(547,1951,o),
(572,1988,o),
(681,1988,cs),
(766,1988,o),
(815,1933,o),
(826,1891,cs),
(1141,718,ls),
(1171,606,o),
(1175,606,o),
(1202,715,cs),
(1491,1873,ls),
(1509,1945,o),
(1556,1988,o),
(1644,1988,cs),
(1754,1988,o),
(1789,1942,o),
(1758,1818,cs),
(1339,138,ls),
(1325,83,o),
(1282,20,o),
(1196,20,cs),
(1122,20,o),
(1076,57,o),
(1062,109,cs),
(727,1338,ls),
(703,1427,o),
(698,1427,o),
(675,1337,cs),
(374,142,ls),
(358,79,o),
(328,20,o),
(227,20,cs)
);
}
);
vertWidth = 0;
width = 1596;
}
);
metricLeft = N;
metricWidth = N;
changeCount = 1;
},
{
color = 5;
glyphname = O.ss02;
lastChange = "2024-02-29 17:26:20 +0000";
layers = (
{
.lastUpdate = 730920380.637;
layerId = m01;
shapes = (
{
closed = 1;
nodes = (
(1025,-20,o),
(1342,411,o),
(1489,1088,cs),
(1610,1653,o),
(1456,2028,o),
(1078,2028,cs),
(630,2028,o),
(302,1560,o),
(213,823,cs),
(155,311,o),
(315,-20,o),
(642,-20,cs)
);
},
{
closed = 1;
nodes = (
(328,0,o),
(176,317,o),
(233,821,cs),
(321,1551,o),
(641,2008,o),
(1078,2008,cs),
(1441,2008,o),
(1589,1648,o),
(1469,1092,cs),
(1324,420,o),
(1014,0,o),
(642,0,cs)
);
},
{
closed = 1;
nodes = (
(472,1474,o),
(717,1868,o),
(1060,1868,cs),
(1311,1868,o),
(1409,1565,o),
(1305,1084,cs),
(1179,503,o),
(930,143,o),
(644,143,cs),
(438,143,o),
(345,412,o),
(397,850,cs)
);
},
{
closed = 1;
nodes = (
(324,407,o),
(423,123,o),
(644,123,cs),
(941,123,o),
(1197,494,o),
(1325,1080,cs),
(1430,1570,o),
(1326,1888,o),
(1060,1888,cs),
(705,1888,o),
(452,1482,o),
(377,852,cs)
);
}
);
vertWidth = 0;
width = 1430;
},
{
.lastUpdate = 730920380.935;
layerId = "6449507E-FEE0-4D4A-A81F-7CAB6A5803D5";
shapes = (
{
closed = 1;
nodes = (
(1075,-20,o),
(1411,370,o),
(1561,1062,cs),
(1702,1704,o),
(1480,2028,o),
(1094,2028,cs),
(650,2028,o),
(297,1603,o),
(205,850,cs),
(139,271,o),
(356,-20,o),
(693,-20,cs)
);
},
{
closed = 1;
nodes = (
(378,20,o),
(181,287,o),
(245,846,cs),
(335,1584,o),
(671,1988,o),
(1094,1988,cs),
(1457,1988,o),
(1658,1689,o),
(1521,1070,cs),
(1375,391,o),
(1054,20,o),
(693,20,cs)
);
},
{
closed = 1;
nodes = (
(621,1341,o),
(796,1689,o),
(1078,1689,cs),
(1264,1689,o),
(1269,1381,o),
(1207,1099,cs),
(1106,642,o),
(928,319,o),
(696,319,cs),
(549,319,o),
(534,595,o),
(565,851,cs)
);
},
{
closed = 1;
nodes = (
(494,594,o),
(509,279,o),
(696,279,cs),
(954,279,o),
(1143,626,o),
(1247,1091,cs),
(1309,1379,o),
(1306,1729,o),
(1078,1729,cs),
(769,1729,o),
(583,1355,o),
(525,855,cs)
);
}
);
vertWidth = 0;
width = 1511;
}
);
metricLeft = O;
metricWidth = O;
changeCount = 1;
},
{
color = 5;
glyphname = P.ss02;
lastChange = "2024-02-29 17:26:20 +0000";
layers = (
{
.lastUpdate = 730920380.637;
layerId = m01;
shapes = (
{
closed = 1;
nodes = (
(210,0,o),
(229,58,o),
(237,89,cs),
(461,991,l),
(1069,997,o),
(1525,1070,o),
(1622,1455,cs),
(1718,1832,o),
(1281,2008,o),
(621,2008,cs),
(546,2008,o),
(528,1977,o),
(515,1925,cs),
(63,111,ls),
(50,60,o),
(75,0,o),
(138,0,cs)
);
},
{
closed = 1;
nodes = (
(90,20,o),
(72,63,o),
(83,107,cs),
(535,1921,ls),
(547,1968,o),
(559,1988,o),
(621,1988,cs),
(1274,1988,o),
(1694,1820,o),
(1602,1459,cs),
(1509,1085,o),
(1059,1015,o),
(445,1011,c),
(216,93,ls),
(209,65,o),
(196,20,o),
(138,20,cs)
);
},
{
closed = 1;
nodes = (
(671,1834,l),
(1257,1822,o),
(1507,1699,o),
(1451,1485,cs),
(1389,1238,o),
(996,1171,o),
(504,1164,c)
);
},
{
closed = 1;
nodes = (
(985,1149,o),
(1404,1215,o),
(1471,1481,cs),
(1531,1712,o),
(1260,1844,o),
(655,1854,c),
(478,1144,l)
);
}
);
vertWidth = 0;
width = 1469;
},
{
.lastUpdate = 730920380.936;
layerId = "6449507E-FEE0-4D4A-A81F-7CAB6A5803D5";
shapes = (
{
closed = 1;
nodes = (
(354,-20,o),
(403,80,o),
(414,133,c),
(603,901,l),
(1183,915,o),
(1589,1020,o),
(1683,1392,cs),
(1778,1780,o),
(1471,2028,o),
(673,2028,cs),
(543,2028,o),
(507,1971,o),
(485,1878,cs),
(69,200,l),
(36,89,o),
(106,-20,o),
(226,-20,cs)
);
},
{
closed = 1;
nodes = (
(130,20,o),
(81,99,o),
(107,190,c),
(523,1868,ls),
(544,1953,o),
(567,1988,o),
(673,1988,cs),
(1452,1988,o),
(1733,1761,o),
(1645,1402,cs),
(1555,1048,o),
(1161,951,o),
(571,941,c),
(376,143,ls),
(365,95,o),
(328,20,o),
(226,20,cs)
);
},
{
closed = 1;
nodes = (
(792,1671,l),
(1086,1656,o),
(1374,1603,o),
(1341,1469,cs),
(1294,1288,o),
(1004,1256,o),
(689,1250,c)
);
},
{
closed = 1;
nodes = (
(972,1213,o),
(1323,1238,o),
(1379,1459,cs),
(1425,1644,o),
(1069,1700,o),
(760,1713,c),
(637,1210,l)
);
}
);
vertWidth = 0;
width = 1522;
}
);
metricLeft = P;
metricWidth = P;
changeCount = 1;
},
{
color = 5;
glyphname = Q.ss02;
lastChange = "2024-02-29 17:26:20 +0000";
layers = (
{
.lastUpdate = 730920380.638;
layerId = m01;
shapes = (
{
closed = 1;
nodes = (
(767,-20,o),
(885,25,o),
(992,118,c),
(1115,-73,ls),
(1146,-121,o),
(1190,-136,o),
(1232,-113,cs),
(1281,-87,o),
(1291,-36,o),
(1258,15,cs),
(1116,238,l),
(1279,428,o),
(1409,721,o),
(1489,1088,cs),
(1610,1653,o),
(1456,2028,o),
(1078,2028,cs),
(630,2028,o),
(302,1560,o),
(213,823,cs),
(155,311,o),
(315,-20,o),
(642,-20,cs)
);
},
{
closed = 1;
nodes = (
(328,0,o),
(176,317,o),
(233,821,cs),
(321,1551,o),
(641,2008,o),
(1078,2008,cs),
(1441,2008,o),
(1589,1648,o),
(1469,1092,cs),
(1389,719,o),
(1257,428,o),
(1092,240,c),
(1242,5,ls),
(1270,-38,o),
(1262,-74,o),
(1222,-95,cs),
(1189,-114,o),
(1157,-104,o),
(1131,-63,cs),
(996,148,l),
(887,47,o),
(769,0,o),
(642,0,cs)
);
},
{
closed = 1;
nodes = (
(472,1474,o),
(717,1868,o),
(1060,1868,cs),
(1311,1868,o),
(1409,1565,o),
(1305,1084,cs),
(1240,785,o),
(1142,546,o),
(1023,386,c),
(938,517,ls),
(901,574,o),
(855,589,o),
(807,557,cs),
(766,528,o),
(764,474,o),
(797,422,cs),
(903,256,l),
(822,179,o),
(735,143,o),
(644,143,cs),
(438,143,o),
(345,412,o),
(397,850,cs)
);
},
{
closed = 1;
nodes = (
(324,407,o),
(423,123,o),
(644,123,cs),
(745,123,o),
(842,165,o),
(929,252,c),
(813,432,ls),
(783,478,o),
(787,518,o),
(819,541,cs),
(857,566,o),
(891,556,o),
(922,507,cs),
(1021,351,l),
(1150,513,o),
(1256,765,o),
(1325,1080,cs),
(1430,1570,o),
(1326,1888,o),
(1060,1888,cs),
(705,1888,o),
(452,1482,o),
(377,852,cs)
);
}
);
vertWidth = 0;
width = 1431;
},
{
.lastUpdate = 730920380.936;
layerId = "6449507E-FEE0-4D4A-A81F-7CAB6A5803D5";
shapes = (
{
closed = 1;
nodes = (
(784,-20,o),
(874,3,o),
(957,46,c),
(1004,-27,ls),
(1070,-132,o),
(1173,-155,o),
(1250,-113,cs),
(1332,-67,o),
(1361,53,o),
(1306,145,cs),
(1225,275,l),
(1369,458,o),
(1488,724,o),
(1561,1062,cs),
(1702,1704,o),
(1480,2028,o),
(1094,2028,cs),
(650,2028,o),
(297,1603,o),
(205,850,cs),
(139,271,o),
(356,-20,o),
(693,-20,cs)
);
},
{
closed = 1;
nodes = (
(378,20,o),
(181,287,o),
(245,846,cs),
(335,1584,o),
(671,1988,o),
(1094,1988,cs),
(1457,1988,o),
(1658,1689,o),
(1521,1070,cs),
(1446,722,o),
(1325,457,o),
(1175,278,c),
(1272,125,ls),
(1317,49,o),
(1295,-42,o),
(1230,-79,cs),
(1169,-112,o),
(1094,-94,o),
(1038,-5,cs),
(971,99,l),
(881,47,o),
(790,20,o),
(693,20,cs)
);
},
{
closed = 1;
nodes = (
(621,1341,o),
(796,1689,o),
(1078,1689,cs),
(1264,1689,o),
(1269,1381,o),
(1207,1099,cs),
(1163,896,o),
(1102,720,o),
(1027,585,c),
(1015,604,ls),
(955,698,o),
(856,730,o),
(758,665,cs),
(666,606,o),
(661,507,o),
(721,413,cs),
(774,332,l),
(748,323,o),
(723,319,o),
(696,319,cs),
(549,319,o),
(534,595,o),
(565,851,cs)
);
},
{
closed = 1;
nodes = (
(494,594,o),
(509,279,o),
(696,279,cs),
(743,279,o),
(791,292,o),
(833,314,c),
(755,435,ls),
(703,515,o),
(707,585,o),
(780,631,cs),
(860,685,o),
(930,662,o),
(981,582,cs),
(1028,508,l),
(1120,652,o),
(1195,856,o),
(1247,1091,cs),
(1309,1379,o),
(1306,1729,o),
(1078,1729,cs),
(769,1729,o),
(583,1355,o),
(525,855,cs)
);
}
);
vertWidth = 0;
width = 1501;
}
);
metricLeft = Q;
metricWidth = Q;
changeCount = 1;
},
{
color = 5;
glyphname = R.ss02;
lastChange = "2024-02-29 17:26:20 +0000";
layers = (
{
.lastUpdate = 730920380.638;
layerId = m01;
shapes = (
{
closed = 1;
nodes = (
(1277,0,o),
(1310,92,o),
(1268,146,cs),
(615,999,l),
(1122,1013,o),
(1544,1090,o),
(1642,1483,cs),
(1737,1860,o),
(1304,2018,o),
(623,2008,cs),
(547,2007,o),
(528,1976,o),
(516,1926,cs),
(64,116,ls),
(50,59,o),
(70,0,o),
(132,0,cs),
(207,0,o),
(227,50,o),
(238,94,cs),
(447,932,l),
(1115,64,ls),
(1148,21,o),
(1171,0,o),
(1198,0,cs)
);
},
{
closed = 1;
nodes = (
(1179,20,o),
(1162,36,o),
(1131,76,cs),
(462,946,ls),
(440,974,o),
(436,973,o),
(429,944,cs),
(218,98,ls),
(208,57,o),
(193,20,o),
(132,20,cs),
(85,20,o),
(73,62,o),
(85,112,cs),
(536,1920,ls),
(548,1967,o),
(560,1987,o),
(623,1988,cs),
(1296,1998,o),
(1713,1848,o),
(1622,1487,cs),
(1528,1107,o),
(1117,1035,o),
(611,1020,cs),
(577,1019,o),
(576,1018,o),
(597,990,cs),
(1252,134,ls),
(1286,89,o),
(1261,20,o),
(1198,20,cs)
);
},
{
closed = 1;
nodes = (
(675,1848,l),
(1215,1842,o),
(1529,1755,o),
(1471,1518,cs),
(1394,1212,o),
(980,1163,o),
(503,1158,c)
);
},
{
closed = 1;
nodes = (
(966,1141,o),
(1408,1187,o),
(1491,1514,cs),
(1553,1771,o),
(1216,1864,o),
(659,1868,c),
(477,1138,l)
);
}
);
vertWidth = 0;
width = 1454;
},
{
.lastUpdate = 730920380.936;
layerId = "6449507E-FEE0-4D4A-A81F-7CAB6A5803D5";
shapes = (
{
closed = 1;
nodes = (
(1357,-20,o),
(1433,152,o),
(1348,264,cs),
(851,918,l),
(1284,954,o),
(1613,1072,o),
(1697,1420,cs),
(1796,1802,o),
(1519,2028,o),
(682,2028,cs),
(553,2028,o),
(511,1977,o),
(486,1878,cs),
(69,205,ls),
(36,71,o),
(109,-20,o),
(223,-20,cs),
(351,-20,o),
(390,61,o),
(411,141,cs),
(560,721,l),
(1054,74,ls),
(1115,-6,o),
(1161,-20,o),
(1208,-20,cs)
);
},
{
closed = 1;
nodes = (
(1169,20,o),
(1138,29,o),
(1086,98,cs),
(584,756,ls),
(545,807,o),
(541,807,o),
(524,739,cs),
(373,151,ls),
(354,76,o),
(325,20,o),
(223,20,cs),
(131,20,o),
(79,83,o),
(107,195,cs),
(524,1868,ls),
(546,1957,o),
(575,1988,o),
(682,1988,cs),
(1501,1988,o),
(1749,1784,o),
(1659,1430,cs),
(1579,1103,o),
(1272,992,o),
(843,957,cs),
(781,952,o),
(777,949,o),
(822,890,cs),
(1316,240,ls),
(1385,150,o),
(1327,20,o),
(1208,20,cs)
);
},
{
closed = 1;
nodes = (
(802,1688,l),
(1240,1679,o),
(1389,1622,o),
(1358,1501,cs),
(1302,1281,o),
(1014,1250,o),
(692,1246,c)
);
},
{
closed = 1;
nodes = (
(985,1208,o),
(1330,1230,o),
(1396,1491,cs),
(1438,1653,o),
(1245,1721,o),
(770,1728,c),
(640,1206,l)
);
}
);
vertWidth = 0;
width = 1534;
}
);
metricLeft = R;
metricWidth = R;
changeCount = 1;
},
{
color = 5;
glyphname = S.ss02;
lastChange = "2024-02-29 17:26:20 +0000";
layers = (
{
.lastUpdate = 730920380.639;
layerId = m01;
shapes = (
{
closed = 1;
nodes = (
(922,-20,o),
(1150,189,o),
(1232,505,cs),
(1316,861,o),
(1192,1054,o),
(811,1154,cs),
(590,1211,o),
(504,1313,o),
(542,1460,cs),
(599,1682,o),
(829,1868,o),
(1040,1868,cs),
(1165,1868,o),
(1244,1776,o),
(1308,1581,cs),
(1323,1533,o),
(1370,1518,o),
(1413,1527,cs),
(1470,1536,o),
(1490,1589,o),
(1479,1626,cs),
(1405,1891,o),
(1271,2028,o),
(1055,2028,cs),
(757,2028,o),
(443,1796,o),
(371,1498,cs),
(311,1242,o),
(450,1066,o),
(776,978,cs),
(1036,909,o),
(1114,784,o),
(1058,533,cs),
(1002,296,o),
(843,143,o),
(639,143,cs),
(440,143,o),
(311,280,o),
(287,511,cs),
(281,559,o),
(248,580,o),
(193,577,cs),
(139,575,o),
(106,544,o),
(111,494,cs),
(146,176,o),
(345,-20,o),
(629,-20,cs)
);
},
{
closed = 1;
nodes = (
(354,0,o),
(165,187,o),
(131,496,cs),
(127,535,o),
(149,555,o),
(195,557,cs),
(241,560,o),
(263,546,o),
(267,509,cs),
(292,270,o),
(430,123,o),
(639,123,cs),
(852,123,o),
(1020,285,o),
(1078,529,cs),
(1136,789,o),
(1050,926,o),
(782,998,cs),
(463,1083,o),
(333,1248,o),
(391,1494,cs),
(461,1783,o),
(764,2008,o),
(1055,2008,cs),
(1262,2008,o),
(1387,1880,o),
(1459,1620,cs),
(1468,1591,o),
(1454,1554,o),
(1409,1547,cs),
(1373,1539,o),
(1339,1550,o),
(1328,1587,cs),
(1262,1787,o),
(1176,1888,o),
(1040,1888,cs),
(822,1888,o),
(581,1695,o),
(522,1464,cs),
(482,1308,o),
(576,1194,o),
(805,1134,cs),
(1179,1037,o),
(1294,856,o),
(1212,509,cs),
(1132,201,o),
(913,0,o),
(629,0,cs)
);
}
);
vertWidth = 0;
width = 1310;
},
{
.lastUpdate = 730920380.937;
layerId = "6449507E-FEE0-4D4A-A81F-7CAB6A5803D5";
shapes = (
{
closed = 1;
nodes = (
(975,-20,o),
(1234,185,o),
(1309,524,cs),
(1394,911,o),
(1272,1125,o),
(857,1234,cs),
(719,1270,o),
(660,1320,o),
(678,1394,cs),
(719,1561,o),
(884,1689,o),
(1039,1689,cs),
(1120,1689,o),
(1158,1617,o),
(1197,1492,cs),
(1224,1404,o),
(1312,1363,o),
(1399,1379,cs),
(1519,1401,o),
(1555,1520,o),
(1534,1590,cs),
(1449,1888,o),
(1291,2028,o),
(1055,2028,cs),
(739,2028,o),
(413,1793,o),
(338,1480,cs),
(270,1196,o),
(400,987,o),
(774,889,cs),
(949,841,o),
(1002,766,o),
(964,594,cs),
(925,426,o),
(820,319,o),
(672,319,cs),
(539,319,o),
(462,419,o),
(448,572,cs),
(439,665,o),
(378,726,o),
(260,717,cs),
(142,711,o),
(87,644,o),
(96,539,cs),
(133,186,o),
(358,-20,o),
(664,-20,cs)
);
},
{
closed = 1;
nodes = (
(376,20,o),
(171,208,o),
(136,543,cs),
(129,629,o),
(165,672,o),
(262,677,cs),
(360,684,o),
(401,644,o),
(408,568,cs),
(424,401,o),
(517,279,o),
(672,279,cs),
(839,279,o),
(961,404,o),
(1004,586,cs),
(1045,777,o),
(976,875,o),
(784,927,cs),
(428,1021,o),
(313,1205,o),
(376,1470,cs),
(448,1767,o),
(754,1988,o),
(1055,1988,cs),
(1273,1988,o),
(1414,1864,o),
(1496,1578,cs),
(1512,1524,o),
(1486,1436,o),
(1391,1419,cs),
(1319,1405,o),
(1256,1436,o),
(1235,1504,cs),
(1195,1632,o),
(1147,1729,o),
(1039,1729,cs),
(869,1729,o),
(686,1587,o),
(640,1404,cs),
(615,1304,o),
(698,1235,o),
(847,1196,cs),
(1243,1093,o),
(1351,902,o),
(1269,532,cs),
(1198,209,o),
(959,20,o),
(664,20,cs)
);
}
);
vertWidth = 0;
width = 1363;
}
);
metricLeft = S;
metricWidth = S;
changeCount = 1;
},
{
color = 5;
glyphname = T.ss02;
kernRight = KO_T.ss04;
lastChange = "2024-02-29 17:26:20 +0000";
layers = (
{
.lastUpdate = 730920380.639;
layerId = m01;
shapes = (
{
closed = 1;
nodes = (
(718,0,o),
(745,45,o),
(753,78,cs),
(1197,1850,l),
(1671,1850,ls),
(1737,1850,o),
(1759,1887,o),
(1759,1928,cs),
(1759,1968,o),
(1737,2008,o),
(1671,2008,cs),
(575,2008,ls),
(506,2008,o),
(485,1968,o),
(485,1928,cs),
(485,1887,o),
(506,1850,o),
(575,1850,cs),
(1017,1850,l),
(580,108,ls),
(568,60,o),
(592,0,o),
(658,0,cs)
);
},
{
closed = 1;
nodes = (
(607,20,o),
(590,63,o),
(600,104,cs),
(1043,1870,l),
(575,1870,ls),
(519,1870,o),
(505,1894,o),
(505,1928,cs),
(505,1962,o),
(519,1988,o),
(575,1988,cs),
(1671,1988,ls),
(1724,1988,o),
(1739,1961,o),
(1739,1928,cs),
(1739,1894,o),
(1724,1870,o),
(1671,1870,cs),
(1181,1870,l),
(733,82,ls),
(726,53,o),
(707,20,o),
(658,20,cs)
);
}
);
vertWidth = 0;
width = 1490;
},
{
.lastUpdate = 730920380.937;
layerId = "6449507E-FEE0-4D4A-A81F-7CAB6A5803D5";
shapes = (
{
closed = 1;
nodes = (
(741,-20,o),
(788,66,o),
(804,128,cs),
(1196,1691,l),
(1553,1691,ls),
(1701,1691,o),
(1731,1782,o),
(1731,1857,cs),
(1731,1939,o),
(1699,2028,o),
(1553,2028,cs),
(551,2028,ls),
(408,2028,o),
(375,1939,o),
(375,1857,cs),
(375,1782,o),
(401,1691,o),
(551,1691,cs),
(831,1691,l),
(459,200,ls),
(432,91,o),
(502,-20,o),
(624,-20,cs)
);
},
{
closed = 1;
nodes = (
(526,20,o),
(474,102,o),
(497,190,cs),
(883,1731,l),
(551,1731,ls),
(433,1731,o),
(415,1790,o),
(415,1857,cs),
(415,1929,o),
(438,1988,o),
(551,1988,cs),
(1553,1988,ls),
(1669,1988,o),
(1691,1929,o),
(1691,1857,cs),
(1691,1790,o),
(1671,1731,o),
(1553,1731,cs),
(1164,1731,l),
(766,138,ls),
(751,83,o),
(716,20,o),
(624,20,cs)
);
}
);
vertWidth = 0;
width = 1410;
}
);
metricLeft = T;
metricWidth = T;
changeCount = 1;
},
{
color = 5;
glyphname = U.ss02;
lastChange = "2024-02-29 17:26:20 +0000";
layers = (
{
.lastUpdate = 730920380.639;
layerId = m01;
shapes = (
{
closed = 1;
nodes = (
(647,-20,o),
(892,181,o),
(1065,475,c),
(973,100,ls),
(958,39,o),
(998,3,o),
(1047,0,cs),
(1088,-3,o),
(1134,20,o),
(1147,72,cs),
(1605,1909,ls),
(1618,1962,o),
(1595,2008,o),
(1527,2008,cs),
(1467,2008,o),
(1439,1969,o),
(1429,1930,cs),
(1279,1328,l),
(1093,649,o),
(734,138,o),
(441,138,cs),
(250,138,o),
(188,356,o),
(276,705,cs),
(577,1904,ls),
(589,1952,o),
(562,2008,o),
(507,2008,cs),
(452,2008,o),
(411,1968,o),
(398,1914,cs),
(103,728,ls),
(-10,274,o),
(106,-20,o),
(407,-20,cs)
);
},
{
closed = 1;
nodes = (
(120,0,o),
(12,279,o),
(123,724,cs),
(418,1910,ls),
(430,1957,o),
(461,1988,o),
(507,1988,cs),
(548,1988,o),
(567,1949,o),
(557,1910,cs),
(256,709,ls),
(167,352,o),
(235,118,o),
(441,118,cs),
(746,118,o),
(1111,640,o),
(1299,1322,c),
(1449,1926,ls),
(1457,1960,o),
(1478,1988,o),
(1527,1988,cs),
(1581,1988,o),
(1596,1958,o),
(1585,1915,cs),
(1127,78,ls),
(1116,35,o),
(1083,17,o),
(1049,20,cs),
(1008,23,o),
(981,47,o),
(993,96,cs),
(1104,546,ls),
(1116,597,o),
(1109,599,o),
(1085,553,cs),
(913,224,o),
(657,0,o),
(407,0,cs)
);
}
);
vertWidth = 0;
width = 1392;
},
{
.lastUpdate = 730920380.938;
layerId = "6449507E-FEE0-4D4A-A81F-7CAB6A5803D5";
shapes = (
{
closed = 1;
nodes = (
(650,-20,o),
(799,91,o),
(914,248,c),
(898,191,ls),
(862,63,o),
(955,-20,o),
(1055,-20,cs),
(1131,-20,o),
(1224,19,o),
(1249,120,cs),
(1672,1818,ls),
(1698,1923,o),
(1660,2028,o),
(1518,2028,cs),
(1397,2028,o),
(1344,1961,o),
(1324,1883,cs),
(1181,1312,l),
(1016,731,o),
(743,317,o),
(511,317,cs),
(385,317,o),
(414,552,o),
(452,705,cs),
(729,1813,ls),
(754,1913,o),
(692,2028,o),
(582,2028,cs),
(488,2028,o),
(405,1969,o),
(381,1873,cs),
(107,775,ls),
(-31,223,o),
(159,-20,o),
(480,-20,cs)
);
},
{
closed = 1;
nodes = (
(180,20,o),
(14,238,o),
(145,765,cs),
(419,1863,ls),
(439,1944,o),
(502,1988,o),
(582,1988,cs),
(666,1988,o),
(710,1904,o),
(690,1823,cs),
(414,715,ls),
(375,558,o),
(337,277,o),
(511,277,cs),
(768,277,o),
(1052,712,o),
(1219,1302,c),
(1362,1873,ls),
(1379,1941,o),
(1417,1988,o),
(1518,1988,cs),
(1631,1988,o),
(1656,1916,o),
(1634,1828,cs),
(1211,130,ls),
(1191,48,o),
(1121,20,o),
(1055,20,cs),
(974,20,o),
(909,76,o),
(936,183,cs),
(967,304,ls),
(999,430,o),
(998,435,o),
(923,322,cs),
(792,124,o),
(635,20,o),
(480,20,cs)
);
}
);
vertWidth = 0;
width = 1468;
}
);
metricLeft = U;
metricWidth = U;
changeCount = 1;
},
{
color = 5;
glyphname = V.ss02;
lastChange = "2024-02-29 17:26:20 +0000";
layers = (
{
.lastUpdate = 730920380.64;
layerId = m01;
shapes = (
{
closed = 1;
nodes = (
(648,0,o),
(668,40,o),
(690,84,cs),
(1588,1895,ls),
(1623,1966,o),
(1580,2008,o),
(1527,2008,cs),
(1464,2008,o),
(1437,1981,o),
(1411,1927,cs),
(646,371,l),
(564,1926,ls),
(562,1959,o),
(546,2008,o),
(470,2008,cs),
(406,2008,o),
(385,1967,o),
(388,1916,cs),
(494,87,ls),
(496,54,o),
(517,0,o),
(582,0,cs)
);
},
{
closed = 1;
nodes = (
(532,20,o),
(516,59,o),
(514,89,cs),
(408,1918,ls),
(405,1962,o),
(419,1988,o),
(470,1988,cs),
(531,1988,o),
(542,1954,o),
(544,1924,cs),
(627,350,ls),
(630,299,o),
(633,299,o),
(658,350,cs),
(1429,1919,ls),
(1453,1968,o),
(1473,1988,o),
(1527,1988,cs),
(1570,1988,o),
(1598,1960,o),
(1570,1903,cs),
(672,92,ls),
(650,48,o),
(636,20,o),
(582,20,cs)
);
}
);
vertWidth = 0;
width = 1206;
},
{
.lastUpdate = 730920380.938;
layerId = "6449507E-FEE0-4D4A-A81F-7CAB6A5803D5";
shapes = (
{
closed = 1;
nodes = (
(713,-20,o),
(754,36,o),
(790,108,cs),
(1623,1786,ls),
(1701,1944,o),
(1591,2028,o),
(1477,2028,cs),
(1377,2028,o),
(1332,1987,o),
(1288,1897,cs),
(743,789,l),
(688,1861,ls),
(684,1932,o),
(652,2028,o),
(507,2028,cs),
(380,2028,o),
(330,1951,o),
(336,1843,cs),
(430,147,ls),
(434,79,o),
(480,-20,o),
(606,-20,cs)
);
},
{
closed = 1;
nodes = (
(507,20,o),
(473,91,o),
(470,149,cs),
(376,1845,ls),
(371,1938,o),
(404,1988,o),
(507,1988,cs),
(623,1988,o),
(645,1921,o),
(648,1859,cs),
(705,755,ls),
(710,652,o),
(720,652,o),
(771,755,cs),
(1324,1879,ls),
(1364,1961,o),
(1393,1988,o),
(1477,1988,cs),
(1570,1988,o),
(1651,1933,o),
(1587,1804,cs),
(754,126,ls),
(721,59,o),
(692,20,o),
(606,20,cs)
);
}
);
vertWidth = 0;
width = 1278;
}
);
metricLeft = V;
metricWidth = V;
changeCount = 1;
},
{
color = 5;
glyphname = W.ss02;
lastChange = "2024-02-29 17:26:20 +0000";
layers = (
{
.lastUpdate = 730920380.64;
layerId = m01;
shapes = (
{
closed = 1;
nodes = (
(582,0,o),
(609,32,o),
(642,83,cs),
(1116,814,l),
(1354,93,ls),
(1373,36,o),
(1380,0,o),
(1440,0,cs),
(1488,0,o),
(1527,28,o),
(1553,84,cs),
(2388,1895,ls),
(2416,1955,o),
(2382,2008,o),
(2317,2008,cs),
(2271,2008,o),
(2232,1976,o),
(2209,1927,cs),
(1471,327,l),
(1245,1010,ls),
(1231,1051,o),
(1216,1092,o),
(1157,1092,cs),
(1105,1092,o),
(1074,1053,o),
(1047,1012,cs),
(596,316,l),
(562,1923,ls),
(561,1972,o),
(526,2008,o),
(474,2008,cs),
(423,2008,o),
(385,1972,o),
(386,1917,cs),
(424,96,ls),
(425,34,o),
(451,0,o),
(509,0,cs)
);
},
{
closed = 1;
nodes = (
(462,20,o),
(445,42,o),
(444,96,cs),
(406,1917,ls),
(405,1963,o),
(432,1988,o),
(474,1988,cs),
(517,1988,o),
(541,1963,o),
(542,1923,cs),
(576,299,ls),
(577,257,o),
(580,257,o),
(607,298,cs),
(1063,1002,ls),
(1088,1041,o),
(1115,1072,o),
(1157,1072,cs),
(1202,1072,o),
(1212,1045,o),
(1225,1004,cs),
(1454,310,ls),
(1466,273,o),
(1468,273,o),
(1485,309,cs),
(2227,1919,ls),
(2247,1963,o),
(2279,1988,o),
(2317,1988,cs),
(2368,1988,o),
(2392,1951,o),
(2370,1903,cs),
(1535,92,ls),
(1512,42,o),
(1481,20,o),
(1440,20,cs),
(1396,20,o),
(1393,42,o),
(1374,99,cs),
(1134,827,ls),
(1124,858,o),
(1122,858,o),
(1101,826,cs),
(626,93,ls),
(594,44,o),
(573,20,o),
(509,20,cs)
);
}
);
vertWidth = 0;
width = 2002;
},
{
.lastUpdate = 730920380.938;
layerId = "6449507E-FEE0-4D4A-A81F-7CAB6A5803D5";
shapes = (
{
closed = 1;
nodes = (
(617,-20,o),
(672,16,o),
(731,110,cs),
(1076,655,l),
(1230,179,ls),
(1267,63,o),
(1295,0,o),
(1407,0,cs),
(1482,0,o),
(1550,36,o),
(1594,132,cs),
(2350,1769,ls),
(2408,1895,o),
(2330,2008,o),
(2199,2008,cs),
(2121,2008,o),
(2053,1965,o),
(2012,1876,cs),
(1494,756,l),
(1358,1175,ls),
(1329,1265,o),
(1304,1343,o),
(1186,1343,cs),
(1101,1343,o),
(1045,1289,o),
(997,1213,cs),
(709,756,l),
(685,1835,ls),
(683,1937,o),
(611,2008,o),
(506,2008,cs),
(408,2008,o),
(331,1943,o),
(333,1832,cs),
(369,161,ls),
(372,32,o),
(434,-20,o),
(542,-20,cs)
);
},
{
closed = 1;
nodes = (
(451,20,o),
(411,54,o),
(409,161,cs),
(373,1832,ls),
(371,1922,o),
(425,1968,o),
(506,1968,cs),
(592,1968,o),
(643,1917,o),
(645,1835,cs),
(669,724,ls),
(671,630,o),
(674,630,o),
(732,721,cs),
(1031,1193,ls),
(1075,1263,o),
(1118,1303,o),
(1186,1303,cs),
(1277,1303,o),
(1292,1252,o),
(1320,1165,cs),
(1463,725,ls),
(1487,650,o),
(1489,650,o),
(1524,726,cs),
(2048,1860,ls),
(2083,1935,o),
(2135,1968,o),
(2199,1968,cs),
(2305,1968,o),
(2361,1887,o),
(2314,1785,cs),
(1558,148,ls),
(1521,67,o),
(1470,40,o),
(1407,40,cs),
(1319,40,o),
(1303,80,o),
(1268,189,cs),
(1109,679,ls),
(1088,744,o),
(1085,744,o),
(1045,681,cs),
(697,130,ls),
(643,45,o),
(604,20,o),
(542,20,cs)
);
}
);
vertWidth = 0;
width = 2003;
}
);
metricLeft = W;
metricWidth = W;
changeCount = 1;
},
{
color = 5;
glyphname = X.ss02;
lastChange = "2024-02-29 17:26:20 +0000";
layers = (
{
.lastUpdate = 730920380.64;
layerId = m01;
shapes = (
{
closed = 1;
nodes = (
(-22,-10,o),
(40,-10,o),
(83,41,cs),
(747,833,l),
(1011,70,ls),
(1035,2,o),
(1097,-13,o),
(1145,9,cs),
(1178,27,o),
(1196,69,o),
(1178,120,cs),
(887,967,l),
(1647,1864,ls),
(1691,1916,o),
(1676,1965,o),
(1645,1990,cs),
(1611,2017,o),
(1551,2017,o),
(1508,1965,cs),
(824,1153,l),
(552,1943,ls),
(530,2006,o),
(464,2019,o),
(421,2003,cs),
(377,1986,o),
(367,1942,o),
(388,1882,cs),
(684,1020,l),
(-63,134,ls),
(-96,94,o),
(-89,46,o),
(-58,21,cs)
);
},
{
closed = 1;
nodes = (
(-69,55,o),
(-75,89,o),
(-47,122,cs),
(706,1016,l),
(406,1888,ls),
(387,1942,o),
(395,1973,o),
(429,1985,cs),
(463,2000,o),
(516,1988,o),
(534,1937,cs),
(807,1139,ls),
(815,1115,o),
(818,1115,o),
(838,1139,cs),
(1524,1953,ls),
(1560,1996,o),
(1606,1996,o),
(1633,1974,cs),
(1657,1954,o),
(1668,1921,o),
(1631,1878,cs),
(865,971,l),
(1160,114,ls),
(1175,71,o),
(1161,41,o),
(1135,27,cs),
(1097,9,o),
(1048,20,o),
(1029,76,cs),
(763,850,ls),
(756,871,o),
(753,871,o),
(735,849,cs),
(67,53,ls),
(31,11,o),
(-15,11,o),
(-46,37,cs)
);
}
);
vertWidth = 0;
width = 1385;
},
{
.lastUpdate = 730920380.938;
layerId = "6449507E-FEE0-4D4A-A81F-7CAB6A5803D5";
shapes = (
{
closed = 1;
nodes = (
(161,-37,o),
(269,-47,o),
(353,52,cs),
(866,658,l),
(1053,110,ls),
(1097,-18,o),
(1224,-38,o),
(1306,-2,cs),
(1370,29,o),
(1424,109,o),
(1387,218,cs),
(1141,937,l),
(1823,1740,ls),
(1919,1854,o),
(1864,1947,o),
(1807,1990,cs),
(1749,2039,o),
(1630,2052,o),
(1546,1953,cs),
(1010,1320,l),
(810,1903,ls),
(766,2030,o),
(634,2047,o),
(560,2019,cs),
(491,1992,o),
(429,1930,o),
(478,1788,cs),
(734,1041,l),
(71,260,ls),
(-7,169,o),
(31,70,o),
(94,19,cs)
);
},
{
closed = 1;
nodes = (
(67,93,o),
(40,163,o),
(101,234,cs),
(780,1033,l),
(516,1802,ls),
(477,1916,o),
(515,1959,o),
(574,1981,cs),
(637,2005,o),
(737,1991,o),
(772,1889,cs),
(972,1304,ls),
(993,1243,o),
(996,1243,o),
(1044,1299,cs),
(1576,1927,ls),
(1645,2008,o),
(1734,1997,o),
(1783,1958,cs),
(1831,1920,o),
(1870,1857,o),
(1793,1766,cs),
(1095,945,l),
(1349,204,ls),
(1379,117,o),
(1343,58,o),
(1290,34,cs),
(1221,3,o),
(1127,20,o),
(1091,124,cs),
(899,683,ls),
(881,735,o),
(877,735,o),
(835,685,cs),
(323,78,ls),
(254,-4,o),
(175,3,o),
(120,49,cs)
);
}
);
vertWidth = 0;
width = 1600;
}
);
metricLeft = X;
metricWidth = X;
changeCount = 1;
},
{
color = 5;
glyphname = Y.ss02;
lastChange = "2024-02-29 17:26:20 +0000";
layers = (
{
.lastUpdate = 730920380.641;
layerId = m01;
shapes = (
{
closed = 1;
nodes = (
(310,-10,o),
(369,-13,o),
(404,40,cs),
(1598,1866,ls),
(1630,1915,o),
(1618,1967,o),
(1585,1990,cs),
(1546,2020,o),
(1480,2008,o),
(1446,1956,cs),
(930,1168,l),
(559,1941,ls),
(529,2003,o),
(474,2016,o),
(433,2000,cs),
(390,1984,o),
(370,1939,o),
(399,1878,cs),
(818,996,l),
(255,133,ls),
(229,93,o),
(235,45,o),
(270,21,cs)
);
},
{
closed = 1;
nodes = (
(254,56,o),
(250,90,o),
(271,123,cs),
(840,994,l),
(417,1886,ls),
(392,1938,o),
(405,1970,o),
(441,1982,cs),
(474,1996,o),
(516,1985,o),
(541,1933,cs),
(915,1155,ls),
(927,1131,o),
(929,1131,o),
(946,1156,cs),
(1462,1946,ls),
(1490,1989,o),
(1542,1997,o),
(1573,1974,cs),
(1599,1956,o),
(1609,1917,o),
(1582,1876,cs),
(388,50,ls),
(360,7,o),
(316,11,o),
(282,37,cs)
);
}
);
vertWidth = 0;
width = 1243;
},
{
layerId = "6449507E-FEE0-4D4A-A81F-7CAB6A5803D5";
shapes = (
{
closed = 1;
nodes = (
(544,-39,o),
(663,-46,o),
(730,57,cs),
(1832,1750,ls),
(1901,1856,o),
(1859,1947,o),
(1801,1993,cs),
(1728,2046,o),
(1600,2041,o),
(1533,1938,cs),
(1111,1291,l),
(809,1913,ls),
(750,2034,o),
(640,2048,o),
(562,2019,cs),
(497,1995,o),
(416,1922,o),
(484,1778,cs),
(881,939,l),
(430,248,ls),
(372,159,o),
(402,70,o),
(469,18,cs)
);
},
{
closed = 1;
nodes = (
(438,93,o),
(418,155,o),
(464,226,cs),
(927,935,l),
(520,1796,ls),
(466,1910,o),
(521,1961,o),
(576,1981,cs),
(642,2007,o),
(724,1996,o),
(773,1895,cs),
(1081,1258,ls),
(1104,1211,o),
(1107,1211,o),
(1138,1259,cs),
(1567,1916,ls),
(1621,1999,o),
(1717,2004,o),
(1777,1961,c),
(1825,1922,o),
(1854,1857,o),
(1798,1772,cs),
(696,79,ls),
(643,-2,o),
(556,2,o),
(493,50,cs)
);
}
);
vertWidth = 0;
width = 1502;
}
);
metricLeft = Y;
metricWidth = Y;
changeCount = 1;
},
{
color = 5;
glyphname = Z.ss02;
lastChange = "2024-02-29 17:26:20 +0000";
layers = (
{
.lastUpdate = 730920380.641;
layerId = m01;
shapes = (
{
closed = 1;
nodes = (
(1237,1,ls),
(1306,1,o),
(1327,41,o),
(1327,81,cs),
(1327,124,o),
(1306,164,o),
(1237,164,cs),
(249,164,l),
(1655,1865,ls),
(1697,1915,o),
(1687,1966,o),
(1661,1988,cs),
(1644,2002,o),
(1626,2008,o),
(1595,2008,cs),
(521,2008,ls),
(451,2008,o),
(430,1968,o),
(430,1928,cs),
(430,1887,o),
(451,1848,o),
(521,1848,cs),
(1417,1848,l),
(1,134,ls),
(-25,102,o),
(-28,58,o),
(-7,31,cs),
(5,15,o),
(40,1,o),
(76,1,cs)
);
},
{
closed = 1;
nodes = (
(45,21,o),
(17,32,o),
(9,43,cs),
(-7,63,o),
(-5,95,o),
(17,122,cs),
(1436,1840,ls),
(1458,1866,o),
(1458,1868,o),
(1421,1868,cs),
(521,1868,ls),
(464,1868,o),
(450,1894,o),
(450,1928,cs),
(450,1962,o),
(464,1988,o),
(521,1988,cs),
(1595,1988,ls),
(1622,1988,o),
(1634,1984,o),
(1649,1972,cs),
(1667,1957,o),
(1675,1920,o),
(1639,1877,cs),
(227,168,ls),
(208,145,o),
(209,144,o),
(238,144,cs),
(1237,144,ls),
(1293,144,o),
(1307,118,o),
(1307,81,cs),
(1307,47,o),
(1293,21,o),
(1237,21,cs),
(76,21,ls)
);
}
);
vertWidth = 0;
width = 1502;
},
{
.lastUpdate = 730920380.939;
layerId = "6449507E-FEE0-4D4A-A81F-7CAB6A5803D5";
shapes = (
{
closed = 1;
nodes = (
(1253,-20,ls),
(1399,-20,o),
(1432,72,o),
(1432,151,cs),
(1432,230,o),
(1399,319,o),
(1253,319,cs),
(549,319,l),
(1724,1740,ls),
(1820,1856,o),
(1762,1946,o),
(1720,1987,cs),
(1684,2019,o),
(1650,2028,o),
(1597,2028,cs),
(611,2028,ls),
(465,2028,o),
(435,1939,o),
(435,1857,cs),
(435,1781,o),
(466,1689,o),
(611,1689,cs),
(1229,1689,l),
(47,260,ls),
(-9,192,o),
(-3,98,o),
(36,43,c),
(56,19,o),
(114,-20,o),
(187,-20,cs)
);
},
{
closed = 1;
nodes = (
(129,20,o),
(85,48,o),
(68,67,c),
(38,112,o),
(33,181,o),
(77,234,cs),
(1270,1675,ls),
(1313,1727,o),
(1311,1729,o),
(1238,1729,cs),
(611,1729,ls),
(495,1729,o),
(475,1790,o),
(475,1857,cs),
(475,1930,o),
(495,1988,o),
(611,1988,cs),
(1597,1988,ls),
(1643,1988,o),
(1665,1982,o),
(1692,1957,cs),
(1729,1922,o),
(1770,1858,o),
(1694,1766,cs),
(500,324,ls),
(464,281,o),
(464,279,o),
(529,279,cs),
(1253,279,ls),
(1369,279,o),
(1392,220,o),
(1392,151,cs),
(1392,82,o),
(1369,20,o),
(1253,20,cs),
(187,20,ls)
);
}
);
vertWidth = 0;
width = 1597;
}
);
metricLeft = Z;
metricWidth = Z;
changeCount = 1;
},
{
color = 5;
glyphname = A.ss04;
lastChange = "2024-02-29 17:26:20 +0000";
layers = (
{
.lastUpdate = 730920380.651;
layerId = m01;
shapes = (
{
closed = 1;
nodes = (
(79,0,o),
(97,20,o),
(131,75,cs),
(700,999,l),
(1116,999,l),
(1124,75,ls),
(1124,42,o),
(1132,0,o),
(1206,0,cs),
(1270,0,o),
(1295,35,o),
(1294,85,cs),
(1271,1936,ls),
(1271,1973,o),
(1237,2008,o),
(1188,2008,cs),
(1121,2008,o),
(1105,1972,o),
(1081,1933,cs),
(-41,116,ls),
(-81,51,o),
(-43,0,o),
(11,0,cs)
);
},
{
closed = 1;
nodes = (
(-31,20,o),
(-57,54,o),
(-25,106,cs),
(1097,1923,ls),
(1122,1963,o),
(1134,1988,o),
(1188,1988,cs),
(1228,1988,o),
(1251,1963,o),
(1251,1936,cs),
(1274,85,ls),
(1275,42,o),
(1259,20,o),
(1206,20,cs),
(1149,20,o),
(1144,45,o),
(1144,75,cs),
(1136,1019,l),
(688,1019,l),
(115,85,ls),
(82,31,o),
(70,20,o),
(11,20,cs)
);
},
{
closed = 1;
nodes = (
(1106,1651,l),
(1114,1160,l),
(799,1160,l)
);
},
{
closed = 1;
nodes = (
(1134,1140,l),
(1127,1676,ls),
(1126,1718,o),
(1124,1717,o),
(1098,1676,cs),
(763,1140,l)
);
},
{
closed = 1;
nodes = (
(1202,1881,o),
(1218,1898,o),
(1218,1919,cs),
(1218,1940,o),
(1202,1956,o),
(1181,1956,cs),
(1160,1956,o),
(1143,1940,o),
(1143,1919,cs),
(1143,1898,o),
(1160,1881,o),
(1181,1881,cs)
);
}
);
vertWidth = 0;
width = 1454;
},
{
layerId = "6449507E-FEE0-4D4A-A81F-7CAB6A5803D5";
shapes = (
{
closed = 1;
nodes = (
(228,-20,o),
(262,3,o),
(318,94,cs),
(720,746,l),
(1050,746,l),
(1056,143,ls),
(1057,79,o),
(1069,-20,o),
(1232,-20,cs),
(1360,-20,o),
(1407,51,o),
(1406,151,cs),
(1385,1870,ls),
(1384,1942,o),
(1326,2028,o),
(1214,2028,cs),
(1107,2028,o),
(1074,1981,o),
(1033,1915,cs),
(-2,234,ls),
(-104,68,o),
(15,-20,o),
(130,-20,cs)
);
},
{
closed = 1;
nodes = (
(39,20,o),
(-53,76,o),
(32,214,cs),
(1067,1893,ls),
(1108,1959,o),
(1129,1988,o),
(1214,1988,cs),
(1303,1988,o),
(1344,1927,o),
(1345,1870,cs),
(1366,151,ls),
(1367,66,o),
(1336,20,o),
(1232,20,cs),
(1104,20,o),
(1097,82,o),
(1096,143,cs),
(1089,786,l),
(698,786,l),
(284,114,ls),
(234,32,o),
(215,20,o),
(130,20,cs)
);
},
{
closed = 1;
nodes = (
(1045,1272,l),
(1047,1082,l),
(927,1082,l)
);
},
{
closed = 1;
nodes = (
(1087,1042,l),
(1084,1314,ls),
(1083,1410,o),
(1081,1409,o),
(1023,1315,cs),
(855,1042,l)
);
},
{
closed = 1;
nodes = (
(1241,1803,o),
(1268,1830,o),
(1268,1863,cs),
(1268,1896,o),
(1241,1923,o),
(1208,1923,cs),
(1175,1923,o),
(1148,1896,o),
(1148,1863,cs),
(1148,1830,o),
(1175,1803,o),
(1208,1803,cs)
);
}
);
vertWidth = 0;
width = 1531;
}
);
metricLeft = A.ss02;
metricWidth = A;
changeCount = 1;
},
{
color = 5;
glyphname = B.ss04;
lastChange = "2024-02-29 17:26:20 +0000";
layers = (
{
.lastUpdate = 730920380.652;
layerId = m01;
shapes = (
{
closed = 1;
nodes = (
(806,2,o),
(1175,141,o),
(1251,443,cs),
(1324,737,o),
(1170,955,o),
(844,1061,c),
(1130,1097,o),
(1301,1208,o),
(1350,1413,cs),
(1439,1792,o),
(1163,2011,o),
(621,2008,cs),
(565,2008,o),
(530,1988,o),
(515,1926,cs),
(63,113,ls),
(49,56,o),
(81,0,o),
(140,0,cs)
);
},
{
closed = 1;
nodes = (
(94,20,o),
(71,61,o),
(83,109,cs),
(534,1920,ls),
(547,1974,o),
(572,1988,o),
(621,1988,cs),
(1153,1991,o),
(1417,1783,o),
(1330,1417,cs),
(1282,1214,o),
(1110,1108,o),
(812,1078,cs),
(753,1072,o),
(757,1068,o),
(812,1051,cs),
(1148,950,o),
(1303,740,o),
(1231,447,cs),
(1159,157,o),
(801,22,o),
(140,20,cs)
);
},
{
closed = 1;
nodes = (
(464,1001,l),
(923,960,o),
(1152,764,o),
(1083,481,cs),
(1029,261,o),
(755,159,o),
(253,155,c)
);
},
{
closed = 1;
nodes = (
(750,135,o),
(1045,242,o),
(1103,477,cs),
(1176,775,o),
(928,984,o),
(448,1023,c),
(227,135,l)
);
},
{
closed = 1;
nodes = (
(675,1850,l),
(1058,1843,o),
(1244,1695,o),
(1179,1433,cs),
(1133,1237,o),
(910,1154,o),
(507,1175,c)
);
},
{
closed = 1;
nodes = (
(905,1130,o),
(1149,1217,o),
(1199,1429,cs),
(1268,1706,o),
(1063,1867,o),
(659,1870,c),
(481,1157,l)
);
},
{
closed = 1;
nodes = (
(629,1881,o),
(645,1898,o),
(645,1919,cs),
(645,1940,o),
(629,1956,o),
(608,1956,cs),
(587,1956,o),
(570,1940,o),
(570,1919,cs),
(570,1898,o),
(587,1881,o),
(608,1881,cs)
);
}
);
vertWidth = 0;
width = 1350;
},
{
.lastUpdate = 730920380.94;
layerId = "6449507E-FEE0-4D4A-A81F-7CAB6A5803D5";
shapes = (
{
closed = 1;
nodes = (
(910,-20,o),
(1266,163,o),
(1343,468,cs),
(1407,723,o),
(1326,905,o),
(1095,1020,c),
(1285,1079,o),
(1394,1190,o),
(1434,1355,cs),
(1528,1751,o),
(1285,2028,o),
(682,2028,cs),
(579,2028,o),
(516,1999,o),
(486,1880,cs),
(68,203,ls),
(37,80,o),
(113,-20,o),
(225,-20,cs)
);
},
{
closed = 1;
nodes = (
(136,20,o),
(81,92,o),
(106,193,cs),
(524,1870,ls),
(549,1969,o),
(591,1988,o),
(682,1988,cs),
(1263,1988,o),
(1484,1738,o),
(1396,1365,cs),
(1357,1205,o),
(1252,1105,o),
(1058,1051,cs),
(986,1031,o),
(986,1027,o),
(1058,994,cs),
(1289,887,o),
(1366,724,o),
(1305,478,cs),
(1232,193,o),
(898,20,o),
(225,20,cs)
);
},
{
closed = 1;
nodes = (
(602,893,l),
(871,851,o),
(1052,745,o),
(1006,549,cs),
(967,395,o),
(761,332,o),
(455,317,c)
);
},
{
closed = 1;
nodes = (
(744,285,o),
(998,352,o),
(1044,539,cs),
(1101,776,o),
(869,899,o),
(572,937,c),
(403,275,l)
);
},
{
closed = 1;
nodes = (
(801,1686,l),
(1005,1665,o),
(1133,1585,o),
(1092,1420,cs),
(1059,1291,o),
(910,1227,o),
(683,1216,c)
);
},
{
closed = 1;
nodes = (
(897,1177,o),
(1090,1249,o),
(1130,1410,cs),
(1182,1616,o),
(1004,1713,o),
(771,1728,c),
(631,1174,l)
);
},
{
closed = 1;
nodes = (
(686,1803,o),
(713,1830,o),
(713,1863,cs),
(713,1896,o),
(686,1923,o),
(653,1923,cs),
(620,1923,o),
(593,1896,o),
(593,1863,cs),
(593,1830,o),
(620,1803,o),
(653,1803,cs)
);
}
);
vertWidth = 0;
width = 1419;
}
);
metricLeft = B.ss02;
metricWidth = B;
changeCount = 1;
},
{
color = 5;
glyphname = C.ss04;
lastChange = "2024-02-29 17:26:20 +0000";
layers = (
{
.lastUpdate = 730920380.653;
layerId = m01;
shapes = (
{
closed = 1;
nodes = (
(828,-20,o),
(1049,149,o),
(1240,437,cs),
(1306,542,o),
(1318,580,o),
(1318,600,cs),
(1320,643,o),
(1286,665,o),
(1249,668,cs),
(1190,674,o),
(1167,624,o),
(1115,546,cs),
(944,288,o),
(776,143,o),
(645,143,cs),
(438,143,o),
(345,412,o),
(397,850,cs),
(472,1474,o),
(718,1868,o),
(1061,1868,cs),
(1171,1868,o),
(1249,1787,o),
(1296,1661,cs),
(1316,1613,o),
(1363,1589,o),
(1412,1607,cs),
(1459,1621,o),
(1477,1658,o),
(1466,1702,cs),
(1413,1903,o),
(1282,2028,o),
(1079,2028,cs),
(631,2028,o),
(303,1560,o),
(213,823,cs),
(156,312,o),
(314,-20,o),
(642,-20,cs)
);
},
{
closed = 1;
nodes = (
(328,0,o),
(176,317,o),
(233,821,cs),
(322,1551,o),
(642,2008,o),
(1079,2008,cs),
(1273,2008,o),
(1395,1892,o),
(1446,1696,cs),
(1455,1661,o),
(1444,1637,o),
(1406,1625,cs),
(1366,1611,o),
(1331,1628,o),
(1314,1669,cs),
(1266,1798,o),
(1180,1888,o),
(1061,1888,cs),
(705,1888,o),
(452,1482,o),
(377,852,cs),
(325,408,o),
(423,123,o),
(645,123,cs),
(785,123,o),
(956,276,o),
(1131,536,cs),
(1182,616,o),
(1202,652,o),
(1247,648,cs),
(1279,645,o),
(1300,632,o),
(1298,600,cs),
(1298,583,o),
(1290,548,o),
(1224,447,cs),
(1037,161,o),
(821,0,o),
(642,0,cs)
);
},
{
closed = 1;
nodes = (
(1401,1651,o),
(1417,1668,o),
(1417,1689,cs),
(1417,1710,o),
(1401,1726,o),
(1380,1726,cs),
(1359,1726,o),
(1342,1710,o),
(1342,1689,cs),
(1342,1668,o),
(1359,1651,o),
(1380,1651,cs)
);
}
);
vertWidth = 0;
width = 1288;
},
{
.lastUpdate = 730920380.94;
layerId = "6449507E-FEE0-4D4A-A81F-7CAB6A5803D5";
shapes = (
{
closed = 1;
nodes = (
(878,-20,o),
(1116,139,o),
(1314,446,cs),
(1397,573,o),
(1403,620,o),
(1403,644,cs),
(1403,716,o),
(1346,796,o),
(1248,802,cs),
(1173,808,o),
(1123,775,o),
(1038,645,cs),
(909,448,o),
(786,319,o),
(688,319,cs),
(541,319,o),
(529,595,o),
(560,851,cs),
(615,1341,o),
(790,1689,o),
(1071,1689,cs),
(1130,1689,o),
(1168,1632,o),
(1195,1562,cs),
(1233,1463,o),
(1326,1425,o),
(1422,1454,cs),
(1515,1483,o),
(1558,1556,o),
(1534,1655,cs),
(1478,1887,o),
(1322,2028,o),
(1086,2028,cs),
(642,2028,o),
(289,1603,o),
(197,850,cs),
(131,272,o),
(347,-20,o),
(686,-20,cs)
);
},
{
closed = 1;
nodes = (
(370,20,o),
(173,286,o),
(237,846,cs),
(327,1584,o),
(664,1988,o),
(1086,1988,cs),
(1304,1988,o),
(1443,1863,o),
(1496,1645,cs),
(1515,1564,o),
(1485,1515,o),
(1410,1492,cs),
(1331,1467,o),
(1264,1495,o),
(1233,1576,cs),
(1203,1652,o),
(1153,1729,o),
(1071,1729,cs),
(762,1729,o),
(576,1355,o),
(520,855,cs),
(489,594,o),
(500,279,o),
(688,279,cs),
(806,279,o),
(941,423,o),
(1072,623,cs),
(1150,744,o),
(1185,767,o),
(1246,762,cs),
(1322,758,o),
(1363,701,o),
(1363,644,cs),
(1363,624,o),
(1358,586,o),
(1280,468,cs),
(1087,169,o),
(864,20,o),
(686,20,cs)
);
},
{
closed = 1;
nodes = (
(1404,1552,o),
(1431,1579,o),
(1431,1612,cs),
(1431,1645,o),
(1404,1672,o),
(1371,1672,cs),
(1338,1672,o),
(1311,1645,o),
(1311,1612,cs),
(1311,1579,o),
(1338,1552,o),
(1371,1552,cs)
);
}
);
vertWidth = 0;
width = 1375;
}
);
metricLeft = C.ss02;
metricWidth = C;
changeCount = 1;
},
{
color = 5;
glyphname = D.ss04;
lastChange = "2024-02-29 17:26:20 +0000";
layers = (
{
.lastUpdate = 730920380.654;
layerId = m01;
shapes = (
{
closed = 1;
nodes = (
(344,0,ls),
(981,0,o),
(1393,400,o),
(1560,1197,cs),
(1663,1687,o),
(1431,2008,o),
(951,2008,cs),
(623,2008,ls),
(550,2008,o),
(531,1977,o),
(519,1927,cs),
(63,98,ls),
(51,50,o),
(76,0,o),
(138,0,cs)
);
},
{
closed = 1;
nodes = (
(90,20,o),
(73,54,o),
(83,94,cs),
(539,1923,ls),
(550,1968,o),
(562,1988,o),
(623,1988,cs),
(951,1988,ls),
(1419,1988,o),
(1641,1681,o),
(1540,1201,cs),
(1375,411,o),
(972,20,o),
(344,20,cs),
(138,20,ls)
);
},
{
closed = 1;
nodes = (
(678,1848,l),
(930,1848,ls),
(1292,1848,o),
(1469,1605,o),
(1379,1188,cs),
(1237,510,o),
(894,160,o),
(354,160,cs),
(257,160,l)
);
},
{
closed = 1;
nodes = (
(354,140,ls),
(903,140,o),
(1255,499,o),
(1399,1184,cs),
(1491,1611,o),
(1304,1868,o),
(930,1868,cs),
(662,1868,l),
(231,140,l)
);
},
{
closed = 1;
nodes = (
(632,1881,o),
(648,1898,o),
(648,1919,cs),
(648,1940,o),
(632,1956,o),
(611,1956,cs),
(590,1956,o),
(573,1940,o),
(573,1919,cs),
(573,1898,o),
(590,1881,o),
(611,1881,cs)
);
}
);
vertWidth = 0;
width = 1468;
},
{
.lastUpdate = 730920380.941;
layerId = "6449507E-FEE0-4D4A-A81F-7CAB6A5803D5";
shapes = (
{
closed = 1;
nodes = (
(414,-20,ls),
(1043,-20,o),
(1462,369,o),
(1628,1161,cs),
(1739,1686,o),
(1488,2028,o),
(983,2028,cs),
(684,2028,ls),
(549,2028,o),
(516,1970,o),
(494,1883,cs),
(67,190,ls),
(41,87,o),
(95,-20,o),
(229,-20,cs)
);
},
{
closed = 1;
nodes = (
(122,20,o),
(84,95,o),
(105,180,cs),
(532,1873,ls),
(553,1952,o),
(573,1988,o),
(684,1988,cs),
(983,1988,ls),
(1465,1988,o),
(1696,1673,o),
(1588,1169,cs),
(1426,392,o),
(1025,20,o),
(414,20,cs),
(229,20,ls)
);
},
{
closed = 1;
nodes = (
(807,1689,l),
(965,1689,ls),
(1234,1689,o),
(1340,1493,o),
(1276,1193,cs),
(1154,635,o),
(886,320,o),
(442,320,cs),
(465,320,l)
);
},
{
closed = 1;
nodes = (
(442,280,ls),
(906,280,o),
(1190,615,o),
(1316,1185,cs),
(1383,1503,o),
(1260,1729,o),
(965,1729,cs),
(775,1729,l),
(413,280,l)
);
},
{
closed = 1;
nodes = (
(689,1803,o),
(716,1830,o),
(716,1863,cs),
(716,1896,o),
(689,1923,o),
(656,1923,cs),
(623,1923,o),
(596,1896,o),
(596,1863,cs),
(596,1830,o),
(623,1803,o),
(656,1803,cs)
);
}
);
vertWidth = 0;
width = 1536;
}
);
metricLeft = D.ss02;
metricWidth = D;
changeCount = 1;
},
{
color = 5;
glyphname = E.ss04;
lastChange = "2024-02-29 17:26:20 +0000";
layers = (
{
.lastUpdate = 730920380.654;
layerId = m01;
shapes = (
{
closed = 1;
nodes = (
(1056,0,ls),
(1110,0,o),
(1147,36,o),
(1147,88,cs),
(1147,130,o),
(1110,158,o),
(1056,158,cs),
(257,158,l),
(466,998,l),
(1008,998,ls),
(1063,998,o),
(1099,1031,o),
(1099,1078,cs),
(1099,1128,o),
(1063,1156,o),
(1008,1156,cs),
(505,1156,l),
(678,1850,l),
(1451,1850,ls),
(1505,1850,o),
(1541,1880,o),
(1541,1930,cs),
(1541,1981,o),
(1505,2008,o),
(1451,2008,cs),
(626,2008,ls),
(555,2008,o),
(531,1978,o),
(518,1925,cs),
(63,100,ls),
(51,51,o),
(75,0,o),
(138,0,cs)
);
},
{
closed = 1;
nodes = (
(89,20,o),
(73,55,o),
(83,96,cs),
(538,1921,ls),
(549,1967,o),
(566,1988,o),
(626,1988,cs),
(1451,1988,ls),
(1497,1988,o),
(1521,1970,o),
(1521,1930,cs),
(1521,1891,o),
(1496,1870,o),
(1451,1870,cs),
(662,1870,l),
(479,1136,l),
(1008,1136,ls),
(1055,1136,o),
(1079,1117,o),
(1079,1078,cs),
(1079,1041,o),
(1054,1018,o),
(1008,1018,cs),
(450,1018,l),
(231,138,l),
(1056,138,ls),
(1102,138,o),
(1127,119,o),
(1127,88,cs),
(1127,45,o),
(1101,20,o),
(1056,20,cs),
(138,20,ls)
);
},
{
closed = 1;
nodes = (
(632,1881,o),
(648,1898,o),
(648,1919,cs),
(648,1940,o),
(632,1956,o),
(611,1956,cs),
(590,1956,o),
(573,1940,o),
(573,1919,cs),
(573,1898,o),
(590,1881,o),
(611,1881,cs)
);
}
);
vertWidth = 0;
width = 1229;
},
{
layerId = "6449507E-FEE0-4D4A-A81F-7CAB6A5803D5";
shapes = (
{
closed = 1;
nodes = (
(1071,-20,ls),
(1180,-20,o),
(1249,55,o),
(1249,153,cs),
(1249,238,o),
(1198,317,o),
(1071,317,cs),
(464,317,l),
(609,906,l),
(1029,906,ls),
(1145,906,o),
(1208,981,o),
(1208,1075,cs),
(1208,1170,o),
(1148,1243,o),
(1029,1243,cs),
(692,1243,l),
(801,1691,l),
(1433,1691,ls),
(1551,1691,o),
(1611,1766,o),
(1611,1860,cs),
(1611,1956,o),
(1554,2028,o),
(1433,2028,cs),
(681,2028,ls),
(555,2028,o),
(511,1970,o),
(488,1878,cs),
(68,192,ls),
(40,80,o),
(102,-20,o),
(230,-20,cs)
);
},
{
closed = 1;
nodes = (
(127,20,o),
(83,89,o),
(106,182,cs),
(526,1868,ls),
(546,1950,o),
(577,1988,o),
(681,1988,cs),
(1433,1988,ls),
(1532,1988,o),
(1571,1939,o),
(1571,1860,cs),
(1571,1783,o),
(1529,1731,o),
(1433,1731,cs),
(769,1731,l),
(640,1203,l),
(1029,1203,ls),
(1127,1203,o),
(1168,1153,o),
(1168,1075,cs),
(1168,998,o),
(1124,946,o),
(1029,946,cs),
(577,946,l),
(412,277,l),
(1071,277,ls),
(1174,277,o),
(1209,223,o),
(1209,153,cs),
(1209,73,o),
(1160,20,o),
(1071,20,cs),
(230,20,ls)
);
},
{
closed = 1;
nodes = (
(689,1803,o),
(716,1830,o),
(716,1863,cs),
(716,1896,o),
(689,1923,o),
(656,1923,cs),
(623,1923,o),
(596,1896,o),
(596,1863,cs),
(596,1830,o),
(623,1803,o),
(656,1803,cs)
);
}
);
vertWidth = 0;
width = 1341;
}
);
metricLeft = E.ss02;
metricWidth = E;
changeCount = 1;
},
{
color = 5;
glyphname = F.ss04;
lastChange = "2024-02-29 17:26:20 +0000";
layers = (
{
.lastUpdate = 730920380.655;
layerId = m01;
shapes = (
{
closed = 1;
nodes = (
(212,0,o),
(232,55,o),
(240,88,cs),
(467,997,l),
(1010,997,ls),
(1064,997,o),
(1101,1030,o),
(1101,1080,cs),
(1101,1127,o),
(1064,1157,o),
(1010,1157,cs),
(506,1157,l),
(679,1850,l),
(1452,1850,ls),
(1506,1850,o),
(1542,1880,o),
(1542,1930,cs),
(1542,1981,o),
(1506,2008,o),
(1452,2008,cs),
(627,2008,ls),
(556,2008,o),
(531,1978,o),
(518,1925,cs),
(63,100,ls),
(51,51,o),
(75,0,o),
(138,0,cs)
);
},
{
closed = 1;
nodes = (
(89,20,o),
(73,55,o),
(83,96,cs),
(538,1921,ls),
(549,1967,o),
(567,1988,o),
(627,1988,cs),
(1452,1988,ls),
(1498,1988,o),
(1522,1970,o),
(1522,1930,cs),
(1522,1891,o),
(1497,1870,o),
(1452,1870,cs),
(663,1870,l),
(480,1137,l),
(1010,1137,ls),
(1055,1137,o),
(1081,1116,o),
(1081,1080,cs),
(1081,1040,o),
(1055,1017,o),
(1010,1017,cs),
(451,1017,l),
(220,94,ls),
(212,61,o),
(198,20,o),
(138,20,cs)
);
},
{
closed = 1;
nodes = (
(632,1881,o),
(648,1898,o),
(648,1919,cs),
(648,1940,o),
(632,1956,o),
(611,1956,cs),
(590,1956,o),
(573,1940,o),
(573,1919,cs),
(573,1898,o),
(590,1881,o),
(611,1881,cs)
);
}
);
vertWidth = 0;
width = 1230;
},
{
.lastUpdate = 730920380.942;
layerId = "6449507E-FEE0-4D4A-A81F-7CAB6A5803D5";
shapes = (
{
closed = 1;
nodes = (
(357,-20,o),
(396,70,o),
(411,128,cs),
(604,906,l),
(1030,906,ls),
(1146,906,o),
(1208,981,o),
(1208,1074,cs),
(1208,1170,o),
(1151,1242,o),
(1030,1242,cs),
(688,1242,l),
(799,1691,l),
(1435,1691,ls),
(1549,1691,o),
(1612,1766,o),
(1612,1860,cs),
(1612,1956,o),
(1552,2028,o),
(1435,2028,cs),
(679,2028,ls),
(556,2028,o),
(507,1970,o),
(485,1878,cs),
(69,192,l),
(37,79,o),
(99,-20,o),
(229,-20,cs)
);
},
{
closed = 1;
nodes = (
(123,20,o),
(82,89,o),
(107,182,cs),
(523,1868,ls),
(543,1950,o),
(576,1988,o),
(679,1988,cs),
(1435,1988,ls),
(1531,1988,o),
(1572,1939,o),
(1572,1860,cs),
(1572,1783,o),
(1528,1731,o),
(1435,1731,cs),
(767,1731,l),
(636,1202,l),
(1030,1202,ls),
(1129,1202,o),
(1168,1153,o),
(1168,1074,cs),
(1168,998,o),
(1125,946,o),
(1030,946,cs),
(572,946,l),
(373,138,ls),
(358,85,o),
(330,20,o),
(229,20,cs)
);
},
{
closed = 1;
nodes = (
(686,1803,o),
(713,1830,o),
(713,1863,cs),
(713,1896,o),
(686,1923,o),
(653,1923,cs),
(620,1923,o),
(593,1896,o),
(593,1863,cs),
(593,1830,o),
(620,1803,o),
(653,1803,cs)
);
}
);
vertWidth = 0;
width = 1343;
}
);
metricLeft = F.ss02;
metricWidth = F;
changeCount = 1;
},
{
color = 5;
glyphname = G.ss04;
lastChange = "2024-02-29 17:26:20 +0000";
layers = (
{
.lastUpdate = 730920380.656;
layerId = m01;
shapes = (
{
closed = 1;
nodes = (
(785,-20,o),
(976,103,o),
(1144,359,c),
(1078,98,ls),
(1068,59,o),
(1079,0,o),
(1148,0,cs),
(1225,0,o),
(1247,49,o),
(1256,85,cs),
(1471,946,ls),
(1488,1014,o),
(1435,1048,o),
(1391,1048,cs),
(1332,1048,o),
(1317,1039,o),
(1208,766,cs),
(1057,383,o),
(823,138,o),
(585,138,cs),
(360,138,o),
(314,522,o),
(470,1142,cs),
(591,1618,o),
(818,1868,o),
(1089,1868,cs),
(1184,1868,o),
(1255,1807,o),
(1302,1682,cs),
(1320,1634,o),
(1366,1609,o),
(1420,1626,cs),
(1467,1641,o),
(1485,1679,o),
(1470,1722,cs),
(1399,1924,o),
(1276,2028,o),
(1100,2028,cs),
(709,2028,o),
(425,1676,o),
(284,1120,cs),
(111,424,o),
(217,-20,o),
(567,-20,cs)
);
},
{
closed = 1;
nodes = (
(234,0,o),
(132,427,o),
(304,1116,cs),
(443,1665,o),
(720,2008,o),
(1100,2008,cs),
(1268,2008,o),
(1382,1911,o),
(1452,1716,cs),
(1463,1682,o),
(1452,1657,o),
(1414,1646,cs),
(1369,1631,o),
(1334,1648,o),
(1320,1688,cs),
(1269,1819,o),
(1193,1888,o),
(1089,1888,cs),
(808,1888,o),
(573,1629,o),
(450,1146,cs),
(293,521,o),
(340,118,o),
(585,118,cs),
(832,118,o),
(1074,370,o),
(1226,758,cs),
(1332,1023,o),
(1340,1028,o),
(1391,1028,cs),
(1427,1028,o),
(1464,1004,o),
(1451,952,cs),
(1236,91,ls),
(1228,57,o),
(1211,20,o),
(1148,20,cs),
(1096,20,o),
(1089,59,o),
(1098,94,cs),
(1181,417,ls),
(1195,472,o),
(1189,470,o),
(1162,425,cs),
(988,134,o),
(794,0,o),
(567,0,cs)
);
},
{
closed = 1;
nodes = (
(1407,1669,o),
(1423,1686,o),
(1423,1707,cs),
(1423,1728,o),
(1407,1744,o),
(1386,1744,cs),
(1365,1744,o),
(1348,1728,o),
(1348,1707,cs),
(1348,1686,o),
(1365,1669,o),
(1386,1669,cs)
);
}
);
vertWidth = 0;
width = 1258;
},
{
.lastUpdate = 730920380.942;
layerId = "6449507E-FEE0-4D4A-A81F-7CAB6A5803D5";
shapes = (
{
closed = 1;
nodes = (
(788,-20,o),
(897,57,o),
(1001,188,c),
(994,190,l),
(967,96,o),
(1005,0,o),
(1144,0,cs),
(1280,0,o),
(1326,67,o),
(1341,128,cs),
(1541,929,ls),
(1576,1071,o),
(1468,1141,o),
(1377,1141,cs),
(1286,1141,o),
(1240,1112,o),
(1121,825,cs),
(998,520,o),
(829,317,o),
(638,317,cs),
(470,317,o),
(588,951,o),
(629,1103,cs),
(719,1476,o),
(885,1689,o),
(1099,1689,cs),
(1150,1689,o),
(1177,1650,o),
(1204,1582,cs),
(1240,1493,o),
(1321,1442,o),
(1430,1474,cs),
(1536,1506,o),
(1573,1591,o),
(1541,1682,cs),
(1458,1918,o),
(1310,2028,o),
(1112,2028,cs),
(718,2028,o),
(415,1703,o),
(271,1136,cs),
(56,278,o),
(270,-20,o),
(620,-20,cs)
);
},
{
closed = 1;
nodes = (
(294,20,o),
(101,290,o),
(309,1126,cs),
(451,1681,o),
(738,1988,o),
(1112,1988,cs),
(1294,1988,o),
(1425,1892,o),
(1503,1668,cs),
(1530,1595,o),
(1505,1536,o),
(1418,1512,cs),
(1330,1484,o),
(1271,1522,o),
(1242,1596,cs),
(1212,1670,o),
(1173,1729,o),
(1099,1729,cs),
(863,1729,o),
(687,1495,o),
(591,1113,cs),
(555,968,o),
(414,277,o),
(638,277,cs),
(849,277,o),
(1032,498,o),
(1159,809,cs),
(1271,1082,o),
(1300,1101,o),
(1377,1101,cs),
(1454,1101,o),
(1531,1051,o),
(1503,939,cs),
(1303,138,ls),
(1289,82,o),
(1253,40,o),
(1144,40,cs),
(1036,40,o),
(1014,100,o),
(1032,180,cs),
(1048,253,ls),
(1067,342,o),
(1065,351,o),
(1007,269,cs),
(879,89,o),
(775,20,o),
(620,20,cs)
);
},
{
closed = 1;
nodes = (
(1417,1563,o),
(1444,1590,o),
(1444,1623,cs),
(1444,1656,o),
(1417,1683,o),
(1384,1683,cs),
(1351,1683,o),
(1324,1656,o),
(1324,1623,cs),
(1324,1590,o),
(1351,1563,o),
(1384,1563,cs)
);
}
);
vertWidth = 0;
width = 1345;
}
);
metricLeft = G.ss02;
metricWidth = G;
changeCount = 1;
},
{
color = 5;
glyphname = H.ss04;
lastChange = "2024-02-29 17:26:20 +0000";
layers = (
{
.lastUpdate = 730920380.656;
layerId = m01;
shapes = (
{
closed = 1;
nodes = (
(213,0,o),
(234,45,o),
(242,78,cs),
(471,998,l),
(1337,998,l),
(1113,98,ls),
(1103,59,o),
(1111,0,o),
(1188,0,cs),
(1254,0,o),
(1281,39,o),
(1289,70,cs),
(1747,1905,ls),
(1761,1962,o),
(1743,2008,o),
(1675,2008,cs),
(1615,2008,o),
(1581,1973,o),
(1572,1938,cs),
(1377,1156,l),
(511,1156,l),
(695,1895,ls),
(710,1954,o),
(684,2008,o),
(624,2008,cs),
(558,2008,o),
(531,1978,o),
(518,1925,cs),
(63,100,ls),
(51,51,o),
(75,0,o),
(138,0,cs)
);
},
{
closed = 1;
nodes = (
(89,20,o),
(73,55,o),
(83,96,cs),
(538,1921,ls),
(549,1967,o),
(569,1988,o),
(624,1988,cs),
(669,1988,o),
(688,1951,o),
(675,1899,cs),
(484,1136,l),
(1393,1136,l),
(1591,1934,ls),
(1598,1962,o),
(1624,1988,o),
(1675,1988,cs),
(1728,1988,o),
(1739,1958,o),
(1727,1909,cs),
(1270,74,ls),
(1264,48,o),
(1243,20,o),
(1188,20,cs),
(1130,20,o),
(1124,59,o),
(1133,94,cs),
(1363,1018,l),
(455,1018,l),
(222,82,ls),
(215,52,o),
(200,20,o),
(138,20,cs)
);
},
{
closed = 1;
nodes = (
(632,1881,o),
(648,1898,o),
(648,1919,cs),
(648,1940,o),
(632,1956,o),
(611,1956,cs),
(590,1956,o),
(573,1940,o),
(573,1919,cs),
(573,1898,o),
(590,1881,o),
(611,1881,cs)
);
}
);
vertWidth = 0;
width = 1540;
},
{
.lastUpdate = 730920380.943;
layerId = "6449507E-FEE0-4D4A-A81F-7CAB6A5803D5";
shapes = (
{
closed = 1;
nodes = (
(371,-20,o),
(404,71,o),
(415,129,c),
(608,906,l),
(1201,906,l),
(1026,190,ls),
(1006,101,o),
(1025,-20,o),
(1188,-20,cs),
(1316,-20,o),
(1360,60,o),
(1374,120,cs),
(1785,1816,ls),
(1814,1945,o),
(1755,2028,o),
(1625,2028,cs),
(1503,2028,o),
(1456,1950,o),
(1442,1891,cs),
(1283,1242,l),
(691,1242,l),
(831,1806,l),
(859,1956,o),
(783,2028,o),
(673,2028,cs),
(561,2028,o),
(513,1973,o),
(485,1878,c),
(69,192,l),
(37,79,o),
(99,-20,o),
(229,-20,cs)
);
},
{
closed = 1;
nodes = (
(123,20,o),
(82,89,o),
(107,182,cs),
(523,1868,l),
(548,1951,o),
(581,1988,o),
(673,1988,cs),
(764,1988,o),
(815,1939,o),
(791,1814,c),
(639,1202,l),
(1315,1202,l),
(1480,1881,ls),
(1493,1932,o),
(1527,1988,o),
(1625,1988,cs),
(1732,1988,o),
(1771,1934,o),
(1747,1826,cs),
(1336,130,ls),
(1323,77,o),
(1291,20,o),
(1188,20,cs),
(1060,20,o),
(1047,103,o),
(1064,180,cs),
(1251,946,l),
(576,946,l),
(375,137,l),
(366,84,o),
(343,20,o),
(229,20,cs)
);
},
{
closed = 1;
nodes = (
(686,1803,o),
(713,1830,o),
(713,1863,cs),
(713,1896,o),
(686,1923,o),
(653,1923,cs),
(620,1923,o),
(593,1896,o),
(593,1863,cs),
(593,1830,o),
(620,1803,o),
(653,1803,cs)
);
}
);
vertWidth = 0;
width = 1597;
}
);
metricLeft = H.ss02;
metricWidth = H;
changeCount = 1;
},
{
color = 5;
glyphname = I.ss04;
lastChange = "2024-02-29 17:26:20 +0000";
layers = (
{
.lastUpdate = 730920380.657;
layerId = m01;
shapes = (
{
closed = 1;
nodes = (
(829,1850,l),
(407,158,l),
(82,158,ls),
(13,158,o),
(-8,123,o),
(-8,80,cs),
(-8,40,o),
(13,0,o),
(82,0,cs),
(869,0,ls),
(938,0,o),
(959,40,o),
(959,80,cs),
(959,123,o),
(938,158,o),
(869,158,cs),
(587,158,l),
(1009,1850,l),
(1329,1850,ls),
(1398,1850,o),
(1420,1887,o),
(1420,1928,cs),
(1420,1968,o),
(1398,2008,o),
(1329,2008,cs),
(544,2008,ls),
(474,2008,o),
(453,1968,o),
(453,1928,cs),
(453,1887,o),
(474,1850,o),
(544,1850,cs)
);
},
{
closed = 1;
nodes = (
(487,1870,o),
(473,1894,o),
(473,1928,cs),
(473,1962,o),
(487,1988,o),
(544,1988,cs),
(1329,1988,ls),
(1385,1988,o),
(1400,1961,o),
(1400,1928,cs),
(1400,1894,o),
(1385,1870,o),
(1329,1870,cs),
(993,1870,l),
(561,138,l),
(869,138,ls),
(925,138,o),
(939,116,o),
(939,80,cs),
(939,46,o),
(925,20,o),
(869,20,cs),
(82,20,ls),
(26,20,o),
(12,46,o),
(12,80,cs),
(12,116,o),
(26,138,o),
(82,138,cs),
(423,138,l),
(855,1870,l),
(544,1870,ls)
);
},
{
closed = 1;
nodes = (
(943,1829,o),
(959,1846,o),
(959,1867,cs),
(959,1888,o),
(943,1904,o),
(922,1904,cs),
(901,1904,o),
(884,1888,o),
(884,1867,cs),
(884,1846,o),
(901,1829,o),
(922,1829,cs)
);
}
);
vertWidth = 0;
width = 1142;
},
{
.lastUpdate = 730920380.944;
layerId = "6449507E-FEE0-4D4A-A81F-7CAB6A5803D5";
shapes = (
{
closed = 1;
nodes = (
(777,1691,l),
(432,317,l),
(216,317,ls),
(67,317,o),
(40,230,o),
(40,151,cs),
(40,72,o),
(73,-20,o),
(216,-20,cs),
(934,-20,ls),
(1080,-20,o),
(1113,72,o),
(1113,151,cs),
(1113,229,o),
(1083,317,o),
(934,317,cs),
(798,317,l),
(1138,1691,l),
(1355,1691,ls),
(1505,1691,o),
(1531,1782,o),
(1531,1857,cs),
(1531,1939,o),
(1501,2028,o),
(1355,2028,cs),
(637,2028,ls),
(491,2028,o),
(459,1939,o),
(459,1857,cs),
(459,1782,o),
(489,1691,o),
(637,1691,cs)
);
},
{
closed = 1;
nodes = (
(519,1731,o),
(499,1790,o),
(499,1857,cs),
(499,1929,o),
(521,1988,o),
(637,1988,cs),
(1355,1988,ls),
(1471,1988,o),
(1491,1930,o),
(1491,1857,cs),
(1491,1790,o),
(1473,1731,o),
(1355,1731,cs),
(1106,1731,l),
(746,277,l),
(934,277,ls),
(1053,277,o),
(1073,221,o),
(1073,151,cs),
(1073,82,o),
(1050,20,o),
(934,20,cs),
(216,20,ls),
(103,20,o),
(80,82,o),
(80,151,cs),
(80,221,o),
(98,277,o),
(216,277,cs),
(464,277,l),
(829,1731,l),
(637,1731,ls)
);
},
{
closed = 1;
nodes = (
(994,1658,o),
(1021,1685,o),
(1021,1718,cs),
(1021,1751,o),
(994,1778,o),
(961,1778,cs),
(928,1778,o),
(901,1751,o),
(901,1718,cs),
(901,1685,o),
(928,1658,o),
(961,1658,cs)
);
}
);
vertWidth = 0;
width = 1304;
}
);
metricLeft = I.ss02;
metricWidth = I;
changeCount = 1;
},
{
color = 5;
glyphname = J.ss04;
lastChange = "2024-02-29 17:26:20 +0000";
layers = (
{
.lastUpdate = 730920380.658;
layerId = m01;
shapes = (
{
closed = 1;
nodes = (
(662,0,o),
(860,194,o),
(959,591,cs),
(1285,1897,ls),
(1298,1950,o),
(1291,2008,o),
(1218,2008,cs),
(1150,2008,o),
(1122,1978,o),
(1109,1925,cs),
(780,605,ls),
(704,301,o),
(568,163,o),
(400,163,cs),
(237,163,o),
(178,280,o),
(178,473,cs),
(178,562,o),
(158,613,o),
(98,613,cs),
(45,613,o),
(5,570,o),
(5,473,cs),
(2,182,o),
(142,0,o),
(392,0,cs)
);
},
{
closed = 1;
nodes = (
(153,20,o),
(22,190,o),
(25,473,cs),
(25,560,o),
(55,593,o),
(98,593,cs),
(143,593,o),
(158,557,o),
(158,473,cs),
(158,274,o),
(224,143,o),
(400,143,cs),
(578,143,o),
(722,290,o),
(800,601,cs),
(1129,1921,ls),
(1140,1967,o),
(1161,1988,o),
(1218,1988,cs),
(1272,1988,o),
(1277,1951,o),
(1265,1901,cs),
(939,595,ls),
(842,205,o),
(653,20,o),
(392,20,cs)
);
},
{
closed = 1;
nodes = (
(1223,1882,o),
(1239,1899,o),
(1239,1920,cs),
(1239,1941,o),
(1223,1957,o),
(1202,1957,cs),
(1181,1957,o),
(1164,1941,o),
(1164,1920,cs),
(1164,1899,o),
(1181,1882,o),
(1202,1882,cs)
);
}
);
vertWidth = 0;
width = 1055;
},
{
.lastUpdate = 730920380.944;
layerId = "6449507E-FEE0-4D4A-A81F-7CAB6A5803D5";
shapes = (
{
closed = 1;
nodes = (
(789,-20,o),
(1009,180,o),
(1115,604,cs),
(1417,1808,ls),
(1450,1941,o),
(1399,2028,o),
(1269,2028,cs),
(1147,2028,o),
(1093,1973,o),
(1069,1878,cs),
(767,663,ls),
(714,449,o),
(632,319,o),
(513,319,cs),
(419,319,o),
(406,403,o),
(406,510,cs),
(406,709,o),
(323,733,o),
(235,733,cs),
(160,733,o),
(54,701,o),
(54,510,cs),
(54,172,o),
(223,-20,o),
(506,-20,cs)
);
},
{
closed = 1;
nodes = (
(244,20,o),
(94,190,o),
(94,510,cs),
(94,669,o),
(168,693,o),
(235,693,cs),
(315,693,o),
(366,677,o),
(366,510,cs),
(366,399,o),
(384,279,o),
(513,279,cs),
(656,279,o),
(750,431,o),
(805,653,cs),
(1107,1868,ls),
(1128,1953,o),
(1167,1988,o),
(1267,1988,cs),
(1367,1988,o),
(1407,1931,o),
(1379,1818,cs),
(1077,614,ls),
(974,204,o),
(771,20,o),
(506,20,cs)
);
},
{
closed = 1;
nodes = (
(1283,1803,o),
(1310,1830,o),
(1310,1863,cs),
(1310,1896,o),
(1283,1923,o),
(1250,1923,cs),
(1217,1923,o),
(1190,1896,o),
(1190,1863,cs),
(1190,1830,o),
(1217,1803,o),
(1250,1803,cs)
);
}
);
vertWidth = 0;
width = 1216;
}
);
metricLeft = J.ss02;
metricWidth = J;
changeCount = 1;
},
{
color = 5;
glyphname = K.ss04;
lastChange = "2024-02-29 17:26:20 +0000";
layers = (
{
.lastUpdate = 730920380.658;
layerId = m01;
shapes = (
{
closed = 1;
nodes = (
(1312,0,o),
(1375,69,o),
(1316,146,cs),
(612,1076,l),
(1615,1842,ls),
(1653,1871,o),
(1676,1903,o),
(1676,1941,cs),
(1676,1977,o),
(1651,2008,o),
(1604,2008,cs),
(1578,2008,o),
(1540,1995,o),
(1504,1967,cs),
(516,1209,l),
(687,1895,ls),
(702,1954,o),
(688,2008,o),
(620,2008,cs),
(552,2008,o),
(525,1970,o),
(514,1925,cs),
(63,116,ls),
(51,68,o),
(72,0,o),
(136,0,cs),
(205,0,o),
(229,55,o),
(239,96,cs),
(459,980,l),
(1154,64,ls),
(1179,31,o),
(1210,0,o),
(1256,0,cs)
);
},
{
closed = 1;
nodes = (
(1218,20,o),
(1194,44,o),
(1170,76,cs),
(469,1001,ls),
(451,1025,o),
(450,1025,o),
(443,998,cs),
(219,100,ls),
(209,62,o),
(191,20,o),
(136,20,cs),
(88,20,o),
(72,70,o),
(83,112,cs),
(534,1921,ls),
(544,1961,o),
(563,1988,o),
(620,1988,cs),
(672,1988,o),
(680,1952,o),
(667,1899,cs),
(493,1198,ls),
(484,1160,o),
(484,1159,o),
(522,1188,cs),
(1516,1951,ls),
(1550,1977,o),
(1582,1988,o),
(1602,1988,cs),
(1640,1988,o),
(1656,1969,o),
(1656,1941,cs),
(1656,1910,o),
(1638,1885,o),
(1603,1858,cs),
(584,1080,l),
(1300,134,ls),
(1348,71,o),
(1301,20,o),
(1256,20,cs)
);
},
{
closed = 1;
nodes = (
(628,1881,o),
(644,1898,o),
(644,1919,cs),
(644,1940,o),
(628,1956,o),
(607,1956,cs),
(586,1956,o),
(569,1940,o),
(569,1919,cs),
(569,1898,o),
(586,1881,o),
(607,1881,cs)
);
}
);
vertWidth = 0;
width = 1383;
},
{
.lastUpdate = 730920380.945;
layerId = "6449507E-FEE0-4D4A-A81F-7CAB6A5803D5";
shapes = (
{
closed = 1;
nodes = (
(1375,-20,o),
(1507,107,o),
(1388,269,cs),
(796,1078,l),
(1652,1706,ls),
(1706,1746,o),
(1743,1794,o),
(1743,1873,cs),
(1743,1949,o),
(1687,2028,o),
(1586,2028,cs),
(1546,2028,o),
(1495,2018,o),
(1433,1972,cs),
(746,1463,l),
(832,1805,ls),
(868,1950,o),
(804,2028,o),
(680,2028,cs),
(559,2028,o),
(511,1965,o),
(490,1880,cs),
(68,205,ls),
(39,91,o),
(108,-20,o),
(225,-20,cs),
(345,-20,o),
(392,67,o),
(411,143,cs),
(573,779,l),
(1091,74,ls),
(1133,17,o),
(1188,-20,o),
(1258,-20,cs)
);
},
{
closed = 1;
nodes = (
(1201,20,o),
(1160,48,o),
(1123,98,cs),
(596,815,ls),
(556,870,o),
(555,870,o),
(540,812,cs),
(373,153,ls),
(355,83,o),
(320,20,o),
(225,20,cs),
(132,20,o),
(82,101,o),
(106,195,cs),
(528,1870,ls),
(547,1945,o),
(581,1988,o),
(680,1988,cs),
(782,1988,o),
(825,1936,o),
(794,1815,cs),
(700,1444,ls),
(681,1369,o),
(683,1367,o),
(757,1422,cs),
(1457,1940,ls),
(1511,1980,o),
(1551,1988,o),
(1586,1988,cs),
(1664,1988,o),
(1703,1934,o),
(1703,1873,cs),
(1703,1809,o),
(1677,1774,o),
(1628,1738,cs),
(740,1086,l),
(1356,245,ls),
(1454,112,o),
(1351,20,o),
(1258,20,cs)
);
},
{
closed = 1;
nodes = (
(686,1803,o),
(713,1830,o),
(713,1863,cs),
(713,1896,o),
(686,1923,o),
(653,1923,cs),
(620,1923,o),
(593,1896,o),
(593,1863,cs),
(593,1830,o),
(620,1803,o),
(653,1803,cs)
);
}
);
vertWidth = 0;
width = 1468;
}
);
metricLeft = K.ss02;
metricWidth = K;
changeCount = 1;
},
{
color = 5;
glyphname = L.ss04;
lastChange = "2024-02-29 17:26:20 +0000";
layers = (
{
.lastUpdate = 730920380.659;
layerId = m01;
shapes = (
{
closed = 1;
nodes = (
(965,0,ls),
(1038,0,o),
(1084,38,o),
(1084,96,cs),
(1084,137,o),
(1047,158,o),
(994,158,cs),
(257,158,l),
(689,1889,ls),
(703,1946,o),
(705,2008,o),
(627,2008,cs),
(556,2008,o),
(531,1978,o),
(518,1925,cs),
(63,100,ls),
(51,51,o),
(75,0,o),
(138,0,cs)
);
},
{
closed = 1;
nodes = (
(89,20,o),
(73,55,o),
(83,96,cs),
(538,1921,ls),
(549,1967,o),
(567,1988,o),
(627,1988,cs),
(684,1988,o),
(682,1947,o),
(669,1893,cs),
(231,138,l),
(994,138,ls),
(1040,138,o),
(1064,124,o),
(1064,96,cs),
(1064,49,o),
(1029,20,o),
(965,20,cs),
(138,20,ls)
);
},
{
closed = 1;
nodes = (
(632,1881,o),
(648,1898,o),
(648,1919,cs),
(648,1940,o),
(632,1956,o),
(611,1956,cs),
(590,1956,o),
(573,1940,o),
(573,1919,cs),
(573,1898,o),
(590,1881,o),
(611,1881,cs)
);
}
);
vertWidth = 0;
width = 759;
},
{
.lastUpdate = 730920380.945;
layerId = "6449507E-FEE0-4D4A-A81F-7CAB6A5803D5";
shapes = (
{
closed = 1;
nodes = (
(982,-20,ls),
(1124,-20,o),
(1192,69,o),
(1192,164,cs),
(1192,238,o),
(1153,317,o),
(1011,317,cs),
(461,317,l),
(832,1800,ls),
(870,1951,o),
(815,2028,o),
(681,2028,cs),
(558,2028,o),
(511,1970,o),
(488,1878,cs),
(68,192,ls),
(40,79,o),
(96,-20,o),
(228,-20,cs)
);
},
{
closed = 1;
nodes = (
(123,20,o),
(83,88,o),
(106,182,cs),
(526,1868,ls),
(546,1950,o),
(578,1988,o),
(681,1988,cs),
(792,1988,o),
(826,1938,o),
(794,1810,cs),
(409,277,l),
(1011,277,ls),
(1126,277,o),
(1152,226,o),
(1152,164,cs),
(1152,85,o),
(1102,20,o),
(982,20,cs),
(228,20,ls)
);
},
{
closed = 1;
nodes = (
(689,1803,o),
(716,1830,o),
(716,1863,cs),
(716,1896,o),
(689,1923,o),
(656,1923,cs),
(623,1923,o),
(596,1896,o),
(596,1863,cs),
(596,1830,o),
(623,1803,o),
(656,1803,cs)
);
}
);
vertWidth = 0;
width = 920;
}
);
metricLeft = L.ss02;
metricWidth = L;
changeCount = 1;
},
{
color = 5;
glyphname = M.ss04;
lastChange = "2024-02-29 17:26:20 +0000";
layers = (
{
.lastUpdate = 730920380.66;
layerId = m01;
shapes = (
{
closed = 1;
nodes = (
(201,0,o),
(229,41,o),
(239,83,cs),
(621,1622,l),
(778,64,ls),
(782,21,o),
(813,0,o),
(859,0,cs),
(898,0,o),
(937,20,o),
(961,60,cs),
(1898,1623,l),
(1521,107,ls),
(1511,67,o),
(1525,0,o),
(1596,0,cs),
(1668,0,o),
(1685,40,o),
(1693,73,cs),
(2141,1869,ls),
(2166,1968,o),
(2117,2008,o),
(2025,2008,cs),
(1962,2008,o),
(1927,1982,o),
(1859,1868,cs),
(929,317,l),
(771,1875,ls),
(761,1978,o),
(722,2008,o),
(648,2008,cs),
(573,2008,o),
(532,1992,o),
(509,1898,cs),
(63,106,ls),
(51,57,o),
(78,0,o),
(138,0,cs)
);
},
{
closed = 1;
nodes = (
(93,20,o),
(73,61,o),
(83,102,cs),
(529,1894,ls),
(551,1981,o),
(582,1988,o),
(648,1988,cs),
(711,1988,o),
(741,1969,o),
(751,1873,cs),
(911,304,ls),
(915,260,o),
(919,260,o),
(944,302,cs),
(1884,1869,ls),
(1950,1979,o),
(1971,1988,o),
(2025,1988,cs),
(2105,1988,o),
(2143,1962,o),
(2121,1873,cs),
(1673,77,ls),
(1666,47,o),
(1654,20,o),
(1596,20,cs),
(1541,20,o),
(1533,68,o),
(1541,101,cs),
(1924,1643,ls),
(1944,1724,o),
(1936,1727,o),
(1891,1652,cs),
(943,70,ls),
(922,36,o),
(893,20,o),
(859,20,cs),
(820,20,o),
(801,34,o),
(798,66,cs),
(639,1651,ls),
(631,1730,o),
(627,1730,o),
(607,1649,cs),
(219,87,ls),
(210,50,o),
(190,20,o),
(138,20,cs)
);
},
{
closed = 1;
nodes = (
(168,47,o),
(184,64,o),
(184,85,cs),
(184,106,o),
(168,122,o),
(147,122,cs),
(126,122,o),
(109,106,o),
(109,85,cs),
(109,64,o),
(126,47,o),
(147,47,cs)
);
}
);
vertWidth = 0;
width = 1939;
},
{
.lastUpdate = 730920380.946;
layerId = "6449507E-FEE0-4D4A-A81F-7CAB6A5803D5";
shapes = (
{
closed = 1;
nodes = (
(340,-20,o),
(392,55,o),
(410,128,cs),
(630,1018,l),
(714,125,ls),
(722,38,o),
(778,-20,o),
(887,-20,cs),
(953,-20,o),
(1019,16,o),
(1060,84,cs),
(1590,962,l),
(1399,197,ls),
(1378,113,o),
(1417,-20,o),
(1561,-20,cs),
(1692,-20,o),
(1725,58,o),
(1739,115,cs),
(2159,1802,ls),
(2202,1974,o),
(2104,2028,o),
(1956,2028,cs),
(1874,2028,o),
(1817,2013,o),
(1725,1859,cs),
(1013,665,l),
(906,1826,ls),
(890,2002,o),
(803,2028,o),
(695,2028,cs),
(592,2028,o),
(511,2002,o),
(476,1858,cs),
(67,196,ls),
(40,88,o),
(109,-20,o),
(224,-20,cs)
);
},
{
closed = 1;
nodes = (
(134,20,o),
(83,99,o),
(105,188,cs),
(514,1850,ls),
(545,1976,o),
(608,1988,o),
(695,1988,cs),
(788,1988,o),
(852,1977,o),
(866,1822,cs),
(976,637,ls),
(985,545,o),
(988,544,o),
(1042,635,cs),
(1759,1839,ls),
(1844,1981,o),
(1886,1988,o),
(1956,1988,cs),
(2083,1988,o),
(2158,1959,o),
(2121,1812,cs),
(1701,125,ls),
(1688,71,o),
(1664,20,o),
(1561,20,cs),
(1449,20,o),
(1419,117,o),
(1437,187,cs),
(1655,1056,ls),
(1685,1175,o),
(1674,1179,o),
(1609,1071,cs),
(1026,104,ls),
(992,47,o),
(942,20,o),
(887,20,cs),
(798,20,o),
(761,58,o),
(754,129,cs),
(664,1085,ls),
(651,1223,o),
(640,1224,o),
(606,1086,cs),
(372,138,ls),
(356,73,o),
(317,20,o),
(224,20,cs)
);
},
{
closed = 1;
nodes = (
(269,84,o),
(296,111,o),
(296,144,cs),
(296,177,o),
(269,204,o),
(236,204,cs),
(203,204,o),
(176,177,o),
(176,144,cs),
(176,111,o),
(203,84,o),
(236,84,cs)
);
}
);
vertWidth = 0;
width = 1963;
}
);
metricLeft = M.ss02;
metricWidth = M;
changeCount = 1;
},
{
color = 5;
glyphname = N.ss04;
lastChange = "2024-02-29 17:26:20 +0000";
layers = (
{
.lastUpdate = 730920380.66;
layerId = m01;
shapes = (
{
closed = 1;
nodes = (
(210,0,o),
(234,50,o),
(244,89,cs),
(633,1666,l),
(1106,62,ls),
(1116,29,o),
(1150,0,o),
(1200,0,cs),
(1255,0,o),
(1285,44,o),
(1293,78,cs),
(1747,1900,ls),
(1762,1961,o),
(1748,2008,o),
(1677,2008,cs),
(1618,2008,o),
(1586,1973,o),
(1574,1927,cs),
(1185,381,l),
(727,1939,ls),
(718,1971,o),
(684,2008,o),
(624,2008,cs),
(553,2008,o),
(531,1977,o),
(518,1925,cs),
(63,100,ls),
(51,52,o),
(73,0,o),
(138,0,cs)
);
},
{
closed = 1;
nodes = (
(88,20,o),
(73,55,o),
(83,96,cs),
(538,1921,ls),
(550,1968,o),
(564,1988,o),
(624,1988,cs),
(674,1988,o),
(701,1960,o),
(709,1933,cs),
(1170,361,ls),
(1186,308,o),
(1188,308,o),
(1202,362,cs),
(1594,1923,ls),
(1604,1961,o),
(1627,1988,o),
(1677,1988,cs),
(1732,1988,o),
(1741,1959,o),
(1727,1904,cs),
(1273,82,ls),
(1266,53,o),
(1244,20,o),
(1200,20,cs),
(1159,20,o),
(1134,42,o),
(1126,68,cs),
(646,1693,ls),
(633,1737,o),
(629,1737,o),
(619,1695,cs),
(224,93,ls),
(215,57,o),
(197,20,o),
(138,20,cs)
);
},
{
closed = 1;
nodes = (
(170,47,o),
(186,64,o),
(186,85,cs),
(186,106,o),
(170,122,o),
(149,122,cs),
(128,122,o),
(111,106,o),
(111,85,cs),
(111,64,o),
(128,47,o),
(149,47,cs)
);
}
);
vertWidth = 0;
width = 1540;
},
{
.lastUpdate = 730920380.946;
layerId = "6449507E-FEE0-4D4A-A81F-7CAB6A5803D5";
shapes = (
{
closed = 1;
nodes = (
(352,-20,o),
(396,61,o),
(414,134,cs),
(702,1279,l),
(1024,99,ls),
(1043,31,o),
(1107,-20,o),
(1196,-20,cs),
(1306,-20,o),
(1361,65,o),
(1377,128,cs),
(1796,1808,ls),
(1833,1956,o),
(1776,2028,o),
(1644,2028,cs),
(1538,2028,o),
(1475,1969,o),
(1453,1883,cs),
(1171,761,l),
(864,1901,ls),
(849,1955,o),
(786,2028,o),
(681,2028,cs),
(550,2028,o),
(511,1969,o),
(488,1878,cs),
(68,192,ls),
(40,79,o),
(91,-20,o),
(227,-20,cs)
);
},
{
closed = 1;
nodes = (
(117,20,o),
(82,87,o),
(106,182,cs),
(526,1868,ls),
(547,1951,o),
(572,1988,o),
(681,1988,cs),
(766,1988,o),
(815,1933,o),
(826,1891,cs),
(1141,718,ls),
(1171,606,o),
(1175,606,o),
(1202,715,cs),
(1491,1873,ls),
(1509,1945,o),
(1556,1988,o),
(1644,1988,cs),
(1754,1988,o),
(1789,1942,o),
(1758,1818,cs),
(1339,138,ls),
(1325,83,o),
(1282,20,o),
(1196,20,cs),
(1122,20,o),
(1076,57,o),
(1062,109,cs),
(727,1338,ls),
(703,1427,o),
(698,1427,o),
(675,1337,cs),
(374,142,ls),
(358,79,o),
(328,20,o),
(227,20,cs)
);
},
{
closed = 1;
nodes = (
(269,84,o),
(296,111,o),
(296,144,cs),
(296,177,o),
(269,204,o),
(236,204,cs),
(203,204,o),
(176,177,o),
(176,144,cs),
(176,111,o),
(203,84,o),
(236,84,cs)
);
}
);
vertWidth = 0;
width = 1596;
}
);
metricLeft = N.ss02;
metricWidth = N;
changeCount = 1;
},
{
color = 5;
glyphname = O.ss04;
lastChange = "2024-02-29 17:26:20 +0000";
layers = (
{
.lastUpdate = 730920380.661;
layerId = m01;
shapes = (
{
closed = 1;
nodes = (
(1025,-20,o),
(1342,411,o),
(1489,1088,cs),
(1610,1653,o),
(1456,2028,o),
(1078,2028,cs),
(630,2028,o),
(302,1560,o),
(213,823,cs),
(155,311,o),
(315,-20,o),
(642,-20,cs)
);
},
{
closed = 1;
nodes = (
(328,0,o),
(176,317,o),
(233,821,cs),
(321,1551,o),
(641,2008,o),
(1078,2008,cs),
(1441,2008,o),
(1589,1648,o),
(1469,1092,cs),
(1324,420,o),
(1014,0,o),
(642,0,cs)
);
},
{
closed = 1;
nodes = (
(472,1474,o),
(717,1868,o),
(1060,1868,cs),
(1311,1868,o),
(1409,1565,o),
(1305,1084,cs),
(1179,503,o),
(930,143,o),
(644,143,cs),
(438,143,o),
(345,412,o),
(397,850,cs)
);
},
{
closed = 1;
nodes = (
(324,407,o),
(423,123,o),
(644,123,cs),
(941,123,o),
(1197,494,o),
(1325,1080,cs),
(1430,1570,o),
(1326,1888,o),
(1060,1888,cs),
(705,1888,o),
(452,1482,o),
(377,852,cs)
);
},
{
closed = 1;
nodes = (
(1361,1777,o),
(1377,1794,o),
(1377,1815,cs),
(1377,1836,o),
(1361,1852,o),
(1340,1852,cs),
(1319,1852,o),
(1302,1836,o),
(1302,1815,cs),
(1302,1794,o),
(1319,1777,o),
(1340,1777,cs)
);
}
);
vertWidth = 0;
width = 1430;
},
{
.lastUpdate = 730920380.947;
layerId = "6449507E-FEE0-4D4A-A81F-7CAB6A5803D5";
shapes = (
{
closed = 1;
nodes = (
(1075,-20,o),
(1411,370,o),
(1561,1062,cs),
(1702,1704,o),
(1480,2028,o),
(1094,2028,cs),
(650,2028,o),
(297,1603,o),
(205,850,cs),
(139,271,o),
(356,-20,o),
(693,-20,cs)
);
},
{
closed = 1;
nodes = (
(378,20,o),
(181,287,o),
(245,846,cs),
(335,1584,o),
(671,1988,o),
(1094,1988,cs),
(1457,1988,o),
(1658,1689,o),
(1521,1070,cs),
(1375,391,o),
(1054,20,o),
(693,20,cs)
);
},
{
closed = 1;
nodes = (
(621,1341,o),
(796,1689,o),
(1078,1689,cs),
(1264,1689,o),
(1269,1381,o),
(1207,1099,cs),
(1106,642,o),
(928,319,o),
(696,319,cs),
(549,319,o),
(534,595,o),
(565,851,cs)
);
},
{
closed = 1;
nodes = (
(494,594,o),
(509,279,o),
(696,279,cs),
(954,279,o),
(1143,626,o),
(1247,1091,cs),
(1309,1379,o),
(1306,1729,o),
(1078,1729,cs),
(769,1729,o),
(583,1355,o),
(525,855,cs)
);
},
{
closed = 1;
nodes = (
(1353,1700,o),
(1380,1727,o),
(1380,1760,cs),
(1380,1793,o),
(1353,1820,o),
(1320,1820,cs),
(1287,1820,o),
(1260,1793,o),
(1260,1760,cs),
(1260,1727,o),
(1287,1700,o),
(1320,1700,cs)
);
}
);
vertWidth = 0;
width = 1511;
}
);
metricLeft = O.ss02;
metricWidth = O;
changeCount = 1;
},
{
color = 5;
glyphname = P.ss04;
lastChange = "2024-02-29 17:26:20 +0000";
layers = (
{
.lastUpdate = 730920380.662;
layerId = m01;
shapes = (
{
closed = 1;
nodes = (
(210,0,o),
(229,58,o),
(237,89,cs),
(461,991,l),
(1069,997,o),
(1525,1070,o),
(1622,1455,cs),
(1718,1832,o),
(1281,2008,o),
(621,2008,cs),
(546,2008,o),
(528,1977,o),
(515,1925,cs),
(63,111,ls),
(50,60,o),
(75,0,o),
(138,0,cs)
);
},
{
closed = 1;
nodes = (
(90,20,o),
(72,63,o),
(83,107,cs),
(535,1921,ls),
(547,1968,o),
(559,1988,o),
(621,1988,cs),
(1274,1988,o),
(1694,1820,o),
(1602,1459,cs),
(1509,1085,o),
(1059,1015,o),
(445,1011,c),
(216,93,ls),
(209,65,o),
(196,20,o),
(138,20,cs)
);
},
{
closed = 1;
nodes = (
(671,1834,l),
(1257,1822,o),
(1507,1699,o),
(1451,1485,cs),
(1389,1238,o),
(996,1171,o),
(504,1164,c)
);
},
{
closed = 1;
nodes = (
(985,1149,o),
(1404,1215,o),
(1471,1481,cs),
(1531,1712,o),
(1260,1844,o),
(655,1854,c),
(478,1144,l)
);
},
{
closed = 1;
nodes = (
(629,1881,o),
(645,1898,o),
(645,1919,cs),
(645,1940,o),
(629,1956,o),
(608,1956,cs),
(587,1956,o),
(570,1940,o),
(570,1919,cs),
(570,1898,o),
(587,1881,o),
(608,1881,cs)
);
}
);
vertWidth = 0;
width = 1469;
},
{
.lastUpdate = 730920380.948;
layerId = "6449507E-FEE0-4D4A-A81F-7CAB6A5803D5";
shapes = (
{
closed = 1;
nodes = (
(354,-20,o),
(403,80,o),
(414,133,c),
(603,901,l),
(1183,915,o),
(1589,1020,o),
(1683,1392,cs),
(1778,1780,o),
(1471,2028,o),
(673,2028,cs),
(543,2028,o),
(507,1971,o),
(485,1878,cs),
(69,200,l),
(36,89,o),
(106,-20,o),
(226,-20,cs)
);
},
{
closed = 1;
nodes = (
(130,20,o),
(81,99,o),
(107,190,c),
(523,1868,ls),
(544,1953,o),
(567,1988,o),
(673,1988,cs),
(1452,1988,o),
(1733,1761,o),
(1645,1402,cs),
(1555,1048,o),
(1161,951,o),
(571,941,c),
(376,143,ls),
(365,95,o),
(328,20,o),
(226,20,cs)
);
},
{
closed = 1;
nodes = (
(792,1671,l),
(1086,1656,o),
(1374,1603,o),
(1341,1469,cs),
(1294,1288,o),
(1004,1256,o),
(689,1250,c)
);
},
{
closed = 1;
nodes = (
(972,1213,o),
(1323,1238,o),
(1379,1459,cs),
(1425,1644,o),
(1069,1700,o),
(760,1713,c),
(637,1210,l)
);
},
{
closed = 1;
nodes = (
(686,1803,o),
(713,1830,o),
(713,1863,cs),
(713,1896,o),
(686,1923,o),
(653,1923,cs),
(620,1923,o),
(593,1896,o),
(593,1863,cs),
(593,1830,o),
(620,1803,o),
(653,1803,cs)
);
}
);
vertWidth = 0;
width = 1522;
}
);
metricLeft = P.ss02;
metricWidth = P;
changeCount = 1;
},
{
color = 5;
glyphname = Q.ss04;
lastChange = "2024-02-29 17:26:20 +0000";
layers = (
{
.lastUpdate = 730920380.662;
layerId = m01;
shapes = (
{
closed = 1;
nodes = (
(767,-20,o),
(885,25,o),
(992,118,c),
(1115,-73,ls),
(1146,-121,o),
(1190,-136,o),
(1232,-113,cs),
(1281,-87,o),
(1291,-36,o),
(1258,15,cs),
(1116,238,l),
(1279,428,o),
(1409,721,o),
(1489,1088,cs),
(1610,1653,o),
(1456,2028,o),
(1078,2028,cs),
(630,2028,o),
(302,1560,o),
(213,823,cs),
(155,311,o),
(315,-20,o),
(642,-20,cs)
);
},
{
closed = 1;
nodes = (
(328,0,o),
(176,317,o),
(233,821,cs),
(321,1551,o),
(641,2008,o),
(1078,2008,cs),
(1441,2008,o),
(1589,1648,o),
(1469,1092,cs),
(1389,719,o),
(1257,428,o),
(1092,240,c),
(1242,5,ls),
(1270,-38,o),
(1262,-74,o),
(1222,-95,cs),
(1189,-114,o),
(1157,-104,o),
(1131,-63,cs),
(996,148,l),
(887,47,o),
(769,0,o),
(642,0,cs)
);
},
{
closed = 1;
nodes = (
(472,1474,o),
(717,1868,o),
(1060,1868,cs),
(1311,1868,o),
(1409,1565,o),
(1305,1084,cs),
(1240,785,o),
(1142,546,o),
(1023,386,c),
(938,517,ls),
(901,574,o),
(855,589,o),
(807,557,cs),
(766,528,o),
(764,474,o),
(797,422,cs),
(903,256,l),
(822,179,o),
(735,143,o),
(644,143,cs),
(438,143,o),
(345,412,o),
(397,850,cs)
);
},
{
closed = 1;
nodes = (
(324,407,o),
(423,123,o),
(644,123,cs),
(745,123,o),
(842,165,o),
(929,252,c),
(813,432,ls),
(783,478,o),
(787,518,o),
(819,541,cs),
(857,566,o),
(891,556,o),
(922,507,cs),
(1021,351,l),
(1150,513,o),
(1256,765,o),
(1325,1080,cs),
(1430,1570,o),
(1326,1888,o),
(1060,1888,cs),
(705,1888,o),
(452,1482,o),
(377,852,cs)
);
},
{
closed = 1;
nodes = (
(1361,1777,o),
(1377,1794,o),
(1377,1815,cs),
(1377,1836,o),
(1361,1852,o),
(1340,1852,cs),
(1319,1852,o),
(1302,1836,o),
(1302,1815,cs),
(1302,1794,o),
(1319,1777,o),
(1340,1777,cs)
);
}
);
vertWidth = 0;
width = 1431;
},
{
.lastUpdate = 730920380.949;
layerId = "6449507E-FEE0-4D4A-A81F-7CAB6A5803D5";
shapes = (
{
closed = 1;
nodes = (
(784,-20,o),
(874,3,o),
(957,46,c),
(1004,-27,ls),
(1070,-132,o),
(1173,-155,o),
(1250,-113,cs),
(1332,-67,o),
(1361,53,o),
(1306,145,cs),
(1225,275,l),
(1369,458,o),
(1488,724,o),
(1561,1062,cs),
(1702,1704,o),
(1480,2028,o),
(1094,2028,cs),
(650,2028,o),
(297,1603,o),
(205,850,cs),
(139,271,o),
(356,-20,o),
(693,-20,cs)
);
},
{
closed = 1;
nodes = (
(378,20,o),
(181,287,o),
(245,846,cs),
(335,1584,o),
(671,1988,o),
(1094,1988,cs),
(1457,1988,o),
(1658,1689,o),
(1521,1070,cs),
(1446,722,o),
(1325,457,o),
(1175,278,c),
(1272,125,ls),
(1317,49,o),
(1295,-42,o),
(1230,-79,cs),
(1169,-112,o),
(1094,-94,o),
(1038,-5,cs),
(971,99,l),
(881,47,o),
(790,20,o),
(693,20,cs)
);
},
{
closed = 1;
nodes = (
(621,1341,o),
(796,1689,o),
(1078,1689,cs),
(1264,1689,o),
(1269,1381,o),
(1207,1099,cs),
(1163,896,o),
(1102,720,o),
(1027,585,c),
(1015,604,ls),
(955,698,o),
(856,730,o),
(758,665,cs),
(666,606,o),
(661,507,o),
(721,413,cs),
(774,332,l),
(748,323,o),
(723,319,o),
(696,319,cs),
(549,319,o),
(534,595,o),
(565,851,cs)
);
},
{
closed = 1;
nodes = (
(494,594,o),
(509,279,o),
(696,279,cs),
(743,279,o),
(791,292,o),
(833,314,c),
(755,435,ls),
(703,515,o),
(707,585,o),
(780,631,cs),
(860,685,o),
(930,662,o),
(981,582,cs),
(1028,508,l),
(1120,652,o),
(1195,856,o),
(1247,1091,cs),
(1309,1379,o),
(1306,1729,o),
(1078,1729,cs),
(769,1729,o),
(583,1355,o),
(525,855,cs)
);
},
{
closed = 1;
nodes = (
(1353,1700,o),
(1380,1727,o),
(1380,1760,cs),
(1380,1793,o),
(1353,1820,o),
(1320,1820,cs),
(1287,1820,o),
(1260,1793,o),
(1260,1760,cs),
(1260,1727,o),
(1287,1700,o),
(1320,1700,cs)
);
}
);
vertWidth = 0;
width = 1501;
}
);
metricLeft = Q.ss02;
metricWidth = Q;
changeCount = 1;
},
{
color = 5;
glyphname = R.ss04;
lastChange = "2024-02-29 17:26:20 +0000";
layers = (
{
.lastUpdate = 730920380.663;
layerId = m01;
shapes = (
{
closed = 1;
nodes = (
(1277,0,o),
(1310,92,o),
(1268,146,cs),
(615,999,l),
(1122,1013,o),
(1544,1090,o),
(1642,1483,cs),
(1737,1860,o),
(1304,2018,o),
(623,2008,cs),
(547,2007,o),
(528,1976,o),
(516,1926,cs),
(64,116,ls),
(50,59,o),
(70,0,o),
(132,0,cs),
(207,0,o),
(227,50,o),
(238,94,cs),
(447,932,l),
(1115,64,ls),
(1148,21,o),
(1171,0,o),
(1198,0,cs)
);
},
{
closed = 1;
nodes = (
(1179,20,o),
(1162,36,o),
(1131,76,cs),
(462,946,ls),
(440,974,o),
(436,973,o),
(429,944,cs),
(218,98,ls),
(208,57,o),
(193,20,o),
(132,20,cs),
(85,20,o),
(73,62,o),
(85,112,cs),
(536,1920,ls),
(548,1967,o),
(560,1987,o),
(623,1988,cs),
(1296,1998,o),
(1713,1848,o),
(1622,1487,cs),
(1528,1107,o),
(1117,1035,o),
(611,1020,cs),
(577,1019,o),
(576,1018,o),
(597,990,cs),
(1252,134,ls),
(1286,89,o),
(1261,20,o),
(1198,20,cs)
);
},
{
closed = 1;
nodes = (
(675,1848,l),
(1215,1842,o),
(1529,1755,o),
(1471,1518,cs),
(1394,1212,o),
(980,1163,o),
(503,1158,c)
);
},
{
closed = 1;
nodes = (
(966,1141,o),
(1408,1187,o),
(1491,1514,cs),
(1553,1771,o),
(1216,1864,o),
(659,1868,c),
(477,1138,l)
);
},
{
closed = 1;
nodes = (
(630,1881,o),
(646,1898,o),
(646,1919,cs),
(646,1940,o),
(630,1956,o),
(609,1956,cs),
(588,1956,o),
(571,1940,o),
(571,1919,cs),
(571,1898,o),
(588,1881,o),
(609,1881,cs)
);
}
);
vertWidth = 0;
width = 1454;
},
{
.lastUpdate = 730920380.949;
layerId = "6449507E-FEE0-4D4A-A81F-7CAB6A5803D5";
shapes = (
{
closed = 1;
nodes = (
(1357,-20,o),
(1433,152,o),
(1348,264,cs),
(851,918,l),
(1284,954,o),
(1613,1072,o),
(1697,1420,cs),
(1796,1802,o),
(1519,2028,o),
(682,2028,cs),
(553,2028,o),
(511,1977,o),
(486,1878,cs),
(69,205,ls),
(36,71,o),
(109,-20,o),
(223,-20,cs),
(351,-20,o),
(390,61,o),
(411,141,cs),
(560,721,l),
(1054,74,ls),
(1115,-6,o),
(1161,-20,o),
(1208,-20,cs)
);
},
{
closed = 1;
nodes = (
(1169,20,o),
(1138,29,o),
(1086,98,cs),
(584,756,ls),
(545,807,o),
(541,807,o),
(524,739,cs),
(373,151,ls),
(354,76,o),
(325,20,o),
(223,20,cs),
(131,20,o),
(79,83,o),
(107,195,cs),
(524,1868,ls),
(546,1957,o),
(575,1988,o),
(682,1988,cs),
(1501,1988,o),
(1749,1784,o),
(1659,1430,cs),
(1579,1103,o),
(1272,992,o),
(843,957,cs),
(781,952,o),
(777,949,o),
(822,890,cs),
(1316,240,ls),
(1385,150,o),
(1327,20,o),
(1208,20,cs)
);
},
{
closed = 1;
nodes = (
(802,1688,l),
(1240,1679,o),
(1389,1622,o),
(1358,1501,cs),
(1302,1281,o),
(1014,1250,o),
(692,1246,c)
);
},
{
closed = 1;
nodes = (
(985,1208,o),
(1330,1230,o),
(1396,1491,cs),
(1438,1653,o),
(1245,1721,o),
(770,1728,c),
(640,1206,l)
);
},
{
closed = 1;
nodes = (
(687,1803,o),
(714,1830,o),
(714,1863,cs),
(714,1896,o),
(687,1923,o),
(654,1923,cs),
(621,1923,o),
(594,1896,o),
(594,1863,cs),
(594,1830,o),
(621,1803,o),
(654,1803,cs)
);
}
);
vertWidth = 0;
width = 1534;
}
);
metricLeft = R.ss02;
metricWidth = R;
changeCount = 1;
},
{
color = 5;
glyphname = S.ss04;
lastChange = "2024-02-29 17:26:20 +0000";
layers = (
{
.lastUpdate = 730920380.664;
layerId = m01;
shapes = (
{
closed = 1;
nodes = (
(922,-20,o),
(1150,189,o),
(1232,505,cs),
(1316,861,o),
(1192,1054,o),
(811,1154,cs),
(590,1211,o),
(504,1313,o),
(542,1460,cs),
(599,1682,o),
(829,1868,o),
(1040,1868,cs),
(1165,1868,o),
(1244,1776,o),
(1308,1581,cs),
(1323,1533,o),
(1370,1518,o),
(1413,1527,cs),
(1470,1536,o),
(1490,1589,o),
(1479,1626,cs),
(1405,1891,o),
(1271,2028,o),
(1055,2028,cs),
(757,2028,o),
(443,1796,o),
(371,1498,cs),
(311,1242,o),
(450,1066,o),
(776,978,cs),
(1036,909,o),
(1114,784,o),
(1058,533,cs),
(1002,296,o),
(843,143,o),
(639,143,cs),
(440,143,o),
(311,280,o),
(287,511,cs),
(281,559,o),
(248,580,o),
(193,577,cs),
(139,575,o),
(106,544,o),
(111,494,cs),
(146,176,o),
(345,-20,o),
(629,-20,cs)
);
},
{
closed = 1;
nodes = (
(354,0,o),
(165,187,o),
(131,496,cs),
(127,535,o),
(149,555,o),
(195,557,cs),
(241,560,o),
(263,546,o),
(267,509,cs),
(292,270,o),
(430,123,o),
(639,123,cs),
(852,123,o),
(1020,285,o),
(1078,529,cs),
(1136,789,o),
(1050,926,o),
(782,998,cs),
(463,1083,o),
(333,1248,o),
(391,1494,cs),
(461,1783,o),
(764,2008,o),
(1055,2008,cs),
(1262,2008,o),
(1387,1880,o),
(1459,1620,cs),
(1468,1591,o),
(1454,1554,o),
(1409,1547,cs),
(1373,1539,o),
(1339,1550,o),
(1328,1587,cs),
(1262,1787,o),
(1176,1888,o),
(1040,1888,cs),
(822,1888,o),
(581,1695,o),
(522,1464,cs),
(482,1308,o),
(576,1194,o),
(805,1134,cs),
(1179,1037,o),
(1294,856,o),
(1212,509,cs),
(1132,201,o),
(913,0,o),
(629,0,cs)
);
},
{
closed = 1;
nodes = (
(1413,1575,o),
(1429,1592,o),
(1429,1613,cs),
(1429,1634,o),
(1413,1650,o),
(1392,1650,cs),
(1371,1650,o),
(1354,1634,o),
(1354,1613,cs),
(1354,1592,o),
(1371,1575,o),
(1392,1575,cs)
);
}
);
vertWidth = 0;
width = 1310;
},
{
.lastUpdate = 730920380.95;
layerId = "6449507E-FEE0-4D4A-A81F-7CAB6A5803D5";
shapes = (
{
closed = 1;
nodes = (
(975,-20,o),
(1234,185,o),
(1309,524,cs),
(1394,911,o),
(1272,1125,o),
(857,1234,cs),
(719,1270,o),
(660,1320,o),
(678,1394,cs),
(719,1561,o),
(884,1689,o),
(1039,1689,cs),
(1120,1689,o),
(1158,1617,o),
(1197,1492,cs),
(1224,1404,o),
(1312,1363,o),
(1399,1379,cs),
(1519,1401,o),
(1555,1520,o),
(1534,1590,cs),
(1449,1888,o),
(1291,2028,o),
(1055,2028,cs),
(739,2028,o),
(413,1793,o),
(338,1480,cs),
(270,1196,o),
(400,987,o),
(774,889,cs),
(949,841,o),
(1002,766,o),
(964,594,cs),
(925,426,o),
(820,319,o),
(672,319,cs),
(539,319,o),
(462,419,o),
(448,572,cs),
(439,665,o),
(378,726,o),
(260,717,cs),
(142,711,o),
(87,644,o),
(96,539,cs),
(133,186,o),
(358,-20,o),
(664,-20,cs)
);
},
{
closed = 1;
nodes = (
(376,20,o),
(171,208,o),
(136,543,cs),
(129,629,o),
(165,672,o),
(262,677,cs),
(360,684,o),
(401,644,o),
(408,568,cs),
(424,401,o),
(517,279,o),
(672,279,cs),
(839,279,o),
(961,404,o),
(1004,586,cs),
(1045,777,o),
(976,875,o),
(784,927,cs),
(428,1021,o),
(313,1205,o),
(376,1470,cs),
(448,1767,o),
(754,1988,o),
(1055,1988,cs),
(1273,1988,o),
(1414,1864,o),
(1496,1578,cs),
(1512,1524,o),
(1486,1436,o),
(1391,1419,cs),
(1319,1405,o),
(1256,1436,o),
(1235,1504,cs),
(1195,1632,o),
(1147,1729,o),
(1039,1729,cs),
(869,1729,o),
(686,1587,o),
(640,1404,cs),
(615,1304,o),
(698,1235,o),
(847,1196,cs),
(1243,1093,o),
(1351,902,o),
(1269,532,cs),
(1198,209,o),
(959,20,o),
(664,20,cs)
);
},
{
closed = 1;
nodes = (
(1404,1482,o),
(1431,1509,o),
(1431,1542,cs),
(1431,1575,o),
(1404,1602,o),
(1371,1602,cs),
(1338,1602,o),
(1311,1575,o),
(1311,1542,cs),
(1311,1509,o),
(1338,1482,o),
(1371,1482,cs)
);
}
);
vertWidth = 0;
width = 1363;
}
);
metricLeft = S.ss02;
metricWidth = S;
changeCount = 1;
},
{
color = 5;
glyphname = T.ss04;
kernRight = KO_T.ss04;
lastChange = "2024-02-29 17:26:20 +0000";
layers = (
{
.lastUpdate = 730920380.665;
layerId = m01;
shapes = (
{
closed = 1;
nodes = (
(718,0,o),
(745,45,o),
(753,78,cs),
(1197,1850,l),
(1671,1850,ls),
(1737,1850,o),
(1759,1887,o),
(1759,1928,cs),
(1759,1968,o),
(1737,2008,o),
(1671,2008,cs),
(575,2008,ls),
(506,2008,o),
(485,1968,o),
(485,1928,cs),
(485,1887,o),
(506,1850,o),
(575,1850,cs),
(1017,1850,l),
(580,108,ls),
(568,60,o),
(592,0,o),
(658,0,cs)
);
},
{
closed = 1;
nodes = (
(607,20,o),
(590,63,o),
(600,104,cs),
(1043,1870,l),
(575,1870,ls),
(519,1870,o),
(505,1894,o),
(505,1928,cs),
(505,1962,o),
(519,1988,o),
(575,1988,cs),
(1671,1988,ls),
(1724,1988,o),
(1739,1961,o),
(1739,1928,cs),
(1739,1894,o),
(1724,1870,o),
(1671,1870,cs),
(1181,1870,l),
(733,82,ls),
(726,53,o),
(707,20,o),
(658,20,cs)
);
},
{
closed = 1;
nodes = (
(1131,1829,o),
(1147,1846,o),
(1147,1867,cs),
(1147,1888,o),
(1131,1904,o),
(1110,1904,cs),
(1089,1904,o),
(1072,1888,o),
(1072,1867,cs),
(1072,1846,o),
(1089,1829,o),
(1110,1829,cs)
);
}
);
vertWidth = 0;
width = 1490;
},
{
.lastUpdate = 730920380.951;
layerId = "6449507E-FEE0-4D4A-A81F-7CAB6A5803D5";
shapes = (
{
closed = 1;
nodes = (
(741,-20,o),
(788,66,o),
(804,128,cs),
(1196,1691,l),
(1553,1691,ls),
(1701,1691,o),
(1731,1782,o),
(1731,1857,cs),
(1731,1939,o),
(1699,2028,o),
(1553,2028,cs),
(551,2028,ls),
(408,2028,o),
(375,1939,o),
(375,1857,cs),
(375,1782,o),
(401,1691,o),
(551,1691,cs),
(831,1691,l),
(459,200,ls),
(432,91,o),
(502,-20,o),
(624,-20,cs)
);
},
{
closed = 1;
nodes = (
(526,20,o),
(475,102,o),
(497,190,cs),
(883,1731,l),
(551,1731,ls),
(433,1731,o),
(415,1790,o),
(415,1857,cs),
(415,1929,o),
(438,1988,o),
(551,1988,cs),
(1553,1988,ls),
(1669,1988,o),
(1691,1929,o),
(1691,1857,cs),
(1691,1790,o),
(1671,1731,o),
(1553,1731,cs),
(1164,1731,l),
(766,138,ls),
(752,83,o),
(716,20,o),
(624,20,cs)
);
},
{
closed = 1;
nodes = (
(1049,1658,o),
(1076,1685,o),
(1076,1718,cs),
(1076,1751,o),
(1049,1778,o),
(1016,1778,cs),
(983,1778,o),
(956,1751,o),
(956,1718,cs),
(956,1685,o),
(983,1658,o),
(1016,1658,cs)
);
}
);
vertWidth = 0;
width = 1410;
}
);
metricLeft = T.ss02;
metricWidth = T;
changeCount = 1;
},
{
color = 5;
glyphname = U.ss04;
lastChange = "2024-02-29 17:26:20 +0000";
layers = (
{
.lastUpdate = 730920380.665;
layerId = m01;
shapes = (
{
closed = 1;
nodes = (
(647,-20,o),
(892,181,o),
(1065,475,c),
(973,100,ls),
(958,39,o),
(998,3,o),
(1047,0,cs),
(1088,-3,o),
(1134,20,o),
(1147,72,cs),
(1605,1909,ls),
(1618,1962,o),
(1595,2008,o),
(1527,2008,cs),
(1467,2008,o),
(1439,1969,o),
(1429,1930,cs),
(1279,1328,l),
(1093,649,o),
(734,138,o),
(441,138,cs),
(250,138,o),
(188,356,o),
(276,705,cs),
(577,1904,ls),
(589,1952,o),
(562,2008,o),
(507,2008,cs),
(452,2008,o),
(411,1968,o),
(398,1914,cs),
(103,728,ls),
(-10,274,o),
(106,-20,o),
(407,-20,cs)
);
},
{
closed = 1;
nodes = (
(120,0,o),
(12,279,o),
(123,724,cs),
(418,1910,ls),
(430,1957,o),
(461,1988,o),
(507,1988,cs),
(548,1988,o),
(567,1949,o),
(557,1910,cs),
(256,709,ls),
(167,352,o),
(235,118,o),
(441,118,cs),
(746,118,o),
(1111,640,o),
(1299,1322,c),
(1449,1926,ls),
(1457,1960,o),
(1478,1988,o),
(1527,1988,cs),
(1581,1988,o),
(1596,1958,o),
(1585,1915,cs),
(1127,78,ls),
(1116,35,o),
(1083,17,o),
(1049,20,cs),
(1008,23,o),
(981,47,o),
(993,96,cs),
(1104,546,ls),
(1116,597,o),
(1109,599,o),
(1085,553,cs),
(913,224,o),
(657,0,o),
(407,0,cs)
);
},
{
closed = 1;
nodes = (
(515,1881,o),
(531,1898,o),
(531,1919,cs),
(531,1940,o),
(515,1956,o),
(494,1956,cs),
(473,1956,o),
(456,1940,o),
(456,1919,cs),
(456,1898,o),
(473,1881,o),
(494,1881,cs)
);
}
);
vertWidth = 0;
width = 1392;
},
{
.lastUpdate = 730920380.951;
layerId = "6449507E-FEE0-4D4A-A81F-7CAB6A5803D5";
shapes = (
{
closed = 1;
nodes = (
(650,-20,o),
(799,91,o),
(914,248,c),
(898,191,ls),
(862,63,o),
(955,-20,o),
(1055,-20,cs),
(1131,-20,o),
(1224,19,o),
(1249,120,cs),
(1672,1818,ls),
(1698,1923,o),
(1660,2028,o),
(1518,2028,cs),
(1397,2028,o),
(1344,1961,o),
(1324,1883,cs),
(1181,1312,l),
(1016,731,o),
(743,317,o),
(511,317,cs),
(385,317,o),
(414,552,o),
(452,705,cs),
(729,1813,ls),
(754,1913,o),
(692,2028,o),
(582,2028,cs),
(488,2028,o),
(405,1969,o),
(381,1873,cs),
(107,775,ls),
(-31,223,o),
(159,-20,o),
(480,-20,cs)
);
},
{
closed = 1;
nodes = (
(180,20,o),
(14,238,o),
(145,765,cs),
(419,1863,ls),
(439,1944,o),
(502,1988,o),
(582,1988,cs),
(666,1988,o),
(710,1904,o),
(690,1823,cs),
(414,715,ls),
(375,558,o),
(337,277,o),
(511,277,cs),
(768,277,o),
(1052,712,o),
(1219,1302,c),
(1362,1873,ls),
(1379,1941,o),
(1417,1988,o),
(1518,1988,cs),
(1631,1988,o),
(1656,1916,o),
(1634,1828,cs),
(1211,130,ls),
(1191,48,o),
(1121,20,o),
(1055,20,cs),
(974,20,o),
(909,76,o),
(936,183,cs),
(967,304,ls),
(999,430,o),
(998,435,o),
(923,322,cs),
(792,124,o),
(635,20,o),
(480,20,cs)
);
},
{
closed = 1;
nodes = (
(583,1803,o),
(610,1830,o),
(610,1863,cs),
(610,1896,o),
(583,1923,o),
(550,1923,cs),
(517,1923,o),
(490,1896,o),
(490,1863,cs),
(490,1830,o),
(517,1803,o),
(550,1803,cs)
);
}
);
vertWidth = 0;
width = 1468;
}
);
metricLeft = U.ss02;
metricWidth = U;
changeCount = 1;
},
{
color = 5;
glyphname = V.ss04;
lastChange = "2024-02-29 17:26:20 +0000";
layers = (
{
.lastUpdate = 730920380.666;
layerId = m01;
shapes = (
{
closed = 1;
nodes = (
(648,0,o),
(668,40,o),
(690,84,cs),
(1588,1895,ls),
(1623,1966,o),
(1580,2008,o),
(1527,2008,cs),
(1464,2008,o),
(1437,1981,o),
(1411,1927,cs),
(646,371,l),
(564,1926,ls),
(562,1959,o),
(546,2008,o),
(470,2008,cs),
(406,2008,o),
(385,1967,o),
(388,1916,cs),
(494,87,ls),
(496,54,o),
(517,0,o),
(582,0,cs)
);
},
{
closed = 1;
nodes = (
(532,20,o),
(516,59,o),
(514,89,cs),
(408,1918,ls),
(405,1962,o),
(419,1988,o),
(470,1988,cs),
(531,1988,o),
(542,1954,o),
(544,1924,cs),
(627,350,ls),
(630,299,o),
(633,299,o),
(658,350,cs),
(1429,1919,ls),
(1453,1968,o),
(1473,1988,o),
(1527,1988,cs),
(1570,1988,o),
(1598,1960,o),
(1570,1903,cs),
(672,92,ls),
(650,48,o),
(636,20,o),
(582,20,cs)
);
},
{
closed = 1;
nodes = (
(495,1881,o),
(511,1898,o),
(511,1919,cs),
(511,1940,o),
(495,1956,o),
(474,1956,cs),
(453,1956,o),
(436,1940,o),
(436,1919,cs),
(436,1898,o),
(453,1881,o),
(474,1881,cs)
);
}
);
vertWidth = 0;
width = 1206;
},
{
.lastUpdate = 730920380.952;
layerId = "6449507E-FEE0-4D4A-A81F-7CAB6A5803D5";
shapes = (
{
closed = 1;
nodes = (
(713,-20,o),
(754,36,o),
(790,108,cs),
(1623,1786,ls),
(1701,1944,o),
(1591,2028,o),
(1477,2028,cs),
(1377,2028,o),
(1332,1987,o),
(1288,1897,cs),
(743,789,l),
(688,1861,ls),
(684,1932,o),
(652,2028,o),
(507,2028,cs),
(380,2028,o),
(330,1951,o),
(336,1843,cs),
(430,147,ls),
(434,79,o),
(480,-20,o),
(606,-20,cs)
);
},
{
closed = 1;
nodes = (
(507,20,o),
(473,91,o),
(470,149,cs),
(376,1845,ls),
(371,1938,o),
(404,1988,o),
(507,1988,cs),
(623,1988,o),
(645,1921,o),
(648,1859,cs),
(705,755,ls),
(710,652,o),
(720,652,o),
(771,755,cs),
(1324,1879,ls),
(1364,1961,o),
(1393,1988,o),
(1477,1988,cs),
(1570,1988,o),
(1651,1933,o),
(1587,1804,cs),
(754,126,ls),
(721,59,o),
(692,20,o),
(606,20,cs)
);
},
{
closed = 1;
nodes = (
(534,1803,o),
(561,1830,o),
(561,1863,cs),
(561,1896,o),
(534,1923,o),
(501,1923,cs),
(468,1923,o),
(441,1896,o),
(441,1863,cs),
(441,1830,o),
(468,1803,o),
(501,1803,cs)
);
}
);
vertWidth = 0;
width = 1278;
}
);
metricLeft = V.ss02;
metricWidth = V;
changeCount = 1;
},
{
color = 5;
glyphname = W.ss04;
lastChange = "2024-02-29 17:26:20 +0000";
layers = (
{
.lastUpdate = 730920380.667;
layerId = m01;
shapes = (
{
closed = 1;
nodes = (
(582,0,o),
(609,32,o),
(642,83,cs),
(1116,814,l),
(1354,93,ls),
(1373,36,o),
(1380,0,o),
(1440,0,cs),
(1488,0,o),
(1527,28,o),
(1553,84,cs),
(2388,1895,ls),
(2416,1955,o),
(2382,2008,o),
(2317,2008,cs),
(2271,2008,o),
(2232,1976,o),
(2209,1927,cs),
(1471,327,l),
(1245,1010,ls),
(1231,1051,o),
(1216,1092,o),
(1157,1092,cs),
(1105,1092,o),
(1074,1053,o),
(1047,1012,cs),
(596,316,l),
(562,1923,ls),
(561,1972,o),
(526,2008,o),
(474,2008,cs),
(423,2008,o),
(385,1972,o),
(386,1917,cs),
(424,96,ls),
(425,34,o),
(451,0,o),
(509,0,cs)
);
},
{
closed = 1;
nodes = (
(462,20,o),
(445,42,o),
(444,96,cs),
(406,1917,ls),
(405,1963,o),
(432,1988,o),
(474,1988,cs),
(517,1988,o),
(541,1963,o),
(542,1923,cs),
(576,299,ls),
(577,257,o),
(580,257,o),
(607,298,cs),
(1063,1002,ls),
(1088,1041,o),
(1115,1072,o),
(1157,1072,cs),
(1202,1072,o),
(1212,1045,o),
(1225,1004,cs),
(1454,310,ls),
(1466,273,o),
(1468,273,o),
(1485,309,cs),
(2227,1919,ls),
(2247,1963,o),
(2279,1988,o),
(2317,1988,cs),
(2368,1988,o),
(2392,1951,o),
(2370,1903,cs),
(1535,92,ls),
(1512,42,o),
(1481,20,o),
(1440,20,cs),
(1396,20,o),
(1393,42,o),
(1374,99,cs),
(1134,827,ls),
(1124,858,o),
(1122,858,o),
(1101,826,cs),
(626,93,ls),
(594,44,o),
(573,20,o),
(509,20,cs)
);
},
{
closed = 1;
nodes = (
(496,1881,o),
(512,1898,o),
(512,1919,cs),
(512,1940,o),
(496,1956,o),
(475,1956,cs),
(454,1956,o),
(437,1940,o),
(437,1919,cs),
(437,1898,o),
(454,1881,o),
(475,1881,cs)
);
}
);
vertWidth = 0;
width = 2002;
},
{
.lastUpdate = 730920380.953;
layerId = "6449507E-FEE0-4D4A-A81F-7CAB6A5803D5";
shapes = (
{
closed = 1;
nodes = (
(617,-20,o),
(672,16,o),
(731,110,cs),
(1076,655,l),
(1230,179,ls),
(1267,63,o),
(1295,0,o),
(1407,0,cs),
(1482,0,o),
(1550,36,o),
(1594,132,cs),
(2350,1769,ls),
(2408,1895,o),
(2330,2008,o),
(2199,2008,cs),
(2121,2008,o),
(2053,1965,o),
(2012,1876,cs),
(1494,756,l),
(1358,1175,ls),
(1329,1265,o),
(1304,1343,o),
(1186,1343,cs),
(1101,1343,o),
(1045,1289,o),
(997,1213,cs),
(709,756,l),
(685,1835,ls),
(683,1937,o),
(611,2008,o),
(506,2008,cs),
(408,2008,o),
(331,1943,o),
(333,1832,cs),
(369,161,ls),
(372,32,o),
(434,-20,o),
(542,-20,cs)
);
},
{
closed = 1;
nodes = (
(451,20,o),
(411,54,o),
(409,161,cs),
(373,1832,ls),
(371,1922,o),
(425,1968,o),
(506,1968,cs),
(592,1968,o),
(643,1917,o),
(645,1835,cs),
(669,724,ls),
(671,630,o),
(674,630,o),
(732,721,cs),
(1031,1193,ls),
(1075,1263,o),
(1118,1303,o),
(1186,1303,cs),
(1277,1303,o),
(1292,1252,o),
(1320,1165,cs),
(1463,725,ls),
(1487,650,o),
(1489,650,o),
(1524,726,cs),
(2048,1860,ls),
(2083,1935,o),
(2135,1968,o),
(2199,1968,cs),
(2305,1968,o),
(2361,1887,o),
(2314,1785,cs),
(1558,148,ls),
(1521,67,o),
(1470,40,o),
(1407,40,cs),
(1319,40,o),
(1303,80,o),
(1268,189,cs),
(1109,679,ls),
(1088,744,o),
(1085,744,o),
(1045,681,cs),
(697,130,ls),
(643,45,o),
(604,20,o),
(542,20,cs)
);
},
{
closed = 1;
nodes = (
(538,1803,o),
(565,1830,o),
(565,1863,cs),
(565,1896,o),
(538,1923,o),
(505,1923,cs),
(472,1923,o),
(445,1896,o),
(445,1863,cs),
(445,1830,o),
(472,1803,o),
(505,1803,cs)
);
}
);
vertWidth = 0;
width = 2003;
}
);
metricLeft = W.ss02;
metricWidth = W;
changeCount = 1;
},
{
color = 5;
glyphname = X.ss04;
lastChange = "2024-02-29 17:26:20 +0000";
layers = (
{
.lastUpdate = 730920380.667;
layerId = m01;
shapes = (
{
closed = 1;
nodes = (
(-22,-10,o),
(40,-10,o),
(83,41,cs),
(747,833,l),
(1011,70,ls),
(1035,2,o),
(1097,-13,o),
(1145,9,cs),
(1178,27,o),
(1196,69,o),
(1178,120,cs),
(887,967,l),
(1647,1864,ls),
(1691,1916,o),
(1676,1965,o),
(1645,1990,cs),
(1611,2017,o),
(1551,2017,o),
(1508,1965,cs),
(824,1153,l),
(552,1943,ls),
(530,2006,o),
(464,2019,o),
(421,2003,cs),
(377,1986,o),
(367,1942,o),
(388,1882,cs),
(684,1020,l),
(-63,134,ls),
(-96,94,o),
(-89,46,o),
(-58,21,cs)
);
},
{
closed = 1;
nodes = (
(-69,55,o),
(-75,89,o),
(-47,122,cs),
(706,1016,l),
(406,1888,ls),
(387,1942,o),
(395,1973,o),
(429,1985,cs),
(463,2000,o),
(516,1988,o),
(534,1937,cs),
(807,1139,ls),
(815,1115,o),
(818,1115,o),
(838,1139,cs),
(1524,1953,ls),
(1560,1996,o),
(1606,1996,o),
(1633,1974,cs),
(1657,1954,o),
(1668,1921,o),
(1631,1878,cs),
(865,971,l),
(1160,114,ls),
(1175,71,o),
(1161,41,o),
(1135,27,cs),
(1097,9,o),
(1048,20,o),
(1029,76,cs),
(763,850,ls),
(756,871,o),
(753,871,o),
(735,849,cs),
(67,53,ls),
(31,11,o),
(-15,11,o),
(-46,37,cs)
);
},
{
closed = 1;
nodes = (
(479,1881,o),
(495,1898,o),
(495,1919,cs),
(495,1940,o),
(479,1956,o),
(458,1956,cs),
(437,1956,o),
(420,1940,o),
(420,1919,cs),
(420,1898,o),
(437,1881,o),
(458,1881,cs)
);
}
);
vertWidth = 0;
width = 1385;
},
{
.lastUpdate = 730920380.953;
layerId = "6449507E-FEE0-4D4A-A81F-7CAB6A5803D5";
shapes = (
{
closed = 1;
nodes = (
(161,-37,o),
(269,-47,o),
(353,52,cs),
(866,658,l),
(1053,110,ls),
(1097,-18,o),
(1224,-38,o),
(1306,-2,cs),
(1370,29,o),
(1424,109,o),
(1387,218,cs),
(1141,937,l),
(1823,1740,ls),
(1919,1854,o),
(1864,1947,o),
(1807,1990,cs),
(1749,2039,o),
(1630,2052,o),
(1546,1953,cs),
(1010,1320,l),
(810,1903,ls),
(766,2030,o),
(634,2047,o),
(560,2019,cs),
(491,1992,o),
(429,1930,o),
(478,1788,cs),
(734,1041,l),
(71,260,ls),
(-7,169,o),
(31,70,o),
(94,19,cs)
);
},
{
closed = 1;
nodes = (
(67,93,o),
(40,163,o),
(101,234,cs),
(780,1033,l),
(516,1802,ls),
(477,1916,o),
(515,1959,o),
(574,1981,cs),
(637,2005,o),
(737,1991,o),
(772,1889,cs),
(972,1304,ls),
(993,1243,o),
(996,1243,o),
(1044,1299,cs),
(1576,1927,ls),
(1645,2008,o),
(1734,1997,o),
(1783,1958,cs),
(1831,1920,o),
(1870,1857,o),
(1793,1766,cs),
(1095,945,l),
(1349,204,ls),
(1379,117,o),
(1343,58,o),
(1290,34,cs),
(1221,3,o),
(1127,20,o),
(1091,124,cs),
(899,683,ls),
(881,735,o),
(877,735,o),
(835,685,cs),
(323,78,ls),
(254,-4,o),
(175,3,o),
(120,49,cs)
);
},
{
closed = 1;
nodes = (
(655,1803,o),
(682,1830,o),
(682,1863,cs),
(682,1896,o),
(655,1923,o),
(622,1923,cs),
(589,1923,o),
(562,1896,o),
(562,1863,cs),
(562,1830,o),
(589,1803,o),
(622,1803,cs)
);
}
);
vertWidth = 0;
width = 1600;
}
);
metricLeft = X.ss02;
metricWidth = X;
changeCount = 1;
},
{
color = 5;
glyphname = Y.ss04;
lastChange = "2024-02-29 17:26:20 +0000";
layers = (
{
.lastUpdate = 730920380.668;
layerId = m01;
shapes = (
{
closed = 1;
nodes = (
(310,-10,o),
(369,-13,o),
(404,40,cs),
(1598,1866,ls),
(1630,1915,o),
(1618,1967,o),
(1585,1990,cs),
(1546,2020,o),
(1480,2008,o),
(1446,1956,cs),
(930,1168,l),
(559,1941,ls),
(529,2003,o),
(474,2016,o),
(433,2000,cs),
(390,1984,o),
(370,1939,o),
(399,1878,cs),
(818,996,l),
(255,133,ls),
(229,93,o),
(235,45,o),
(270,21,cs)
);
},
{
closed = 1;
nodes = (
(254,56,o),
(250,90,o),
(271,123,cs),
(840,994,l),
(417,1886,ls),
(392,1938,o),
(405,1970,o),
(441,1982,cs),
(474,1996,o),
(516,1985,o),
(541,1933,cs),
(915,1155,ls),
(927,1131,o),
(929,1131,o),
(946,1156,cs),
(1462,1946,ls),
(1490,1989,o),
(1542,1997,o),
(1573,1974,cs),
(1599,1956,o),
(1609,1917,o),
(1582,1876,cs),
(388,50,ls),
(360,7,o),
(316,11,o),
(282,37,cs)
);
},
{
closed = 1;
nodes = (
(490,1881,o),
(506,1898,o),
(506,1919,cs),
(506,1940,o),
(490,1956,o),
(469,1956,cs),
(448,1956,o),
(431,1940,o),
(431,1919,cs),
(431,1898,o),
(448,1881,o),
(469,1881,cs)
);
}
);
vertWidth = 0;
width = 1243;
},
{
layerId = "6449507E-FEE0-4D4A-A81F-7CAB6A5803D5";
shapes = (
{
closed = 1;
nodes = (
(544,-39,o),
(663,-46,o),
(730,57,cs),
(1832,1750,ls),
(1901,1856,o),
(1859,1947,o),
(1801,1993,cs),
(1728,2046,o),
(1600,2041,o),
(1533,1938,cs),
(1111,1291,l),
(809,1913,ls),
(750,2034,o),
(640,2048,o),
(562,2019,cs),
(497,1995,o),
(416,1922,o),
(484,1778,cs),
(881,939,l),
(430,248,ls),
(372,159,o),
(402,70,o),
(469,18,cs)
);
},
{
closed = 1;
nodes = (
(438,93,o),
(418,155,o),
(464,226,cs),
(927,935,l),
(520,1796,ls),
(466,1910,o),
(521,1961,o),
(576,1981,cs),
(642,2007,o),
(724,1996,o),
(773,1895,cs),
(1081,1258,ls),
(1104,1211,o),
(1107,1211,o),
(1138,1259,cs),
(1567,1916,ls),
(1621,1999,o),
(1717,2004,o),
(1777,1961,c),
(1825,1922,o),
(1854,1857,o),
(1798,1772,cs),
(696,79,ls),
(643,-2,o),
(556,2,o),
(493,50,cs)
);
},
{
closed = 1;
nodes = (
(654,1803,o),
(681,1830,o),
(681,1863,cs),
(681,1896,o),
(654,1923,o),
(621,1923,cs),
(588,1923,o),
(561,1896,o),
(561,1863,cs),
(561,1830,o),
(588,1803,o),
(621,1803,cs)
);
}
);
vertWidth = 0;
width = 1502;
}
);
metricLeft = Y.ss02;
metricWidth = Y;
changeCount = 1;
},
{
color = 5;
glyphname = Z.ss04;
lastChange = "2024-02-29 17:26:20 +0000";
layers = (
{
.lastUpdate = 730920380.669;
layerId = m01;
shapes = (
{
closed = 1;
nodes = (
(1237,1,ls),
(1306,1,o),
(1327,41,o),
(1327,81,cs),
(1327,124,o),
(1306,164,o),
(1237,164,cs),
(249,164,l),
(1655,1865,ls),
(1697,1915,o),
(1687,1966,o),
(1661,1988,cs),
(1644,2002,o),
(1626,2008,o),
(1595,2008,cs),
(521,2008,ls),
(451,2008,o),
(430,1968,o),
(430,1928,cs),
(430,1887,o),
(451,1848,o),
(521,1848,cs),
(1417,1848,l),
(1,134,ls),
(-25,102,o),
(-28,58,o),
(-7,31,cs),
(5,15,o),
(40,1,o),
(76,1,cs)
);
},
{
closed = 1;
nodes = (
(45,21,o),
(17,32,o),
(9,43,cs),
(-7,63,o),
(-5,95,o),
(17,122,cs),
(1436,1840,ls),
(1458,1866,o),
(1458,1868,o),
(1421,1868,cs),
(521,1868,ls),
(464,1868,o),
(450,1894,o),
(450,1928,cs),
(450,1962,o),
(464,1988,o),
(521,1988,cs),
(1595,1988,ls),
(1622,1988,o),
(1634,1984,o),
(1649,1972,cs),
(1667,1957,o),
(1675,1920,o),
(1639,1877,cs),
(227,168,ls),
(208,145,o),
(209,144,o),
(238,144,cs),
(1237,144,ls),
(1293,144,o),
(1307,118,o),
(1307,81,cs),
(1307,47,o),
(1293,21,o),
(1237,21,cs),
(76,21,ls)
);
},
{
closed = 1;
nodes = (
(541,1892,o),
(557,1909,o),
(557,1930,cs),
(557,1951,o),
(541,1967,o),
(520,1967,cs),
(499,1967,o),
(482,1951,o),
(482,1930,cs),
(482,1909,o),
(499,1892,o),
(520,1892,cs)
);
}
);
vertWidth = 0;
width = 1502;
},
{
.lastUpdate = 730920380.954;
layerId = "6449507E-FEE0-4D4A-A81F-7CAB6A5803D5";
shapes = (
{
closed = 1;
nodes = (
(1253,-20,ls),
(1399,-20,o),
(1432,72,o),
(1432,151,cs),
(1432,230,o),
(1399,319,o),
(1253,319,cs),
(549,319,l),
(1724,1740,ls),
(1820,1856,o),
(1762,1946,o),
(1720,1987,cs),
(1684,2019,o),
(1650,2028,o),
(1597,2028,cs),
(611,2028,ls),
(465,2028,o),
(435,1939,o),
(435,1857,cs),
(435,1781,o),
(466,1689,o),
(611,1689,cs),
(1229,1689,l),
(47,260,ls),
(-9,192,o),
(-3,98,o),
(36,43,c),
(56,19,o),
(114,-20,o),
(187,-20,cs)
);
},
{
closed = 1;
nodes = (
(129,20,o),
(85,48,o),
(68,67,c),
(38,112,o),
(33,181,o),
(77,234,cs),
(1270,1675,ls),
(1313,1727,o),
(1311,1729,o),
(1238,1729,cs),
(611,1729,ls),
(495,1729,o),
(475,1790,o),
(475,1857,cs),
(475,1930,o),
(495,1988,o),
(611,1988,cs),
(1597,1988,ls),
(1643,1988,o),
(1665,1982,o),
(1692,1957,cs),
(1729,1922,o),
(1770,1858,o),
(1694,1766,cs),
(500,324,ls),
(464,281,o),
(464,279,o),
(529,279,cs),
(1253,279,ls),
(1369,279,o),
(1392,220,o),
(1392,151,cs),
(1392,82,o),
(1369,20,o),
(1253,20,cs),
(187,20,ls)
);
},
{
closed = 1;
nodes = (
(633,1803,o),
(660,1830,o),
(660,1863,cs),
(660,1896,o),
(633,1923,o),
(600,1923,cs),
(567,1923,o),
(540,1896,o),
(540,1863,cs),
(540,1830,o),
(567,1803,o),
(600,1803,cs)
);
}
);
vertWidth = 0;
width = 1597;
}
);
metricLeft = Z.ss02;
metricWidth = Z;
changeCount = 1;
},
{
color = 5;
glyphname = A.ss05;
lastChange = "2024-02-29 17:26:20 +0000";
layers = (
{
.lastUpdate = 730920380.669;
layerId = m01;
shapes = (
{
closed = 1;
nodes = (
(79,0,o),
(97,20,o),
(131,75,cs),
(700,999,l),
(1116,999,l),
(1124,75,ls),
(1124,42,o),
(1132,0,o),
(1206,0,cs),
(1270,0,o),
(1295,35,o),
(1294,85,cs),
(1271,1936,ls),
(1271,1973,o),
(1237,2008,o),
(1188,2008,cs),
(1121,2008,o),
(1105,1972,o),
(1081,1933,cs),
(-41,116,ls),
(-81,51,o),
(-43,0,o),
(11,0,cs)
);
},
{
closed = 1;
nodes = (
(-31,20,o),
(-57,54,o),
(-25,106,cs),
(1097,1923,ls),
(1122,1963,o),
(1134,1988,o),
(1188,1988,cs),
(1228,1988,o),
(1251,1963,o),
(1251,1936,cs),
(1274,85,ls),
(1275,42,o),
(1259,20,o),
(1206,20,cs),
(1149,20,o),
(1144,45,o),
(1144,75,cs),
(1136,1019,l),
(688,1019,l),
(115,85,ls),
(82,31,o),
(70,20,o),
(11,20,cs)
);
},
{
closed = 1;
nodes = (
(1106,1651,l),
(1114,1160,l),
(799,1160,l)
);
},
{
closed = 1;
nodes = (
(1134,1140,l),
(1127,1676,ls),
(1126,1718,o),
(1124,1717,o),
(1098,1676,cs),
(763,1140,l)
);
},
{
closed = 1;
nodes = (
(1202,1881,o),
(1218,1898,o),
(1218,1919,cs),
(1218,1940,o),
(1202,1956,o),
(1181,1956,cs),
(1160,1956,o),
(1143,1940,o),
(1143,1919,cs),
(1143,1898,o),
(1160,1881,o),
(1181,1881,cs)
);
},
{
closed = 1;
nodes = (
(1000,1684,l),
(984,1615,l),
(1038,1662,l),
(1026,1668,l),
(1140,1850,l),
(1124,1860,l),
(1012,1677,l)
);
}
);
vertWidth = 0;
width = 1454;
},
{
layerId = "6449507E-FEE0-4D4A-A81F-7CAB6A5803D5";
shapes = (
{
closed = 1;
nodes = (
(228,-20,o),
(262,3,o),
(318,94,cs),
(720,746,l),
(1050,746,l),
(1056,143,ls),
(1057,79,o),
(1069,-20,o),
(1232,-20,cs),
(1360,-20,o),
(1407,51,o),
(1406,151,cs),
(1385,1870,ls),
(1384,1942,o),
(1326,2028,o),
(1214,2028,cs),
(1107,2028,o),
(1074,1981,o),
(1033,1915,cs),
(-2,234,ls),
(-104,68,o),
(15,-20,o),
(130,-20,cs)
);
},
{
closed = 1;
nodes = (
(39,20,o),
(-53,76,o),
(32,214,cs),
(1067,1893,ls),
(1108,1959,o),
(1129,1988,o),
(1214,1988,cs),
(1303,1988,o),
(1344,1927,o),
(1345,1870,cs),
(1366,151,ls),
(1367,66,o),
(1336,20,o),
(1232,20,cs),
(1104,20,o),
(1097,82,o),
(1096,143,cs),
(1089,786,l),
(698,786,l),
(284,114,ls),
(234,32,o),
(215,20,o),
(130,20,cs)
);
},
{
closed = 1;
nodes = (
(1045,1272,l),
(1047,1082,l),
(927,1082,l)
);
},
{
closed = 1;
nodes = (
(1087,1042,l),
(1084,1314,ls),
(1083,1410,o),
(1081,1409,o),
(1023,1315,cs),
(855,1042,l)
);
},
{
closed = 1;
nodes = (
(1241,1803,o),
(1268,1830,o),
(1268,1863,cs),
(1268,1896,o),
(1241,1923,o),
(1208,1923,cs),
(1175,1923,o),
(1148,1896,o),
(1148,1863,cs),
(1148,1830,o),
(1175,1803,o),
(1208,1803,cs)
);
},
{
closed = 1;
nodes = (
(1015,1608,l),
(1005,1537,l),
(1062,1582,l),
(1050,1589,l),
(1161,1771,l),
(1138,1785,l),
(1027,1602,l)
);
}
);
vertWidth = 0;
width = 1531;
}
);
metricLeft = A.ss02;
metricWidth = A;
changeCount = 1;
},
{
color = 5;
glyphname = B.ss05;
lastChange = "2024-02-29 17:26:20 +0000";
layers = (
{
.lastUpdate = 730920380.67;
layerId = m01;
shapes = (
{
closed = 1;
nodes = (
(806,2,o),
(1175,141,o),
(1251,443,cs),
(1324,737,o),
(1170,955,o),
(844,1061,c),
(1130,1097,o),
(1301,1208,o),
(1350,1413,cs),
(1439,1792,o),
(1163,2011,o),
(621,2008,cs),
(565,2008,o),
(530,1988,o),
(515,1926,cs),
(63,113,ls),
(49,56,o),
(81,0,o),
(140,0,cs)
);
},
{
closed = 1;
nodes = (
(94,20,o),
(71,61,o),
(83,109,cs),
(534,1920,ls),
(547,1974,o),
(572,1988,o),
(621,1988,cs),
(1153,1991,o),
(1417,1783,o),
(1330,1417,cs),
(1282,1214,o),
(1110,1108,o),
(812,1078,cs),
(753,1072,o),
(757,1068,o),
(812,1051,cs),
(1148,950,o),
(1303,740,o),
(1231,447,cs),
(1159,157,o),
(801,22,o),
(140,20,cs)
);
},
{
closed = 1;
nodes = (
(464,1001,l),
(923,960,o),
(1152,764,o),
(1083,481,cs),
(1029,261,o),
(755,159,o),
(253,155,c)
);
},
{
closed = 1;
nodes = (
(750,135,o),
(1045,242,o),
(1103,477,cs),
(1176,775,o),
(928,984,o),
(448,1023,c),
(227,135,l)
);
},
{
closed = 1;
nodes = (
(675,1850,l),
(1058,1843,o),
(1244,1695,o),
(1179,1433,cs),
(1133,1237,o),
(910,1154,o),
(507,1175,c)
);
},
{
closed = 1;
nodes = (
(905,1130,o),
(1149,1217,o),
(1199,1429,cs),
(1268,1706,o),
(1063,1867,o),
(659,1870,c),
(481,1157,l)
);
},
{
closed = 1;
nodes = (
(625,1881,o),
(641,1898,o),
(641,1919,cs),
(641,1940,o),
(625,1956,o),
(604,1956,cs),
(583,1956,o),
(566,1940,o),
(566,1919,cs),
(566,1898,o),
(583,1881,o),
(604,1881,cs)
);
},
{
closed = 1;
nodes = (
(516,1656,l),
(521,1586,l),
(558,1646,l),
(545,1649,l),
(597,1857,l),
(580,1861,l),
(529,1653,l)
);
}
);
vertWidth = 0;
width = 1350;
},
{
.lastUpdate = 730920380.955;
layerId = "6449507E-FEE0-4D4A-A81F-7CAB6A5803D5";
shapes = (
{
closed = 1;
nodes = (
(910,-20,o),
(1266,163,o),
(1343,468,cs),
(1407,723,o),
(1326,905,o),
(1095,1020,c),
(1285,1079,o),
(1394,1190,o),
(1434,1355,cs),
(1528,1751,o),
(1285,2028,o),
(682,2028,cs),
(579,2028,o),
(516,1999,o),
(486,1880,cs),
(68,203,ls),
(37,80,o),
(113,-20,o),
(225,-20,cs)
);
},
{
closed = 1;
nodes = (
(136,20,o),
(81,92,o),
(106,193,cs),
(524,1870,ls),
(549,1969,o),
(591,1988,o),
(682,1988,cs),
(1263,1988,o),
(1484,1738,o),
(1396,1365,cs),
(1357,1205,o),
(1252,1105,o),
(1058,1051,cs),
(986,1031,o),
(986,1027,o),
(1058,994,cs),
(1289,887,o),
(1366,724,o),
(1305,478,cs),
(1232,193,o),
(898,20,o),
(225,20,cs)
);
},
{
closed = 1;
nodes = (
(602,893,l),
(871,851,o),
(1052,745,o),
(1006,549,cs),
(967,395,o),
(761,332,o),
(455,317,c)
);
},
{
closed = 1;
nodes = (
(744,285,o),
(998,352,o),
(1044,539,cs),
(1101,776,o),
(869,899,o),
(572,937,c),
(403,275,l)
);
},
{
closed = 1;
nodes = (
(801,1686,l),
(1005,1665,o),
(1133,1585,o),
(1092,1420,cs),
(1059,1291,o),
(910,1227,o),
(683,1216,c)
);
},
{
closed = 1;
nodes = (
(897,1177,o),
(1090,1249,o),
(1130,1410,cs),
(1182,1616,o),
(1004,1713,o),
(771,1728,c),
(631,1174,l)
);
},
{
closed = 1;
nodes = (
(696,1803,o),
(723,1830,o),
(723,1863,cs),
(723,1896,o),
(696,1923,o),
(663,1923,cs),
(630,1923,o),
(603,1896,o),
(603,1863,cs),
(603,1830,o),
(630,1803,o),
(663,1803,cs)
);
},
{
closed = 1;
nodes = (
(561,1565,l),
(572,1494,l),
(613,1553,l),
(600,1556,l),
(653,1763,l),
(627,1770,l),
(574,1562,l)
);
}
);
vertWidth = 0;
width = 1419;
}
);
metricLeft = B.ss02;
metricWidth = B;
changeCount = 1;
},
{
color = 5;
glyphname = C.ss05;
lastChange = "2024-02-29 17:26:20 +0000";
layers = (
{
.lastUpdate = 730920380.671;
layerId = m01;
shapes = (
{
closed = 1;
nodes = (
(828,-20,o),
(1049,149,o),
(1240,437,cs),
(1306,542,o),
(1318,580,o),
(1318,600,cs),
(1320,643,o),
(1286,665,o),
(1249,668,cs),
(1190,674,o),
(1167,624,o),
(1115,546,cs),
(944,288,o),
(776,143,o),
(645,143,cs),
(438,143,o),
(345,412,o),
(397,850,cs),
(472,1474,o),
(718,1868,o),
(1061,1868,cs),
(1171,1868,o),
(1249,1787,o),
(1296,1661,cs),
(1316,1613,o),
(1363,1589,o),
(1412,1607,cs),
(1459,1621,o),
(1477,1658,o),
(1466,1702,cs),
(1413,1903,o),
(1282,2028,o),
(1079,2028,cs),
(631,2028,o),
(303,1560,o),
(213,823,cs),
(156,312,o),
(314,-20,o),
(642,-20,cs)
);
},
{
closed = 1;
nodes = (
(328,0,o),
(176,317,o),
(233,821,cs),
(322,1551,o),
(642,2008,o),
(1079,2008,cs),
(1273,2008,o),
(1395,1892,o),
(1446,1696,cs),
(1455,1661,o),
(1444,1637,o),
(1406,1625,cs),
(1366,1611,o),
(1331,1628,o),
(1314,1669,cs),
(1266,1798,o),
(1180,1888,o),
(1061,1888,cs),
(705,1888,o),
(452,1482,o),
(377,852,cs),
(325,408,o),
(423,123,o),
(645,123,cs),
(785,123,o),
(956,276,o),
(1131,536,cs),
(1182,616,o),
(1202,652,o),
(1247,648,cs),
(1279,645,o),
(1300,632,o),
(1298,600,cs),
(1298,583,o),
(1290,548,o),
(1224,447,cs),
(1037,161,o),
(821,0,o),
(642,0,cs)
);
},
{
closed = 1;
nodes = (
(1401,1651,o),
(1417,1668,o),
(1417,1689,cs),
(1417,1710,o),
(1401,1726,o),
(1380,1726,cs),
(1359,1726,o),
(1342,1710,o),
(1342,1689,cs),
(1342,1668,o),
(1359,1651,o),
(1380,1651,cs)
);
},
{
closed = 1;
nodes = (
(1250,1913,l),
(1184,1932,l),
(1228,1878,l),
(1234,1889,l),
(1285,1854,o),
(1315,1820,o),
(1337,1757,c),
(1352,1764,l),
(1331,1827,o),
(1295,1868,o),
(1243,1902,c)
);
}
);
vertWidth = 0;
width = 1288;
},
{
.lastUpdate = 730920380.956;
layerId = "6449507E-FEE0-4D4A-A81F-7CAB6A5803D5";
shapes = (
{
closed = 1;
nodes = (
(878,-20,o),
(1116,139,o),
(1314,446,cs),
(1397,573,o),
(1403,620,o),
(1403,644,cs),
(1403,716,o),
(1346,796,o),
(1248,802,cs),
(1173,808,o),
(1123,775,o),
(1038,645,cs),
(909,448,o),
(786,319,o),
(688,319,cs),
(541,319,o),
(529,595,o),
(560,851,cs),
(615,1341,o),
(790,1689,o),
(1071,1689,cs),
(1130,1689,o),
(1168,1632,o),
(1195,1562,cs),
(1233,1463,o),
(1326,1425,o),
(1422,1454,cs),
(1515,1483,o),
(1558,1556,o),
(1534,1655,cs),
(1478,1887,o),
(1322,2028,o),
(1086,2028,cs),
(642,2028,o),
(289,1603,o),
(197,850,cs),
(131,272,o),
(347,-20,o),
(686,-20,cs)
);
},
{
closed = 1;
nodes = (
(370,20,o),
(173,286,o),
(237,846,cs),
(327,1584,o),
(664,1988,o),
(1086,1988,cs),
(1304,1988,o),
(1443,1863,o),
(1496,1645,cs),
(1515,1564,o),
(1485,1515,o),
(1410,1492,cs),
(1331,1467,o),
(1264,1495,o),
(1233,1576,cs),
(1203,1652,o),
(1153,1729,o),
(1071,1729,cs),
(762,1729,o),
(576,1355,o),
(520,855,cs),
(489,594,o),
(500,279,o),
(688,279,cs),
(806,279,o),
(941,423,o),
(1072,623,cs),
(1150,744,o),
(1185,767,o),
(1246,762,cs),
(1322,758,o),
(1363,701,o),
(1363,644,cs),
(1363,624,o),
(1358,586,o),
(1280,468,cs),
(1087,169,o),
(864,20,o),
(686,20,cs)
);
},
{
closed = 1;
nodes = (
(1404,1552,o),
(1431,1579,o),
(1431,1612,cs),
(1431,1645,o),
(1404,1672,o),
(1371,1672,cs),
(1338,1672,o),
(1311,1645,o),
(1311,1612,cs),
(1311,1579,o),
(1338,1552,o),
(1371,1552,cs)
);
},
{
closed = 1;
nodes = (
(1160,1867,l),
(1091,1856,l),
(1150,1815,l),
(1152,1828,l),
(1222,1818,o),
(1270,1784,o),
(1316,1696,c),
(1340,1711,l),
(1292,1800,o),
(1227,1844,o),
(1158,1855,c)
);
}
);
vertWidth = 0;
width = 1375;
}
);
metricLeft = C.ss02;
metricWidth = C;
changeCount = 1;
},
{
color = 5;
glyphname = D.ss05;
lastChange = "2024-02-29 17:26:20 +0000";
layers = (
{
.lastUpdate = 730920380.671;
layerId = m01;
shapes = (
{
closed = 1;
nodes = (
(344,0,ls),
(981,0,o),
(1393,400,o),
(1560,1197,cs),
(1663,1687,o),
(1431,2008,o),
(951,2008,cs),
(623,2008,ls),
(550,2008,o),
(531,1977,o),
(519,1927,cs),
(63,98,ls),
(51,50,o),
(76,0,o),
(138,0,cs)
);
},
{
closed = 1;
nodes = (
(90,20,o),
(73,54,o),
(83,94,cs),
(539,1923,ls),
(550,1968,o),
(562,1988,o),
(623,1988,cs),
(951,1988,ls),
(1419,1988,o),
(1641,1681,o),
(1540,1201,cs),
(1375,411,o),
(972,20,o),
(344,20,cs),
(138,20,ls)
);
},
{
closed = 1;
nodes = (
(678,1848,l),
(930,1848,ls),
(1292,1848,o),
(1469,1605,o),
(1379,1188,cs),
(1237,510,o),
(894,160,o),
(354,160,cs),
(257,160,l)
);
},
{
closed = 1;
nodes = (
(354,140,ls),
(903,140,o),
(1255,499,o),
(1399,1184,cs),
(1491,1611,o),
(1304,1868,o),
(930,1868,cs),
(662,1868,l),
(231,140,l)
);
},
{
closed = 1;
nodes = (
(628,1881,o),
(644,1898,o),
(644,1919,cs),
(644,1940,o),
(628,1956,o),
(607,1956,cs),
(586,1956,o),
(569,1940,o),
(569,1919,cs),
(569,1898,o),
(586,1881,o),
(607,1881,cs)
);
},
{
closed = 1;
nodes = (
(519,1656,l),
(524,1586,l),
(561,1646,l),
(548,1649,l),
(600,1857,l),
(583,1861,l),
(532,1653,l)
);
}
);
vertWidth = 0;
width = 1468;
},
{
.lastUpdate = 730920380.956;
layerId = "6449507E-FEE0-4D4A-A81F-7CAB6A5803D5";
shapes = (
{
closed = 1;
nodes = (
(414,-20,ls),
(1043,-20,o),
(1462,369,o),
(1628,1161,cs),
(1739,1686,o),
(1488,2028,o),
(983,2028,cs),
(684,2028,ls),
(549,2028,o),
(516,1970,o),
(494,1883,cs),
(67,190,ls),
(41,87,o),
(95,-20,o),
(229,-20,cs)
);
},
{
closed = 1;
nodes = (
(122,20,o),
(84,95,o),
(105,180,cs),
(532,1873,ls),
(553,1952,o),
(573,1988,o),
(684,1988,cs),
(983,1988,ls),
(1465,1988,o),
(1696,1673,o),
(1588,1169,cs),
(1426,392,o),
(1025,20,o),
(414,20,cs),
(229,20,ls)
);
},
{
closed = 1;
nodes = (
(807,1689,l),
(965,1689,ls),
(1234,1689,o),
(1340,1493,o),
(1276,1193,cs),
(1154,635,o),
(886,320,o),
(442,320,cs),
(465,320,l)
);
},
{
closed = 1;
nodes = (
(442,280,ls),
(906,280,o),
(1190,615,o),
(1316,1185,cs),
(1383,1503,o),
(1260,1729,o),
(965,1729,cs),
(775,1729,l),
(413,280,l)
);
},
{
closed = 1;
nodes = (
(699,1803,o),
(726,1830,o),
(726,1863,cs),
(726,1896,o),
(699,1923,o),
(666,1923,cs),
(633,1923,o),
(606,1896,o),
(606,1863,cs),
(606,1830,o),
(633,1803,o),
(666,1803,cs)
);
},
{
closed = 1;
nodes = (
(564,1565,l),
(575,1494,l),
(616,1553,l),
(603,1556,l),
(656,1763,l),
(630,1770,l),
(577,1562,l)
);
}
);
vertWidth = 0;
width = 1536;
}
);
metricLeft = D.ss02;
metricWidth = D;
changeCount = 1;
},
{
color = 5;
glyphname = E.ss05;
lastChange = "2024-02-29 17:26:20 +0000";
layers = (
{
.lastUpdate = 730920380.672;
layerId = m01;
shapes = (
{
closed = 1;
nodes = (
(1056,0,ls),
(1110,0,o),
(1147,36,o),
(1147,88,cs),
(1147,130,o),
(1110,158,o),
(1056,158,cs),
(257,158,l),
(466,998,l),
(1008,998,ls),
(1063,998,o),
(1099,1031,o),
(1099,1078,cs),
(1099,1128,o),
(1063,1156,o),
(1008,1156,cs),
(505,1156,l),
(678,1850,l),
(1451,1850,ls),
(1505,1850,o),
(1541,1880,o),
(1541,1930,cs),
(1541,1981,o),
(1505,2008,o),
(1451,2008,cs),
(626,2008,ls),
(555,2008,o),
(531,1978,o),
(518,1925,cs),
(63,100,ls),
(51,51,o),
(75,0,o),
(138,0,cs)
);
},
{
closed = 1;
nodes = (
(89,20,o),
(73,55,o),
(83,96,cs),
(538,1921,ls),
(549,1967,o),
(566,1988,o),
(626,1988,cs),
(1451,1988,ls),
(1497,1988,o),
(1521,1970,o),
(1521,1930,cs),
(1521,1891,o),
(1496,1870,o),
(1451,1870,cs),
(662,1870,l),
(479,1136,l),
(1008,1136,ls),
(1055,1136,o),
(1079,1117,o),
(1079,1078,cs),
(1079,1041,o),
(1054,1018,o),
(1008,1018,cs),
(450,1018,l),
(231,138,l),
(1056,138,ls),
(1102,138,o),
(1127,119,o),
(1127,88,cs),
(1127,45,o),
(1101,20,o),
(1056,20,cs),
(138,20,ls)
);
},
{
closed = 1;
nodes = (
(628,1881,o),
(644,1898,o),
(644,1919,cs),
(644,1940,o),
(628,1956,o),
(607,1956,cs),
(586,1956,o),
(569,1940,o),
(569,1919,cs),
(569,1898,o),
(586,1881,o),
(607,1881,cs)
);
},
{
closed = 1;
nodes = (
(519,1656,l),
(524,1586,l),
(561,1646,l),
(548,1649,l),
(600,1857,l),
(583,1861,l),
(532,1653,l)
);
}
);
vertWidth = 0;
width = 1229;
},
{
layerId = "6449507E-FEE0-4D4A-A81F-7CAB6A5803D5";
shapes = (
{
closed = 1;
nodes = (
(1071,-20,ls),
(1180,-20,o),
(1249,55,o),
(1249,153,cs),
(1249,238,o),
(1198,317,o),
(1071,317,cs),
(464,317,l),
(609,906,l),
(1029,906,ls),
(1145,906,o),
(1208,981,o),
(1208,1075,cs),
(1208,1170,o),
(1148,1243,o),
(1029,1243,cs),
(692,1243,l),
(801,1691,l),
(1433,1691,ls),
(1551,1691,o),
(1611,1766,o),
(1611,1860,cs),
(1611,1956,o),
(1554,2028,o),
(1433,2028,cs),
(681,2028,ls),
(555,2028,o),
(511,1970,o),
(488,1878,cs),
(68,192,ls),
(40,80,o),
(102,-20,o),
(230,-20,cs)
);
},
{
closed = 1;
nodes = (
(127,20,o),
(83,89,o),
(106,182,cs),
(526,1868,ls),
(546,1950,o),
(577,1988,o),
(681,1988,cs),
(1433,1988,ls),
(1532,1988,o),
(1571,1939,o),
(1571,1860,cs),
(1571,1783,o),
(1529,1731,o),
(1433,1731,cs),
(769,1731,l),
(640,1203,l),
(1029,1203,ls),
(1127,1203,o),
(1168,1153,o),
(1168,1075,cs),
(1168,998,o),
(1124,946,o),
(1029,946,cs),
(577,946,l),
(412,277,l),
(1071,277,ls),
(1174,277,o),
(1209,223,o),
(1209,153,cs),
(1209,73,o),
(1160,20,o),
(1071,20,cs),
(230,20,ls)
);
},
{
closed = 1;
nodes = (
(699,1803,o),
(726,1830,o),
(726,1863,cs),
(726,1896,o),
(699,1923,o),
(666,1923,cs),
(633,1923,o),
(606,1896,o),
(606,1863,cs),
(606,1830,o),
(633,1803,o),
(666,1803,cs)
);
},
{
closed = 1;
nodes = (
(564,1565,l),
(575,1494,l),
(616,1553,l),
(603,1556,l),
(656,1763,l),
(630,1770,l),
(577,1562,l)
);
}
);
vertWidth = 0;
width = 1341;
}
);
metricLeft = E.ss02;
metricWidth = E;
changeCount = 1;
},
